M48
; DRILL file {KiCad 7.0.5} date Tue Jul  4 22:36:38 2023
; FORMAT={-:-/ absolute / inch / decimal}
; #@! TF.CreationDate,2023-07-04T22:36:38+05:30
; #@! TF.GenerationSoftware,Kicad,Pcbnew,7.0.5
; #@! TF.FileFunction,Plated,1,2,PTH
FMAT,2
INCH
; #@! TA.AperFunction,Plated,PTH,ViaDrill
T1C0.0157
; #@! TA.AperFunction,Plated,PTH,ComponentDrill
T2C0.0315
; #@! TA.AperFunction,Plated,PTH,ComponentDrill
T3C0.0512
%
G90
G05
T1
X2.5197Y-2.4606
X2.5197Y-2.5394
X2.5197Y-2.6181
X2.5984Y-2.4606
X2.5984Y-2.5394
X2.5984Y-2.6181
X2.6772Y-2.4606
X2.6772Y-2.5394
X2.6772Y-2.6181
X2.7047Y-3.126
X2.7047Y-3.2047
X2.7087Y-3.5866
X2.7087Y-3.6457
X2.7087Y-3.6969
X2.7874Y-3.126
X2.7874Y-3.2047
X2.7953Y-3.5866
X2.7953Y-3.6457
X2.7953Y-3.6969
X2.8583Y-2.4016
X2.9803Y-3.126
X2.9803Y-3.2008
X2.9843Y-3.6457
X3.2362Y-2.4055
X3.6457Y-2.9764
X3.6457Y-3.0551
X3.6614Y-3.5709
X3.6614Y-3.6496
X3.6772Y-2.4016
X3.7244Y-2.9764
X3.7244Y-3.0551
X3.7402Y-3.5709
X3.7402Y-3.6496
X4.0945Y-2.4016
X4.1024Y-2.8976
X4.1496Y-2.5
X4.1496Y-2.5787
X4.1496Y-2.6575
X4.2283Y-2.5
X4.2283Y-2.5787
X4.2283Y-2.6575
X4.2362Y-2.9921
X4.2362Y-3.0433
X4.2362Y-3.0906
X4.3071Y-2.5
X4.3071Y-2.5787
X4.3071Y-2.6575
X4.4961Y-3.1142
X4.4961Y-3.1575
X4.4961Y-3.1969
X4.5039Y-3.0472
X4.5276Y-3.1339
X4.5276Y-3.1772
X4.5787Y-3.315
X4.5866Y-2.8307
X4.5866Y-2.8976
X4.5866Y-2.9724
T2
X4.2449Y-3.5984
X4.3449Y-3.5984
X4.4449Y-3.5984
T3
X2.4606Y-2.9488
X2.4606Y-3.1488
X2.4644Y-3.3959
X2.4644Y-3.5959
T0
M30
