%TF.GenerationSoftware,KiCad,Pcbnew,7.0.5*%
%TF.CreationDate,2023-07-04T22:36:34+05:30*%
%TF.ProjectId,BUCK_LOW_EMI,4255434b-5f4c-44f5-975f-454d492e6b69,rev?*%
%TF.SameCoordinates,Original*%
%TF.FileFunction,Legend,Bot*%
%TF.FilePolarity,Positive*%
%FSLAX46Y46*%
G04 Gerber Fmt 4.6, Leading zero omitted, Abs format (unit mm)*
G04 Created by KiCad (PCBNEW 7.0.5) date 2023-07-04 22:36:34*
%MOMM*%
%LPD*%
G01*
G04 APERTURE LIST*
%ADD10C,0.200000*%
%ADD11C,0.150000*%
G04 APERTURE END LIST*
D10*
X81236279Y-63867219D02*
X81111279Y-62867219D01*
X80807707Y-63867219D02*
X80742231Y-63343409D01*
X80742231Y-63343409D02*
X80777945Y-63248171D01*
X80777945Y-63248171D02*
X80867231Y-63200552D01*
X80867231Y-63200552D02*
X81010088Y-63200552D01*
X81010088Y-63200552D02*
X81111279Y-63248171D01*
X81111279Y-63248171D02*
X81164850Y-63295790D01*
X80391040Y-63200552D02*
X80010088Y-63200552D01*
X80206517Y-62867219D02*
X80313660Y-63724361D01*
X80313660Y-63724361D02*
X80277945Y-63819600D01*
X80277945Y-63819600D02*
X80188660Y-63867219D01*
X80188660Y-63867219D02*
X80093421Y-63867219D01*
X79819611Y-63200552D02*
X79438659Y-63200552D01*
X79635088Y-62867219D02*
X79742231Y-63724361D01*
X79742231Y-63724361D02*
X79706516Y-63819600D01*
X79706516Y-63819600D02*
X79617231Y-63867219D01*
X79617231Y-63867219D02*
X79521992Y-63867219D01*
X79105325Y-63200552D02*
X79230325Y-64200552D01*
X79111278Y-63248171D02*
X79010087Y-63200552D01*
X79010087Y-63200552D02*
X78819611Y-63200552D01*
X78819611Y-63200552D02*
X78730325Y-63248171D01*
X78730325Y-63248171D02*
X78688659Y-63295790D01*
X78688659Y-63295790D02*
X78652944Y-63391028D01*
X78652944Y-63391028D02*
X78688659Y-63676742D01*
X78688659Y-63676742D02*
X78748182Y-63771980D01*
X78748182Y-63771980D02*
X78801754Y-63819600D01*
X78801754Y-63819600D02*
X78902944Y-63867219D01*
X78902944Y-63867219D02*
X79093421Y-63867219D01*
X79093421Y-63867219D02*
X79182706Y-63819600D01*
X78325563Y-63819600D02*
X78236278Y-63867219D01*
X78236278Y-63867219D02*
X78045801Y-63867219D01*
X78045801Y-63867219D02*
X77944611Y-63819600D01*
X77944611Y-63819600D02*
X77885087Y-63724361D01*
X77885087Y-63724361D02*
X77879135Y-63676742D01*
X77879135Y-63676742D02*
X77914849Y-63581504D01*
X77914849Y-63581504D02*
X78004135Y-63533885D01*
X78004135Y-63533885D02*
X78146992Y-63533885D01*
X78146992Y-63533885D02*
X78236278Y-63486266D01*
X78236278Y-63486266D02*
X78271992Y-63391028D01*
X78271992Y-63391028D02*
X78266040Y-63343409D01*
X78266040Y-63343409D02*
X78206516Y-63248171D01*
X78206516Y-63248171D02*
X78105325Y-63200552D01*
X78105325Y-63200552D02*
X77962468Y-63200552D01*
X77962468Y-63200552D02*
X77873182Y-63248171D01*
X77462468Y-63771980D02*
X77420801Y-63819600D01*
X77420801Y-63819600D02*
X77474373Y-63867219D01*
X77474373Y-63867219D02*
X77516039Y-63819600D01*
X77516039Y-63819600D02*
X77462468Y-63771980D01*
X77462468Y-63771980D02*
X77474373Y-63867219D01*
X77396992Y-63248171D02*
X77355325Y-63295790D01*
X77355325Y-63295790D02*
X77408896Y-63343409D01*
X77408896Y-63343409D02*
X77450563Y-63295790D01*
X77450563Y-63295790D02*
X77396992Y-63248171D01*
X77396992Y-63248171D02*
X77408896Y-63343409D01*
X76152945Y-62819600D02*
X77170802Y-64105314D01*
X75105326Y-62819600D02*
X76123183Y-64105314D01*
X74944611Y-63819600D02*
X74855326Y-63867219D01*
X74855326Y-63867219D02*
X74664849Y-63867219D01*
X74664849Y-63867219D02*
X74563659Y-63819600D01*
X74563659Y-63819600D02*
X74504135Y-63724361D01*
X74504135Y-63724361D02*
X74498183Y-63676742D01*
X74498183Y-63676742D02*
X74533897Y-63581504D01*
X74533897Y-63581504D02*
X74623183Y-63533885D01*
X74623183Y-63533885D02*
X74766040Y-63533885D01*
X74766040Y-63533885D02*
X74855326Y-63486266D01*
X74855326Y-63486266D02*
X74891040Y-63391028D01*
X74891040Y-63391028D02*
X74885088Y-63343409D01*
X74885088Y-63343409D02*
X74825564Y-63248171D01*
X74825564Y-63248171D02*
X74724373Y-63200552D01*
X74724373Y-63200552D02*
X74581516Y-63200552D01*
X74581516Y-63200552D02*
X74492230Y-63248171D01*
X74093421Y-63867219D02*
X74010087Y-63200552D01*
X73968421Y-62867219D02*
X74021992Y-62914838D01*
X74021992Y-62914838D02*
X73980325Y-62962457D01*
X73980325Y-62962457D02*
X73926754Y-62914838D01*
X73926754Y-62914838D02*
X73968421Y-62867219D01*
X73968421Y-62867219D02*
X73980325Y-62962457D01*
X73533897Y-63200552D02*
X73641040Y-64057695D01*
X73641040Y-64057695D02*
X73700564Y-64152933D01*
X73700564Y-64152933D02*
X73801754Y-64200552D01*
X73801754Y-64200552D02*
X73849374Y-64200552D01*
X73492231Y-62867219D02*
X73545802Y-62914838D01*
X73545802Y-62914838D02*
X73504135Y-62962457D01*
X73504135Y-62962457D02*
X73450564Y-62914838D01*
X73450564Y-62914838D02*
X73492231Y-62867219D01*
X73492231Y-62867219D02*
X73504135Y-62962457D01*
X72712469Y-63867219D02*
X72646993Y-63343409D01*
X72646993Y-63343409D02*
X72682707Y-63248171D01*
X72682707Y-63248171D02*
X72771993Y-63200552D01*
X72771993Y-63200552D02*
X72962469Y-63200552D01*
X72962469Y-63200552D02*
X73063660Y-63248171D01*
X72706517Y-63819600D02*
X72807707Y-63867219D01*
X72807707Y-63867219D02*
X73045803Y-63867219D01*
X73045803Y-63867219D02*
X73135088Y-63819600D01*
X73135088Y-63819600D02*
X73170803Y-63724361D01*
X73170803Y-63724361D02*
X73158898Y-63629123D01*
X73158898Y-63629123D02*
X73099374Y-63533885D01*
X73099374Y-63533885D02*
X72998184Y-63486266D01*
X72998184Y-63486266D02*
X72760088Y-63486266D01*
X72760088Y-63486266D02*
X72658898Y-63438647D01*
X72236279Y-63867219D02*
X72111279Y-62867219D01*
X71807707Y-63867219D02*
X71742231Y-63343409D01*
X71742231Y-63343409D02*
X71777945Y-63248171D01*
X71777945Y-63248171D02*
X71867231Y-63200552D01*
X71867231Y-63200552D02*
X72010088Y-63200552D01*
X72010088Y-63200552D02*
X72111279Y-63248171D01*
X72111279Y-63248171D02*
X72164850Y-63295790D01*
X71319612Y-63771980D02*
X71277945Y-63819600D01*
X71277945Y-63819600D02*
X71331517Y-63867219D01*
X71331517Y-63867219D02*
X71373183Y-63819600D01*
X71373183Y-63819600D02*
X71319612Y-63771980D01*
X71319612Y-63771980D02*
X71331517Y-63867219D01*
X70343422Y-63200552D02*
X70444612Y-64010076D01*
X70444612Y-64010076D02*
X70504136Y-64105314D01*
X70504136Y-64105314D02*
X70557708Y-64152933D01*
X70557708Y-64152933D02*
X70658898Y-64200552D01*
X70658898Y-64200552D02*
X70801755Y-64200552D01*
X70801755Y-64200552D02*
X70891041Y-64152933D01*
X70420803Y-63819600D02*
X70521993Y-63867219D01*
X70521993Y-63867219D02*
X70712470Y-63867219D01*
X70712470Y-63867219D02*
X70801755Y-63819600D01*
X70801755Y-63819600D02*
X70843422Y-63771980D01*
X70843422Y-63771980D02*
X70879136Y-63676742D01*
X70879136Y-63676742D02*
X70843422Y-63391028D01*
X70843422Y-63391028D02*
X70783898Y-63295790D01*
X70783898Y-63295790D02*
X70730327Y-63248171D01*
X70730327Y-63248171D02*
X70629136Y-63200552D01*
X70629136Y-63200552D02*
X70438660Y-63200552D01*
X70438660Y-63200552D02*
X70349374Y-63248171D01*
X69950565Y-63867219D02*
X69867231Y-63200552D01*
X69825565Y-62867219D02*
X69879136Y-62914838D01*
X69879136Y-62914838D02*
X69837469Y-62962457D01*
X69837469Y-62962457D02*
X69783898Y-62914838D01*
X69783898Y-62914838D02*
X69825565Y-62867219D01*
X69825565Y-62867219D02*
X69837469Y-62962457D01*
X69533898Y-63200552D02*
X69152946Y-63200552D01*
X69349375Y-62867219D02*
X69456518Y-63724361D01*
X69456518Y-63724361D02*
X69420803Y-63819600D01*
X69420803Y-63819600D02*
X69331518Y-63867219D01*
X69331518Y-63867219D02*
X69236279Y-63867219D01*
X68902946Y-63867219D02*
X68777946Y-62867219D01*
X68474374Y-63867219D02*
X68408898Y-63343409D01*
X68408898Y-63343409D02*
X68444612Y-63248171D01*
X68444612Y-63248171D02*
X68533898Y-63200552D01*
X68533898Y-63200552D02*
X68676755Y-63200552D01*
X68676755Y-63200552D02*
X68777946Y-63248171D01*
X68777946Y-63248171D02*
X68831517Y-63295790D01*
X67486279Y-63200552D02*
X67569612Y-63867219D01*
X67914850Y-63200552D02*
X67980327Y-63724361D01*
X67980327Y-63724361D02*
X67944612Y-63819600D01*
X67944612Y-63819600D02*
X67855327Y-63867219D01*
X67855327Y-63867219D02*
X67712469Y-63867219D01*
X67712469Y-63867219D02*
X67611279Y-63819600D01*
X67611279Y-63819600D02*
X67557707Y-63771980D01*
X67093422Y-63867219D02*
X66968422Y-62867219D01*
X67016041Y-63248171D02*
X66914850Y-63200552D01*
X66914850Y-63200552D02*
X66724374Y-63200552D01*
X66724374Y-63200552D02*
X66635088Y-63248171D01*
X66635088Y-63248171D02*
X66593422Y-63295790D01*
X66593422Y-63295790D02*
X66557707Y-63391028D01*
X66557707Y-63391028D02*
X66593422Y-63676742D01*
X66593422Y-63676742D02*
X66652945Y-63771980D01*
X66652945Y-63771980D02*
X66706517Y-63819600D01*
X66706517Y-63819600D02*
X66807707Y-63867219D01*
X66807707Y-63867219D02*
X66998184Y-63867219D01*
X66998184Y-63867219D02*
X67087469Y-63819600D01*
X66176755Y-63771980D02*
X66135088Y-63819600D01*
X66135088Y-63819600D02*
X66188660Y-63867219D01*
X66188660Y-63867219D02*
X66230326Y-63819600D01*
X66230326Y-63819600D02*
X66176755Y-63771980D01*
X66176755Y-63771980D02*
X66188660Y-63867219D01*
X65712470Y-63867219D02*
X65629136Y-63200552D01*
X65587470Y-62867219D02*
X65641041Y-62914838D01*
X65641041Y-62914838D02*
X65599374Y-62962457D01*
X65599374Y-62962457D02*
X65545803Y-62914838D01*
X65545803Y-62914838D02*
X65587470Y-62867219D01*
X65587470Y-62867219D02*
X65599374Y-62962457D01*
X65093423Y-63867219D02*
X65182708Y-63819600D01*
X65182708Y-63819600D02*
X65224375Y-63771980D01*
X65224375Y-63771980D02*
X65260089Y-63676742D01*
X65260089Y-63676742D02*
X65224375Y-63391028D01*
X65224375Y-63391028D02*
X65164851Y-63295790D01*
X65164851Y-63295790D02*
X65111280Y-63248171D01*
X65111280Y-63248171D02*
X65010089Y-63200552D01*
X65010089Y-63200552D02*
X64867232Y-63200552D01*
X64867232Y-63200552D02*
X64777946Y-63248171D01*
X64777946Y-63248171D02*
X64736280Y-63295790D01*
X64736280Y-63295790D02*
X64700565Y-63391028D01*
X64700565Y-63391028D02*
X64736280Y-63676742D01*
X64736280Y-63676742D02*
X64795803Y-63771980D01*
X64795803Y-63771980D02*
X64849375Y-63819600D01*
X64849375Y-63819600D02*
X64950565Y-63867219D01*
X64950565Y-63867219D02*
X65093423Y-63867219D01*
X63486280Y-62819600D02*
X64504137Y-64105314D01*
D11*
X69569819Y-84093922D02*
X70569819Y-84427255D01*
X70569819Y-84427255D02*
X69569819Y-84760588D01*
X70284104Y-85046303D02*
X70284104Y-85522493D01*
X70569819Y-84951065D02*
X69569819Y-85284398D01*
X69569819Y-85284398D02*
X70569819Y-85617731D01*
X70474580Y-86522493D02*
X70522200Y-86474874D01*
X70522200Y-86474874D02*
X70569819Y-86332017D01*
X70569819Y-86332017D02*
X70569819Y-86236779D01*
X70569819Y-86236779D02*
X70522200Y-86093922D01*
X70522200Y-86093922D02*
X70426961Y-85998684D01*
X70426961Y-85998684D02*
X70331723Y-85951065D01*
X70331723Y-85951065D02*
X70141247Y-85903446D01*
X70141247Y-85903446D02*
X69998390Y-85903446D01*
X69998390Y-85903446D02*
X69807914Y-85951065D01*
X69807914Y-85951065D02*
X69712676Y-85998684D01*
X69712676Y-85998684D02*
X69617438Y-86093922D01*
X69617438Y-86093922D02*
X69569819Y-86236779D01*
X69569819Y-86236779D02*
X69569819Y-86332017D01*
X69569819Y-86332017D02*
X69617438Y-86474874D01*
X69617438Y-86474874D02*
X69665057Y-86522493D01*
X70569819Y-87712970D02*
X69569819Y-87712970D01*
X69569819Y-87712970D02*
X70284104Y-88046303D01*
X70284104Y-88046303D02*
X69569819Y-88379636D01*
X69569819Y-88379636D02*
X70569819Y-88379636D01*
X70284104Y-88808208D02*
X70284104Y-89284398D01*
X70569819Y-88712970D02*
X69569819Y-89046303D01*
X69569819Y-89046303D02*
X70569819Y-89379636D01*
X69569819Y-89617732D02*
X70569819Y-90284398D01*
X69569819Y-90284398D02*
X70569819Y-89617732D01*
X69665057Y-91379637D02*
X69617438Y-91427256D01*
X69617438Y-91427256D02*
X69569819Y-91522494D01*
X69569819Y-91522494D02*
X69569819Y-91760589D01*
X69569819Y-91760589D02*
X69617438Y-91855827D01*
X69617438Y-91855827D02*
X69665057Y-91903446D01*
X69665057Y-91903446D02*
X69760295Y-91951065D01*
X69760295Y-91951065D02*
X69855533Y-91951065D01*
X69855533Y-91951065D02*
X69998390Y-91903446D01*
X69998390Y-91903446D02*
X70569819Y-91332018D01*
X70569819Y-91332018D02*
X70569819Y-91951065D01*
X69569819Y-92570113D02*
X69569819Y-92665351D01*
X69569819Y-92665351D02*
X69617438Y-92760589D01*
X69617438Y-92760589D02*
X69665057Y-92808208D01*
X69665057Y-92808208D02*
X69760295Y-92855827D01*
X69760295Y-92855827D02*
X69950771Y-92903446D01*
X69950771Y-92903446D02*
X70188866Y-92903446D01*
X70188866Y-92903446D02*
X70379342Y-92855827D01*
X70379342Y-92855827D02*
X70474580Y-92808208D01*
X70474580Y-92808208D02*
X70522200Y-92760589D01*
X70522200Y-92760589D02*
X70569819Y-92665351D01*
X70569819Y-92665351D02*
X70569819Y-92570113D01*
X70569819Y-92570113D02*
X70522200Y-92474875D01*
X70522200Y-92474875D02*
X70474580Y-92427256D01*
X70474580Y-92427256D02*
X70379342Y-92379637D01*
X70379342Y-92379637D02*
X70188866Y-92332018D01*
X70188866Y-92332018D02*
X69950771Y-92332018D01*
X69950771Y-92332018D02*
X69760295Y-92379637D01*
X69760295Y-92379637D02*
X69665057Y-92427256D01*
X69665057Y-92427256D02*
X69617438Y-92474875D01*
X69617438Y-92474875D02*
X69569819Y-92570113D01*
X69569819Y-93189161D02*
X70569819Y-93522494D01*
X70569819Y-93522494D02*
X69569819Y-93855827D01*
%TO.C,G\u002A\u002A\u002A*%
G36*
X99074269Y-61676373D02*
G01*
X99115942Y-61703410D01*
X99240917Y-61862692D01*
X99374110Y-62107584D01*
X99490557Y-62382087D01*
X99565293Y-62630198D01*
X99573354Y-62795919D01*
X99539486Y-62859253D01*
X99463342Y-62912238D01*
X99320600Y-62956725D01*
X99085731Y-62998461D01*
X98733208Y-63043193D01*
X98237500Y-63096668D01*
X98064661Y-63115483D01*
X97935682Y-63131417D01*
X97927850Y-63133887D01*
X97840512Y-63234862D01*
X97717881Y-63455770D01*
X97577861Y-63761182D01*
X97438354Y-64115667D01*
X97386101Y-64322543D01*
X97329726Y-64658421D01*
X97277960Y-65070855D01*
X97237583Y-65512667D01*
X97218535Y-65781014D01*
X97198788Y-66190354D01*
X97211768Y-66466877D01*
X97268912Y-66634274D01*
X97381655Y-66716237D01*
X97561434Y-66736461D01*
X97819684Y-66718636D01*
X98239053Y-66742845D01*
X98685954Y-66907839D01*
X99054956Y-67196990D01*
X99088450Y-67231760D01*
X99195104Y-67306624D01*
X99348681Y-67350152D01*
X99589933Y-67370377D01*
X99959611Y-67375333D01*
X100393595Y-67384864D01*
X100750738Y-67426833D01*
X101029377Y-67517081D01*
X101276509Y-67671383D01*
X101539126Y-67905512D01*
X101898585Y-68256522D01*
X102460561Y-68160260D01*
X102643481Y-68126764D01*
X102950085Y-68049789D01*
X103109303Y-67963714D01*
X103136327Y-67857083D01*
X103046349Y-67718437D01*
X102964358Y-67607744D01*
X102936482Y-67458424D01*
X102985752Y-67229603D01*
X103005332Y-67161647D01*
X103095972Y-66846327D01*
X103187170Y-66528230D01*
X103213413Y-66444912D01*
X103341137Y-66136258D01*
X103486834Y-65880160D01*
X103519771Y-65833027D01*
X103632741Y-65651613D01*
X103679424Y-65541930D01*
X103686384Y-65523176D01*
X103775643Y-65399067D01*
X103945990Y-65198085D01*
X104169767Y-64953428D01*
X104173023Y-64949982D01*
X104436761Y-64683624D01*
X104638917Y-64519491D01*
X104823747Y-64428312D01*
X105035510Y-64380814D01*
X105087802Y-64373783D01*
X105517924Y-64377200D01*
X105940555Y-64504436D01*
X106399803Y-64768009D01*
X106667444Y-64975462D01*
X106864539Y-65217842D01*
X106977629Y-65520099D01*
X107036001Y-65936000D01*
X107040501Y-66231100D01*
X106976915Y-66519009D01*
X106819446Y-66776369D01*
X106547398Y-67035339D01*
X106140074Y-67328076D01*
X105707791Y-67641801D01*
X105353349Y-67979238D01*
X105156870Y-68295639D01*
X105114803Y-68601179D01*
X105223599Y-68906031D01*
X105479705Y-69220372D01*
X105647471Y-69378451D01*
X105829701Y-69508782D01*
X106016129Y-69564748D01*
X106274370Y-69576667D01*
X106572064Y-69600731D01*
X107088512Y-69765925D01*
X107538090Y-70074717D01*
X107894067Y-70511678D01*
X108021257Y-70737421D01*
X108152665Y-71010710D01*
X108222763Y-71209565D01*
X108245145Y-71277564D01*
X108378701Y-71492056D01*
X108576422Y-71696619D01*
X108634426Y-71747708D01*
X108871845Y-72011067D01*
X109055895Y-72290367D01*
X109230673Y-72632960D01*
X109505015Y-72250945D01*
X109610614Y-72098713D01*
X109855600Y-71666598D01*
X109987769Y-71257082D01*
X110027334Y-70814579D01*
X110025419Y-70667601D01*
X109999010Y-70440133D01*
X109921286Y-70284555D01*
X109766838Y-70134526D01*
X109711781Y-70089292D01*
X109543464Y-69965170D01*
X109446100Y-69915333D01*
X109389691Y-69878753D01*
X109250656Y-69742112D01*
X109071285Y-69539001D01*
X108950097Y-69389778D01*
X108836614Y-69217256D01*
X108810076Y-69088128D01*
X108852109Y-68953293D01*
X108872092Y-68916646D01*
X109062354Y-68733361D01*
X109380157Y-68564114D01*
X109394617Y-68558079D01*
X109574930Y-68481916D01*
X109708331Y-68442498D01*
X109817343Y-68457790D01*
X109924491Y-68545755D01*
X110052298Y-68724357D01*
X110223290Y-69011560D01*
X110459989Y-69425330D01*
X110511690Y-69515750D01*
X110654697Y-69774854D01*
X110763930Y-70001755D01*
X110848714Y-70229800D01*
X110918377Y-70492334D01*
X110982248Y-70822704D01*
X111049652Y-71254255D01*
X111129919Y-71820333D01*
X111173582Y-72303655D01*
X111150035Y-73116001D01*
X111013310Y-73898756D01*
X110770372Y-74598117D01*
X110755409Y-74630330D01*
X110606029Y-74918060D01*
X110463475Y-75141381D01*
X110356751Y-75254283D01*
X110071935Y-75342130D01*
X109664880Y-75325459D01*
X109162957Y-75182888D01*
X108558615Y-74912984D01*
X108124727Y-74684509D01*
X107671800Y-74414355D01*
X107316838Y-74152325D01*
X107024649Y-73871662D01*
X106760041Y-73545611D01*
X106446582Y-73118594D01*
X106250452Y-73358464D01*
X106236767Y-73375468D01*
X106048155Y-73650182D01*
X105844479Y-74004250D01*
X105653486Y-74382948D01*
X105502923Y-74731551D01*
X105420535Y-74995333D01*
X105419475Y-75001028D01*
X105408355Y-75269257D01*
X105440248Y-75653086D01*
X105507467Y-76107932D01*
X105602326Y-76589214D01*
X105717139Y-77052352D01*
X105844220Y-77452763D01*
X105847613Y-77461970D01*
X105948690Y-77744714D01*
X106020611Y-77961692D01*
X106048000Y-78066596D01*
X105990684Y-78078674D01*
X105782431Y-78092064D01*
X105440222Y-78103924D01*
X104983321Y-78113852D01*
X104430995Y-78121443D01*
X103802508Y-78126293D01*
X103117126Y-78128000D01*
X100186251Y-78128000D01*
X100241573Y-77937500D01*
X100265102Y-77853031D01*
X100351153Y-77511112D01*
X100460900Y-77039099D01*
X100588232Y-76463755D01*
X100727035Y-75811846D01*
X100919294Y-74892692D01*
X100725367Y-74372513D01*
X100689415Y-74274252D01*
X100562309Y-73909822D01*
X100419537Y-73481970D01*
X100285721Y-73063981D01*
X100234497Y-72902803D01*
X100100585Y-72504109D01*
X99970301Y-72142986D01*
X99865815Y-71881847D01*
X99767108Y-71602729D01*
X99669373Y-71229085D01*
X99596957Y-70849867D01*
X99520234Y-70463593D01*
X99376928Y-70108323D01*
X99152220Y-69856262D01*
X98816938Y-69676964D01*
X98341911Y-69539982D01*
X98150958Y-69495168D01*
X97758846Y-69386578D01*
X97427531Y-69258448D01*
X97122097Y-69089602D01*
X96807628Y-68858869D01*
X96449208Y-68545075D01*
X96011921Y-68127046D01*
X95895036Y-68012723D01*
X95538328Y-67657337D01*
X95287376Y-67382271D01*
X95129578Y-67158171D01*
X95052329Y-66955683D01*
X95043028Y-66745451D01*
X95089072Y-66498122D01*
X95177858Y-66184341D01*
X95207287Y-66089570D01*
X95475795Y-65422048D01*
X95860332Y-64703676D01*
X96340400Y-63973437D01*
X96438123Y-63836316D01*
X96653903Y-63523417D01*
X96831068Y-63253169D01*
X96938584Y-63072321D01*
X97042169Y-62928366D01*
X97256613Y-62711199D01*
X97515328Y-62501453D01*
X97729738Y-62343768D01*
X97992174Y-62140422D01*
X98180374Y-61982735D01*
X98300329Y-61889154D01*
X98577172Y-61743685D01*
X98856834Y-61665327D01*
X99074269Y-61676373D01*
G37*
G36*
X92559322Y-70344053D02*
G01*
X92728053Y-70426662D01*
X93053221Y-70687090D01*
X93331097Y-71032501D01*
X93525354Y-71412827D01*
X93599669Y-71778000D01*
X93597448Y-71873408D01*
X93497774Y-72357352D01*
X93267846Y-72786295D01*
X92931791Y-73125524D01*
X92513735Y-73340328D01*
X92432965Y-73363052D01*
X92080733Y-73413869D01*
X91721475Y-73402610D01*
X91384582Y-73339371D01*
X91099448Y-73234244D01*
X90895463Y-73097323D01*
X90802021Y-72938702D01*
X90848514Y-72768474D01*
X90873931Y-72734539D01*
X90952629Y-72666128D01*
X91056352Y-72683428D01*
X91243680Y-72789564D01*
X91343477Y-72844733D01*
X91750487Y-72967829D01*
X92152379Y-72950403D01*
X92518399Y-72808850D01*
X92817792Y-72559564D01*
X93019806Y-72218940D01*
X93093684Y-71803371D01*
X93082441Y-71644543D01*
X92956316Y-71272122D01*
X92715632Y-70980041D01*
X92392346Y-70783573D01*
X92018417Y-70697990D01*
X91625799Y-70738564D01*
X91246451Y-70920569D01*
X91199988Y-70953512D01*
X91051998Y-71043388D01*
X90958795Y-71036256D01*
X90853193Y-70934492D01*
X90779230Y-70832570D01*
X90769795Y-70696034D01*
X90898304Y-70564486D01*
X91178279Y-70416377D01*
X91304600Y-70366717D01*
X91730095Y-70274794D01*
X92175388Y-70265822D01*
X92559322Y-70344053D01*
G37*
G36*
X84542667Y-71820333D02*
G01*
X84466501Y-72336550D01*
X84246615Y-72775922D01*
X83896903Y-73118264D01*
X83431256Y-73344524D01*
X83135284Y-73428615D01*
X82911095Y-73457485D01*
X82684009Y-73430112D01*
X82375558Y-73346653D01*
X82281428Y-73315052D01*
X81879079Y-73097085D01*
X81545330Y-72786878D01*
X81330527Y-72428655D01*
X81284377Y-72268893D01*
X81248537Y-71910242D01*
X81700012Y-71910242D01*
X81814961Y-72305340D01*
X82089205Y-72668792D01*
X82097307Y-72676512D01*
X82289037Y-72824072D01*
X82509300Y-72903447D01*
X82828081Y-72940360D01*
X83136611Y-72937454D01*
X83515993Y-72835531D01*
X83797408Y-72605441D01*
X83999853Y-72235762D01*
X84029867Y-72149421D01*
X84083893Y-71725765D01*
X83971368Y-71332623D01*
X83692331Y-70970151D01*
X83564833Y-70857526D01*
X83406324Y-70768038D01*
X83202551Y-70728535D01*
X82891667Y-70719667D01*
X82644400Y-70724285D01*
X82420194Y-70754528D01*
X82256344Y-70830034D01*
X82091004Y-70970151D01*
X81947884Y-71127987D01*
X81744328Y-71509218D01*
X81700012Y-71910242D01*
X81248537Y-71910242D01*
X81244236Y-71867197D01*
X81280341Y-71451708D01*
X81388965Y-71106687D01*
X81420644Y-71047680D01*
X81732595Y-70658280D01*
X82146486Y-70393157D01*
X82632910Y-70272042D01*
X82865741Y-70258525D01*
X83323028Y-70284582D01*
X83689131Y-70400399D01*
X84006756Y-70616687D01*
X84274068Y-70905977D01*
X84477830Y-71321648D01*
X84530372Y-71725765D01*
X84542667Y-71820333D01*
G37*
G36*
X96823154Y-73386667D02*
G01*
X94533334Y-73386667D01*
X94533334Y-72963333D01*
X96311334Y-72963333D01*
X96311334Y-72038592D01*
X95570500Y-72014129D01*
X95557715Y-72013707D01*
X95207581Y-71999942D01*
X94992723Y-71980011D01*
X94880127Y-71943392D01*
X94836780Y-71879563D01*
X94829667Y-71778000D01*
X94829669Y-71774347D01*
X94837381Y-71674054D01*
X94882306Y-71611182D01*
X94997458Y-71575210D01*
X95215852Y-71555613D01*
X95570500Y-71541870D01*
X96311334Y-71517407D01*
X96311334Y-70677333D01*
X95416445Y-70677333D01*
X95184691Y-70677078D01*
X94866506Y-70672724D01*
X94672930Y-70657916D01*
X94574840Y-70626260D01*
X94543108Y-70571364D01*
X94548612Y-70486833D01*
X94550012Y-70477167D01*
X94569084Y-70402357D01*
X94618571Y-70351673D01*
X94726256Y-70320422D01*
X94919922Y-70303910D01*
X95227354Y-70297445D01*
X95676334Y-70296333D01*
X96777000Y-70296333D01*
X96823154Y-73386667D01*
G37*
G36*
X87933154Y-73386667D02*
G01*
X87421334Y-73386667D01*
X87421334Y-72201333D01*
X86824463Y-72201333D01*
X86476605Y-72184732D01*
X86028541Y-72085648D01*
X85716274Y-71893266D01*
X85533522Y-71602975D01*
X85476652Y-71227667D01*
X85897334Y-71227667D01*
X85897832Y-71237505D01*
X85963244Y-71391760D01*
X86105152Y-71570182D01*
X86192046Y-71648715D01*
X86341007Y-71730655D01*
X86547500Y-71768692D01*
X86867152Y-71778000D01*
X87421334Y-71778000D01*
X87421334Y-70677333D01*
X86867152Y-70677333D01*
X86654594Y-70680468D01*
X86410956Y-70705602D01*
X86246352Y-70768772D01*
X86105152Y-70885151D01*
X86090741Y-70899885D01*
X85953670Y-71079353D01*
X85897334Y-71227667D01*
X85476652Y-71227667D01*
X85474000Y-71210163D01*
X85477344Y-71102761D01*
X85542762Y-70827353D01*
X85720860Y-70572836D01*
X85967720Y-70296333D01*
X87887000Y-70296333D01*
X87909129Y-71778000D01*
X87933154Y-73386667D01*
G37*
G36*
X80418033Y-70279012D02*
G01*
X80459470Y-70359833D01*
X80425886Y-70456861D01*
X80345298Y-70690951D01*
X80228005Y-71032207D01*
X80083492Y-71453033D01*
X79921245Y-71925833D01*
X79870024Y-72074847D01*
X79674538Y-72629225D01*
X79516813Y-73029219D01*
X79385159Y-73280306D01*
X79267885Y-73387962D01*
X79153301Y-73357662D01*
X79029718Y-73194882D01*
X78885445Y-72905100D01*
X78708792Y-72493790D01*
X78570374Y-72170508D01*
X78433099Y-71866257D01*
X78328642Y-71652864D01*
X78272480Y-71563333D01*
X78219012Y-71617575D01*
X78116134Y-71799991D01*
X77979485Y-72081917D01*
X77824062Y-72434230D01*
X77677601Y-72773146D01*
X77541119Y-73060523D01*
X77435431Y-73234854D01*
X77344879Y-73321128D01*
X77253807Y-73344333D01*
X77209888Y-73338973D01*
X77141329Y-73298336D01*
X77067948Y-73200199D01*
X76979959Y-73023946D01*
X76867578Y-72748960D01*
X76721022Y-72354628D01*
X76530506Y-71820333D01*
X76518389Y-71786007D01*
X76352157Y-71314036D01*
X76207710Y-70902059D01*
X76093731Y-70574984D01*
X76018903Y-70357717D01*
X75991906Y-70275167D01*
X76060613Y-70260409D01*
X76233948Y-70254000D01*
X76327759Y-70259705D01*
X76411261Y-70295173D01*
X76487471Y-70386545D01*
X76571816Y-70559934D01*
X76679722Y-70841450D01*
X76826615Y-71257208D01*
X76837671Y-71288937D01*
X76969726Y-71675476D01*
X77077469Y-72004259D01*
X77150061Y-72241366D01*
X77176667Y-72352878D01*
X77178482Y-72373835D01*
X77254469Y-72493424D01*
X77292469Y-72470460D01*
X77384241Y-72323316D01*
X77506225Y-72069835D01*
X77642443Y-71741000D01*
X77813538Y-71323704D01*
X77989826Y-70977834D01*
X78147490Y-70795542D01*
X78298320Y-70776345D01*
X78454101Y-70919762D01*
X78626621Y-71225311D01*
X78827667Y-71692508D01*
X78942730Y-71973904D01*
X79068561Y-72265883D01*
X79162045Y-72464406D01*
X79208667Y-72537292D01*
X79217740Y-72526604D01*
X79272913Y-72398300D01*
X79364349Y-72147667D01*
X79481781Y-71803574D01*
X79614943Y-71394885D01*
X79691097Y-71156551D01*
X79815120Y-70777546D01*
X79907948Y-70523005D01*
X79983107Y-70368154D01*
X80054124Y-70288219D01*
X80134525Y-70258426D01*
X80237835Y-70254000D01*
X80418033Y-70279012D01*
G37*
G36*
X75040963Y-71732558D02*
G01*
X75045461Y-72095765D01*
X75046842Y-72538921D01*
X75043226Y-72903873D01*
X75034975Y-73160262D01*
X75022453Y-73277724D01*
X75010608Y-73295404D01*
X74911887Y-73338147D01*
X74703251Y-73366353D01*
X74364973Y-73381901D01*
X73877324Y-73386667D01*
X72774000Y-73386667D01*
X72774000Y-72963333D01*
X74552000Y-72963333D01*
X74552000Y-72038592D01*
X73811167Y-72014129D01*
X73798382Y-72013707D01*
X73448248Y-71999942D01*
X73233389Y-71980011D01*
X73120794Y-71943392D01*
X73077446Y-71879563D01*
X73070334Y-71778000D01*
X73070335Y-71774347D01*
X73078047Y-71674054D01*
X73122973Y-71611182D01*
X73238125Y-71575210D01*
X73456519Y-71555613D01*
X73811167Y-71541870D01*
X74552000Y-71517407D01*
X74552000Y-70677333D01*
X73657112Y-70677333D01*
X73425357Y-70677078D01*
X73107172Y-70672724D01*
X72913597Y-70657916D01*
X72815506Y-70626260D01*
X72783775Y-70571364D01*
X72789279Y-70486833D01*
X72790679Y-70477167D01*
X72809751Y-70402357D01*
X72859238Y-70351673D01*
X72966923Y-70320422D01*
X73160589Y-70303910D01*
X73468020Y-70297445D01*
X73917000Y-70296333D01*
X75017667Y-70296333D01*
X75040963Y-71732558D01*
G37*
G36*
X71588667Y-73397914D02*
G01*
X71355834Y-73371124D01*
X71305191Y-73364668D01*
X71201592Y-73332714D01*
X71143841Y-73249686D01*
X71114959Y-73076191D01*
X71097965Y-72772833D01*
X71072930Y-72201333D01*
X70249147Y-72201333D01*
X69883428Y-72794000D01*
X69788676Y-72945917D01*
X69628251Y-73183005D01*
X69504403Y-73315821D01*
X69384991Y-73373873D01*
X69237876Y-73386667D01*
X69053632Y-73377213D01*
X69004329Y-73325402D01*
X69058219Y-73196167D01*
X69099098Y-73123233D01*
X69235858Y-72900813D01*
X69399864Y-72651745D01*
X69442121Y-72589549D01*
X69581758Y-72365294D01*
X69624476Y-72218560D01*
X69572201Y-72100112D01*
X69426855Y-71960716D01*
X69378128Y-71916017D01*
X69147492Y-71590850D01*
X69099585Y-71361671D01*
X69577160Y-71361671D01*
X69726000Y-71608667D01*
X69780929Y-71657234D01*
X69927499Y-71731387D01*
X70147303Y-71768112D01*
X70488000Y-71778000D01*
X71080667Y-71778000D01*
X71080667Y-70677333D01*
X70541752Y-70677333D01*
X70204213Y-70691855D01*
X69963835Y-70746008D01*
X69779752Y-70852812D01*
X69758706Y-70869992D01*
X69588888Y-71103827D01*
X69577160Y-71361671D01*
X69099585Y-71361671D01*
X69072728Y-71233192D01*
X69154559Y-70873941D01*
X69393709Y-70543997D01*
X69472828Y-70470454D01*
X69585992Y-70387007D01*
X69720281Y-70333364D01*
X69912737Y-70301188D01*
X70200403Y-70282140D01*
X70620322Y-70267881D01*
X71588667Y-70239428D01*
X71588667Y-71778000D01*
X71588667Y-73397914D01*
G37*
%TD*%
M02*
