%TF.GenerationSoftware,KiCad,Pcbnew,7.0.5*%
%TF.CreationDate,2023-07-04T22:36:34+05:30*%
%TF.ProjectId,BUCK_LOW_EMI,4255434b-5f4c-44f5-975f-454d492e6b69,rev?*%
%TF.SameCoordinates,Original*%
%TF.FileFunction,Legend,Top*%
%TF.FilePolarity,Positive*%
%FSLAX46Y46*%
G04 Gerber Fmt 4.6, Leading zero omitted, Abs format (unit mm)*
G04 Created by KiCad (PCBNEW 7.0.5) date 2023-07-04 22:36:34*
%MOMM*%
%LPD*%
G01*
G04 APERTURE LIST*
%ADD10C,0.150000*%
%ADD11C,0.250000*%
%ADD12C,0.120000*%
G04 APERTURE END LIST*
D10*
X82789160Y-93384104D02*
X83265350Y-93384104D01*
X82693922Y-93669819D02*
X83027255Y-92669819D01*
X83027255Y-92669819D02*
X83360588Y-93669819D01*
X84265350Y-93574580D02*
X84217731Y-93622200D01*
X84217731Y-93622200D02*
X84074874Y-93669819D01*
X84074874Y-93669819D02*
X83979636Y-93669819D01*
X83979636Y-93669819D02*
X83836779Y-93622200D01*
X83836779Y-93622200D02*
X83741541Y-93526961D01*
X83741541Y-93526961D02*
X83693922Y-93431723D01*
X83693922Y-93431723D02*
X83646303Y-93241247D01*
X83646303Y-93241247D02*
X83646303Y-93098390D01*
X83646303Y-93098390D02*
X83693922Y-92907914D01*
X83693922Y-92907914D02*
X83741541Y-92812676D01*
X83741541Y-92812676D02*
X83836779Y-92717438D01*
X83836779Y-92717438D02*
X83979636Y-92669819D01*
X83979636Y-92669819D02*
X84074874Y-92669819D01*
X84074874Y-92669819D02*
X84217731Y-92717438D01*
X84217731Y-92717438D02*
X84265350Y-92765057D01*
X85312970Y-92669819D02*
X85884398Y-92669819D01*
X85598684Y-93669819D02*
X85598684Y-92669819D01*
X86408208Y-92669819D02*
X86598684Y-92669819D01*
X86598684Y-92669819D02*
X86693922Y-92717438D01*
X86693922Y-92717438D02*
X86789160Y-92812676D01*
X86789160Y-92812676D02*
X86836779Y-93003152D01*
X86836779Y-93003152D02*
X86836779Y-93336485D01*
X86836779Y-93336485D02*
X86789160Y-93526961D01*
X86789160Y-93526961D02*
X86693922Y-93622200D01*
X86693922Y-93622200D02*
X86598684Y-93669819D01*
X86598684Y-93669819D02*
X86408208Y-93669819D01*
X86408208Y-93669819D02*
X86312970Y-93622200D01*
X86312970Y-93622200D02*
X86217732Y-93526961D01*
X86217732Y-93526961D02*
X86170113Y-93336485D01*
X86170113Y-93336485D02*
X86170113Y-93003152D01*
X86170113Y-93003152D02*
X86217732Y-92812676D01*
X86217732Y-92812676D02*
X86312970Y-92717438D01*
X86312970Y-92717438D02*
X86408208Y-92669819D01*
X88027256Y-93669819D02*
X88027256Y-92669819D01*
X88027256Y-92669819D02*
X88265351Y-92669819D01*
X88265351Y-92669819D02*
X88408208Y-92717438D01*
X88408208Y-92717438D02*
X88503446Y-92812676D01*
X88503446Y-92812676D02*
X88551065Y-92907914D01*
X88551065Y-92907914D02*
X88598684Y-93098390D01*
X88598684Y-93098390D02*
X88598684Y-93241247D01*
X88598684Y-93241247D02*
X88551065Y-93431723D01*
X88551065Y-93431723D02*
X88503446Y-93526961D01*
X88503446Y-93526961D02*
X88408208Y-93622200D01*
X88408208Y-93622200D02*
X88265351Y-93669819D01*
X88265351Y-93669819D02*
X88027256Y-93669819D01*
X89598684Y-93574580D02*
X89551065Y-93622200D01*
X89551065Y-93622200D02*
X89408208Y-93669819D01*
X89408208Y-93669819D02*
X89312970Y-93669819D01*
X89312970Y-93669819D02*
X89170113Y-93622200D01*
X89170113Y-93622200D02*
X89074875Y-93526961D01*
X89074875Y-93526961D02*
X89027256Y-93431723D01*
X89027256Y-93431723D02*
X88979637Y-93241247D01*
X88979637Y-93241247D02*
X88979637Y-93098390D01*
X88979637Y-93098390D02*
X89027256Y-92907914D01*
X89027256Y-92907914D02*
X89074875Y-92812676D01*
X89074875Y-92812676D02*
X89170113Y-92717438D01*
X89170113Y-92717438D02*
X89312970Y-92669819D01*
X89312970Y-92669819D02*
X89408208Y-92669819D01*
X89408208Y-92669819D02*
X89551065Y-92717438D01*
X89551065Y-92717438D02*
X89598684Y-92765057D01*
X91360589Y-93574580D02*
X91312970Y-93622200D01*
X91312970Y-93622200D02*
X91170113Y-93669819D01*
X91170113Y-93669819D02*
X91074875Y-93669819D01*
X91074875Y-93669819D02*
X90932018Y-93622200D01*
X90932018Y-93622200D02*
X90836780Y-93526961D01*
X90836780Y-93526961D02*
X90789161Y-93431723D01*
X90789161Y-93431723D02*
X90741542Y-93241247D01*
X90741542Y-93241247D02*
X90741542Y-93098390D01*
X90741542Y-93098390D02*
X90789161Y-92907914D01*
X90789161Y-92907914D02*
X90836780Y-92812676D01*
X90836780Y-92812676D02*
X90932018Y-92717438D01*
X90932018Y-92717438D02*
X91074875Y-92669819D01*
X91074875Y-92669819D02*
X91170113Y-92669819D01*
X91170113Y-92669819D02*
X91312970Y-92717438D01*
X91312970Y-92717438D02*
X91360589Y-92765057D01*
X91979637Y-92669819D02*
X92170113Y-92669819D01*
X92170113Y-92669819D02*
X92265351Y-92717438D01*
X92265351Y-92717438D02*
X92360589Y-92812676D01*
X92360589Y-92812676D02*
X92408208Y-93003152D01*
X92408208Y-93003152D02*
X92408208Y-93336485D01*
X92408208Y-93336485D02*
X92360589Y-93526961D01*
X92360589Y-93526961D02*
X92265351Y-93622200D01*
X92265351Y-93622200D02*
X92170113Y-93669819D01*
X92170113Y-93669819D02*
X91979637Y-93669819D01*
X91979637Y-93669819D02*
X91884399Y-93622200D01*
X91884399Y-93622200D02*
X91789161Y-93526961D01*
X91789161Y-93526961D02*
X91741542Y-93336485D01*
X91741542Y-93336485D02*
X91741542Y-93003152D01*
X91741542Y-93003152D02*
X91789161Y-92812676D01*
X91789161Y-92812676D02*
X91884399Y-92717438D01*
X91884399Y-92717438D02*
X91979637Y-92669819D01*
X92836780Y-93669819D02*
X92836780Y-92669819D01*
X92836780Y-92669819D02*
X93408208Y-93669819D01*
X93408208Y-93669819D02*
X93408208Y-92669819D01*
X93741542Y-92669819D02*
X94074875Y-93669819D01*
X94074875Y-93669819D02*
X94408208Y-92669819D01*
X94741542Y-93146009D02*
X95074875Y-93146009D01*
X95217732Y-93669819D02*
X94741542Y-93669819D01*
X94741542Y-93669819D02*
X94741542Y-92669819D01*
X94741542Y-92669819D02*
X95217732Y-92669819D01*
X96217732Y-93669819D02*
X95884399Y-93193628D01*
X95646304Y-93669819D02*
X95646304Y-92669819D01*
X95646304Y-92669819D02*
X96027256Y-92669819D01*
X96027256Y-92669819D02*
X96122494Y-92717438D01*
X96122494Y-92717438D02*
X96170113Y-92765057D01*
X96170113Y-92765057D02*
X96217732Y-92860295D01*
X96217732Y-92860295D02*
X96217732Y-93003152D01*
X96217732Y-93003152D02*
X96170113Y-93098390D01*
X96170113Y-93098390D02*
X96122494Y-93146009D01*
X96122494Y-93146009D02*
X96027256Y-93193628D01*
X96027256Y-93193628D02*
X95646304Y-93193628D01*
X96503447Y-92669819D02*
X97074875Y-92669819D01*
X96789161Y-93669819D02*
X96789161Y-92669819D01*
X97408209Y-93146009D02*
X97741542Y-93146009D01*
X97884399Y-93669819D02*
X97408209Y-93669819D01*
X97408209Y-93669819D02*
X97408209Y-92669819D01*
X97408209Y-92669819D02*
X97884399Y-92669819D01*
X98884399Y-93669819D02*
X98551066Y-93193628D01*
X98312971Y-93669819D02*
X98312971Y-92669819D01*
X98312971Y-92669819D02*
X98693923Y-92669819D01*
X98693923Y-92669819D02*
X98789161Y-92717438D01*
X98789161Y-92717438D02*
X98836780Y-92765057D01*
X98836780Y-92765057D02*
X98884399Y-92860295D01*
X98884399Y-92860295D02*
X98884399Y-93003152D01*
X98884399Y-93003152D02*
X98836780Y-93098390D01*
X98836780Y-93098390D02*
X98789161Y-93146009D01*
X98789161Y-93146009D02*
X98693923Y-93193628D01*
X98693923Y-93193628D02*
X98312971Y-93193628D01*
X100265352Y-92669819D02*
X100360590Y-92669819D01*
X100360590Y-92669819D02*
X100455828Y-92717438D01*
X100455828Y-92717438D02*
X100503447Y-92765057D01*
X100503447Y-92765057D02*
X100551066Y-92860295D01*
X100551066Y-92860295D02*
X100598685Y-93050771D01*
X100598685Y-93050771D02*
X100598685Y-93288866D01*
X100598685Y-93288866D02*
X100551066Y-93479342D01*
X100551066Y-93479342D02*
X100503447Y-93574580D01*
X100503447Y-93574580D02*
X100455828Y-93622200D01*
X100455828Y-93622200D02*
X100360590Y-93669819D01*
X100360590Y-93669819D02*
X100265352Y-93669819D01*
X100265352Y-93669819D02*
X100170114Y-93622200D01*
X100170114Y-93622200D02*
X100122495Y-93574580D01*
X100122495Y-93574580D02*
X100074876Y-93479342D01*
X100074876Y-93479342D02*
X100027257Y-93288866D01*
X100027257Y-93288866D02*
X100027257Y-93050771D01*
X100027257Y-93050771D02*
X100074876Y-92860295D01*
X100074876Y-92860295D02*
X100122495Y-92765057D01*
X100122495Y-92765057D02*
X100170114Y-92717438D01*
X100170114Y-92717438D02*
X100265352Y-92669819D01*
X101027257Y-93288866D02*
X101789162Y-93288866D01*
X102217733Y-92765057D02*
X102265352Y-92717438D01*
X102265352Y-92717438D02*
X102360590Y-92669819D01*
X102360590Y-92669819D02*
X102598685Y-92669819D01*
X102598685Y-92669819D02*
X102693923Y-92717438D01*
X102693923Y-92717438D02*
X102741542Y-92765057D01*
X102741542Y-92765057D02*
X102789161Y-92860295D01*
X102789161Y-92860295D02*
X102789161Y-92955533D01*
X102789161Y-92955533D02*
X102741542Y-93098390D01*
X102741542Y-93098390D02*
X102170114Y-93669819D01*
X102170114Y-93669819D02*
X102789161Y-93669819D01*
X103360590Y-93098390D02*
X103265352Y-93050771D01*
X103265352Y-93050771D02*
X103217733Y-93003152D01*
X103217733Y-93003152D02*
X103170114Y-92907914D01*
X103170114Y-92907914D02*
X103170114Y-92860295D01*
X103170114Y-92860295D02*
X103217733Y-92765057D01*
X103217733Y-92765057D02*
X103265352Y-92717438D01*
X103265352Y-92717438D02*
X103360590Y-92669819D01*
X103360590Y-92669819D02*
X103551066Y-92669819D01*
X103551066Y-92669819D02*
X103646304Y-92717438D01*
X103646304Y-92717438D02*
X103693923Y-92765057D01*
X103693923Y-92765057D02*
X103741542Y-92860295D01*
X103741542Y-92860295D02*
X103741542Y-92907914D01*
X103741542Y-92907914D02*
X103693923Y-93003152D01*
X103693923Y-93003152D02*
X103646304Y-93050771D01*
X103646304Y-93050771D02*
X103551066Y-93098390D01*
X103551066Y-93098390D02*
X103360590Y-93098390D01*
X103360590Y-93098390D02*
X103265352Y-93146009D01*
X103265352Y-93146009D02*
X103217733Y-93193628D01*
X103217733Y-93193628D02*
X103170114Y-93288866D01*
X103170114Y-93288866D02*
X103170114Y-93479342D01*
X103170114Y-93479342D02*
X103217733Y-93574580D01*
X103217733Y-93574580D02*
X103265352Y-93622200D01*
X103265352Y-93622200D02*
X103360590Y-93669819D01*
X103360590Y-93669819D02*
X103551066Y-93669819D01*
X103551066Y-93669819D02*
X103646304Y-93622200D01*
X103646304Y-93622200D02*
X103693923Y-93574580D01*
X103693923Y-93574580D02*
X103741542Y-93479342D01*
X103741542Y-93479342D02*
X103741542Y-93288866D01*
X103741542Y-93288866D02*
X103693923Y-93193628D01*
X103693923Y-93193628D02*
X103646304Y-93146009D01*
X103646304Y-93146009D02*
X103551066Y-93098390D01*
X104027257Y-92669819D02*
X104360590Y-93669819D01*
X104360590Y-93669819D02*
X104693923Y-92669819D01*
D11*
X69164619Y-90040288D02*
X70164619Y-89706955D01*
X70164619Y-89706955D02*
X69164619Y-89373622D01*
X69878904Y-89087907D02*
X69878904Y-88611717D01*
X70164619Y-89183145D02*
X69164619Y-88849812D01*
X69164619Y-88849812D02*
X70164619Y-88516479D01*
X70069380Y-87611717D02*
X70117000Y-87659336D01*
X70117000Y-87659336D02*
X70164619Y-87802193D01*
X70164619Y-87802193D02*
X70164619Y-87897431D01*
X70164619Y-87897431D02*
X70117000Y-88040288D01*
X70117000Y-88040288D02*
X70021761Y-88135526D01*
X70021761Y-88135526D02*
X69926523Y-88183145D01*
X69926523Y-88183145D02*
X69736047Y-88230764D01*
X69736047Y-88230764D02*
X69593190Y-88230764D01*
X69593190Y-88230764D02*
X69402714Y-88183145D01*
X69402714Y-88183145D02*
X69307476Y-88135526D01*
X69307476Y-88135526D02*
X69212238Y-88040288D01*
X69212238Y-88040288D02*
X69164619Y-87897431D01*
X69164619Y-87897431D02*
X69164619Y-87802193D01*
X69164619Y-87802193D02*
X69212238Y-87659336D01*
X69212238Y-87659336D02*
X69259857Y-87611717D01*
D10*
X60636779Y-71469819D02*
X60636779Y-70469819D01*
X60636779Y-70469819D02*
X60874874Y-70469819D01*
X60874874Y-70469819D02*
X61017731Y-70517438D01*
X61017731Y-70517438D02*
X61112969Y-70612676D01*
X61112969Y-70612676D02*
X61160588Y-70707914D01*
X61160588Y-70707914D02*
X61208207Y-70898390D01*
X61208207Y-70898390D02*
X61208207Y-71041247D01*
X61208207Y-71041247D02*
X61160588Y-71231723D01*
X61160588Y-71231723D02*
X61112969Y-71326961D01*
X61112969Y-71326961D02*
X61017731Y-71422200D01*
X61017731Y-71422200D02*
X60874874Y-71469819D01*
X60874874Y-71469819D02*
X60636779Y-71469819D01*
X62208207Y-71374580D02*
X62160588Y-71422200D01*
X62160588Y-71422200D02*
X62017731Y-71469819D01*
X62017731Y-71469819D02*
X61922493Y-71469819D01*
X61922493Y-71469819D02*
X61779636Y-71422200D01*
X61779636Y-71422200D02*
X61684398Y-71326961D01*
X61684398Y-71326961D02*
X61636779Y-71231723D01*
X61636779Y-71231723D02*
X61589160Y-71041247D01*
X61589160Y-71041247D02*
X61589160Y-70898390D01*
X61589160Y-70898390D02*
X61636779Y-70707914D01*
X61636779Y-70707914D02*
X61684398Y-70612676D01*
X61684398Y-70612676D02*
X61779636Y-70517438D01*
X61779636Y-70517438D02*
X61922493Y-70469819D01*
X61922493Y-70469819D02*
X62017731Y-70469819D01*
X62017731Y-70469819D02*
X62160588Y-70517438D01*
X62160588Y-70517438D02*
X62208207Y-70565057D01*
X63589160Y-70469819D02*
X63779636Y-70469819D01*
X63779636Y-70469819D02*
X63874874Y-70517438D01*
X63874874Y-70517438D02*
X63970112Y-70612676D01*
X63970112Y-70612676D02*
X64017731Y-70803152D01*
X64017731Y-70803152D02*
X64017731Y-71136485D01*
X64017731Y-71136485D02*
X63970112Y-71326961D01*
X63970112Y-71326961D02*
X63874874Y-71422200D01*
X63874874Y-71422200D02*
X63779636Y-71469819D01*
X63779636Y-71469819D02*
X63589160Y-71469819D01*
X63589160Y-71469819D02*
X63493922Y-71422200D01*
X63493922Y-71422200D02*
X63398684Y-71326961D01*
X63398684Y-71326961D02*
X63351065Y-71136485D01*
X63351065Y-71136485D02*
X63351065Y-70803152D01*
X63351065Y-70803152D02*
X63398684Y-70612676D01*
X63398684Y-70612676D02*
X63493922Y-70517438D01*
X63493922Y-70517438D02*
X63589160Y-70469819D01*
X64446303Y-70469819D02*
X64446303Y-71279342D01*
X64446303Y-71279342D02*
X64493922Y-71374580D01*
X64493922Y-71374580D02*
X64541541Y-71422200D01*
X64541541Y-71422200D02*
X64636779Y-71469819D01*
X64636779Y-71469819D02*
X64827255Y-71469819D01*
X64827255Y-71469819D02*
X64922493Y-71422200D01*
X64922493Y-71422200D02*
X64970112Y-71374580D01*
X64970112Y-71374580D02*
X65017731Y-71279342D01*
X65017731Y-71279342D02*
X65017731Y-70469819D01*
X65351065Y-70469819D02*
X65922493Y-70469819D01*
X65636779Y-71469819D02*
X65636779Y-70469819D01*
D11*
G36*
X71042857Y-80430357D02*
G01*
X68382143Y-80430357D01*
X68382143Y-79479877D01*
X69291333Y-79479877D01*
X69306737Y-79532338D01*
X69362214Y-79580409D01*
X69434873Y-79590856D01*
X69501646Y-79560362D01*
X69541333Y-79498608D01*
X69541333Y-78682028D01*
X69525929Y-78629567D01*
X69470452Y-78581496D01*
X69397793Y-78571049D01*
X69331020Y-78601543D01*
X69291333Y-78663297D01*
X69291333Y-79479877D01*
X68382143Y-79479877D01*
X68382143Y-77099492D01*
X68906429Y-77099492D01*
X68936923Y-77166265D01*
X68998677Y-77205952D01*
X69291333Y-77205952D01*
X69291333Y-77479877D01*
X69306737Y-77532338D01*
X69362214Y-77580409D01*
X69434873Y-77590856D01*
X69501646Y-77560362D01*
X69541333Y-77498608D01*
X69541333Y-77205952D01*
X69815257Y-77205952D01*
X69867718Y-77190548D01*
X69915789Y-77135071D01*
X69926236Y-77062412D01*
X69895742Y-76995639D01*
X69833988Y-76955952D01*
X69541333Y-76955952D01*
X69541333Y-76682028D01*
X69525929Y-76629567D01*
X69470452Y-76581496D01*
X69397793Y-76571049D01*
X69331020Y-76601543D01*
X69291333Y-76663297D01*
X69291333Y-76955952D01*
X69017408Y-76955952D01*
X68964947Y-76971356D01*
X68916876Y-77026833D01*
X68906429Y-77099492D01*
X68382143Y-77099492D01*
X68382143Y-74969643D01*
X71042857Y-74969643D01*
X71042857Y-80430357D01*
G37*
D10*
%TO.C,L1*%
X108004819Y-74916666D02*
X108004819Y-75392856D01*
X108004819Y-75392856D02*
X107004819Y-75392856D01*
X108004819Y-74059523D02*
X108004819Y-74630951D01*
X108004819Y-74345237D02*
X107004819Y-74345237D01*
X107004819Y-74345237D02*
X107147676Y-74440475D01*
X107147676Y-74440475D02*
X107242914Y-74535713D01*
X107242914Y-74535713D02*
X107290533Y-74630951D01*
%TO.C,D2*%
X81254819Y-83238094D02*
X80254819Y-83238094D01*
X80254819Y-83238094D02*
X80254819Y-82999999D01*
X80254819Y-82999999D02*
X80302438Y-82857142D01*
X80302438Y-82857142D02*
X80397676Y-82761904D01*
X80397676Y-82761904D02*
X80492914Y-82714285D01*
X80492914Y-82714285D02*
X80683390Y-82666666D01*
X80683390Y-82666666D02*
X80826247Y-82666666D01*
X80826247Y-82666666D02*
X81016723Y-82714285D01*
X81016723Y-82714285D02*
X81111961Y-82761904D01*
X81111961Y-82761904D02*
X81207200Y-82857142D01*
X81207200Y-82857142D02*
X81254819Y-82999999D01*
X81254819Y-82999999D02*
X81254819Y-83238094D01*
X80350057Y-82285713D02*
X80302438Y-82238094D01*
X80302438Y-82238094D02*
X80254819Y-82142856D01*
X80254819Y-82142856D02*
X80254819Y-81904761D01*
X80254819Y-81904761D02*
X80302438Y-81809523D01*
X80302438Y-81809523D02*
X80350057Y-81761904D01*
X80350057Y-81761904D02*
X80445295Y-81714285D01*
X80445295Y-81714285D02*
X80540533Y-81714285D01*
X80540533Y-81714285D02*
X80683390Y-81761904D01*
X80683390Y-81761904D02*
X81254819Y-82333332D01*
X81254819Y-82333332D02*
X81254819Y-81714285D01*
%TO.C,C6*%
X99259580Y-67566666D02*
X99307200Y-67614285D01*
X99307200Y-67614285D02*
X99354819Y-67757142D01*
X99354819Y-67757142D02*
X99354819Y-67852380D01*
X99354819Y-67852380D02*
X99307200Y-67995237D01*
X99307200Y-67995237D02*
X99211961Y-68090475D01*
X99211961Y-68090475D02*
X99116723Y-68138094D01*
X99116723Y-68138094D02*
X98926247Y-68185713D01*
X98926247Y-68185713D02*
X98783390Y-68185713D01*
X98783390Y-68185713D02*
X98592914Y-68138094D01*
X98592914Y-68138094D02*
X98497676Y-68090475D01*
X98497676Y-68090475D02*
X98402438Y-67995237D01*
X98402438Y-67995237D02*
X98354819Y-67852380D01*
X98354819Y-67852380D02*
X98354819Y-67757142D01*
X98354819Y-67757142D02*
X98402438Y-67614285D01*
X98402438Y-67614285D02*
X98450057Y-67566666D01*
X98354819Y-66709523D02*
X98354819Y-66899999D01*
X98354819Y-66899999D02*
X98402438Y-66995237D01*
X98402438Y-66995237D02*
X98450057Y-67042856D01*
X98450057Y-67042856D02*
X98592914Y-67138094D01*
X98592914Y-67138094D02*
X98783390Y-67185713D01*
X98783390Y-67185713D02*
X99164342Y-67185713D01*
X99164342Y-67185713D02*
X99259580Y-67138094D01*
X99259580Y-67138094D02*
X99307200Y-67090475D01*
X99307200Y-67090475D02*
X99354819Y-66995237D01*
X99354819Y-66995237D02*
X99354819Y-66804761D01*
X99354819Y-66804761D02*
X99307200Y-66709523D01*
X99307200Y-66709523D02*
X99259580Y-66661904D01*
X99259580Y-66661904D02*
X99164342Y-66614285D01*
X99164342Y-66614285D02*
X98926247Y-66614285D01*
X98926247Y-66614285D02*
X98831009Y-66661904D01*
X98831009Y-66661904D02*
X98783390Y-66709523D01*
X98783390Y-66709523D02*
X98735771Y-66804761D01*
X98735771Y-66804761D02*
X98735771Y-66995237D01*
X98735771Y-66995237D02*
X98783390Y-67090475D01*
X98783390Y-67090475D02*
X98831009Y-67138094D01*
X98831009Y-67138094D02*
X98926247Y-67185713D01*
%TO.C,C4*%
X109159580Y-84066666D02*
X109207200Y-84114285D01*
X109207200Y-84114285D02*
X109254819Y-84257142D01*
X109254819Y-84257142D02*
X109254819Y-84352380D01*
X109254819Y-84352380D02*
X109207200Y-84495237D01*
X109207200Y-84495237D02*
X109111961Y-84590475D01*
X109111961Y-84590475D02*
X109016723Y-84638094D01*
X109016723Y-84638094D02*
X108826247Y-84685713D01*
X108826247Y-84685713D02*
X108683390Y-84685713D01*
X108683390Y-84685713D02*
X108492914Y-84638094D01*
X108492914Y-84638094D02*
X108397676Y-84590475D01*
X108397676Y-84590475D02*
X108302438Y-84495237D01*
X108302438Y-84495237D02*
X108254819Y-84352380D01*
X108254819Y-84352380D02*
X108254819Y-84257142D01*
X108254819Y-84257142D02*
X108302438Y-84114285D01*
X108302438Y-84114285D02*
X108350057Y-84066666D01*
X108588152Y-83209523D02*
X109254819Y-83209523D01*
X108207200Y-83447618D02*
X108921485Y-83685713D01*
X108921485Y-83685713D02*
X108921485Y-83066666D01*
%TO.C,D3*%
X76354819Y-91438094D02*
X75354819Y-91438094D01*
X75354819Y-91438094D02*
X75354819Y-91199999D01*
X75354819Y-91199999D02*
X75402438Y-91057142D01*
X75402438Y-91057142D02*
X75497676Y-90961904D01*
X75497676Y-90961904D02*
X75592914Y-90914285D01*
X75592914Y-90914285D02*
X75783390Y-90866666D01*
X75783390Y-90866666D02*
X75926247Y-90866666D01*
X75926247Y-90866666D02*
X76116723Y-90914285D01*
X76116723Y-90914285D02*
X76211961Y-90961904D01*
X76211961Y-90961904D02*
X76307200Y-91057142D01*
X76307200Y-91057142D02*
X76354819Y-91199999D01*
X76354819Y-91199999D02*
X76354819Y-91438094D01*
X75354819Y-90533332D02*
X75354819Y-89914285D01*
X75354819Y-89914285D02*
X75735771Y-90247618D01*
X75735771Y-90247618D02*
X75735771Y-90104761D01*
X75735771Y-90104761D02*
X75783390Y-90009523D01*
X75783390Y-90009523D02*
X75831009Y-89961904D01*
X75831009Y-89961904D02*
X75926247Y-89914285D01*
X75926247Y-89914285D02*
X76164342Y-89914285D01*
X76164342Y-89914285D02*
X76259580Y-89961904D01*
X76259580Y-89961904D02*
X76307200Y-90009523D01*
X76307200Y-90009523D02*
X76354819Y-90104761D01*
X76354819Y-90104761D02*
X76354819Y-90390475D01*
X76354819Y-90390475D02*
X76307200Y-90485713D01*
X76307200Y-90485713D02*
X76259580Y-90533332D01*
%TO.C,J1*%
X65854819Y-88933333D02*
X66569104Y-88933333D01*
X66569104Y-88933333D02*
X66711961Y-88980952D01*
X66711961Y-88980952D02*
X66807200Y-89076190D01*
X66807200Y-89076190D02*
X66854819Y-89219047D01*
X66854819Y-89219047D02*
X66854819Y-89314285D01*
X66854819Y-87933333D02*
X66854819Y-88504761D01*
X66854819Y-88219047D02*
X65854819Y-88219047D01*
X65854819Y-88219047D02*
X65997676Y-88314285D01*
X65997676Y-88314285D02*
X66092914Y-88409523D01*
X66092914Y-88409523D02*
X66140533Y-88504761D01*
%TO.C,U1*%
X111838095Y-83654819D02*
X111838095Y-84464342D01*
X111838095Y-84464342D02*
X111885714Y-84559580D01*
X111885714Y-84559580D02*
X111933333Y-84607200D01*
X111933333Y-84607200D02*
X112028571Y-84654819D01*
X112028571Y-84654819D02*
X112219047Y-84654819D01*
X112219047Y-84654819D02*
X112314285Y-84607200D01*
X112314285Y-84607200D02*
X112361904Y-84559580D01*
X112361904Y-84559580D02*
X112409523Y-84464342D01*
X112409523Y-84464342D02*
X112409523Y-83654819D01*
X113409523Y-84654819D02*
X112838095Y-84654819D01*
X113123809Y-84654819D02*
X113123809Y-83654819D01*
X113123809Y-83654819D02*
X113028571Y-83797676D01*
X113028571Y-83797676D02*
X112933333Y-83892914D01*
X112933333Y-83892914D02*
X112838095Y-83940533D01*
%TO.C,C9*%
X108059580Y-68766666D02*
X108107200Y-68814285D01*
X108107200Y-68814285D02*
X108154819Y-68957142D01*
X108154819Y-68957142D02*
X108154819Y-69052380D01*
X108154819Y-69052380D02*
X108107200Y-69195237D01*
X108107200Y-69195237D02*
X108011961Y-69290475D01*
X108011961Y-69290475D02*
X107916723Y-69338094D01*
X107916723Y-69338094D02*
X107726247Y-69385713D01*
X107726247Y-69385713D02*
X107583390Y-69385713D01*
X107583390Y-69385713D02*
X107392914Y-69338094D01*
X107392914Y-69338094D02*
X107297676Y-69290475D01*
X107297676Y-69290475D02*
X107202438Y-69195237D01*
X107202438Y-69195237D02*
X107154819Y-69052380D01*
X107154819Y-69052380D02*
X107154819Y-68957142D01*
X107154819Y-68957142D02*
X107202438Y-68814285D01*
X107202438Y-68814285D02*
X107250057Y-68766666D01*
X108154819Y-68290475D02*
X108154819Y-68099999D01*
X108154819Y-68099999D02*
X108107200Y-68004761D01*
X108107200Y-68004761D02*
X108059580Y-67957142D01*
X108059580Y-67957142D02*
X107916723Y-67861904D01*
X107916723Y-67861904D02*
X107726247Y-67814285D01*
X107726247Y-67814285D02*
X107345295Y-67814285D01*
X107345295Y-67814285D02*
X107250057Y-67861904D01*
X107250057Y-67861904D02*
X107202438Y-67909523D01*
X107202438Y-67909523D02*
X107154819Y-68004761D01*
X107154819Y-68004761D02*
X107154819Y-68195237D01*
X107154819Y-68195237D02*
X107202438Y-68290475D01*
X107202438Y-68290475D02*
X107250057Y-68338094D01*
X107250057Y-68338094D02*
X107345295Y-68385713D01*
X107345295Y-68385713D02*
X107583390Y-68385713D01*
X107583390Y-68385713D02*
X107678628Y-68338094D01*
X107678628Y-68338094D02*
X107726247Y-68290475D01*
X107726247Y-68290475D02*
X107773866Y-68195237D01*
X107773866Y-68195237D02*
X107773866Y-68004761D01*
X107773866Y-68004761D02*
X107726247Y-67909523D01*
X107726247Y-67909523D02*
X107678628Y-67861904D01*
X107678628Y-67861904D02*
X107583390Y-67814285D01*
%TO.C,M3*%
X113390476Y-67554819D02*
X113390476Y-66554819D01*
X113390476Y-66554819D02*
X113723809Y-67269104D01*
X113723809Y-67269104D02*
X114057142Y-66554819D01*
X114057142Y-66554819D02*
X114057142Y-67554819D01*
X114438095Y-66554819D02*
X115057142Y-66554819D01*
X115057142Y-66554819D02*
X114723809Y-66935771D01*
X114723809Y-66935771D02*
X114866666Y-66935771D01*
X114866666Y-66935771D02*
X114961904Y-66983390D01*
X114961904Y-66983390D02*
X115009523Y-67031009D01*
X115009523Y-67031009D02*
X115057142Y-67126247D01*
X115057142Y-67126247D02*
X115057142Y-67364342D01*
X115057142Y-67364342D02*
X115009523Y-67459580D01*
X115009523Y-67459580D02*
X114961904Y-67507200D01*
X114961904Y-67507200D02*
X114866666Y-67554819D01*
X114866666Y-67554819D02*
X114580952Y-67554819D01*
X114580952Y-67554819D02*
X114485714Y-67507200D01*
X114485714Y-67507200D02*
X114438095Y-67459580D01*
%TO.C,RV1*%
X107704761Y-88254819D02*
X107371428Y-87778628D01*
X107133333Y-88254819D02*
X107133333Y-87254819D01*
X107133333Y-87254819D02*
X107514285Y-87254819D01*
X107514285Y-87254819D02*
X107609523Y-87302438D01*
X107609523Y-87302438D02*
X107657142Y-87350057D01*
X107657142Y-87350057D02*
X107704761Y-87445295D01*
X107704761Y-87445295D02*
X107704761Y-87588152D01*
X107704761Y-87588152D02*
X107657142Y-87683390D01*
X107657142Y-87683390D02*
X107609523Y-87731009D01*
X107609523Y-87731009D02*
X107514285Y-87778628D01*
X107514285Y-87778628D02*
X107133333Y-87778628D01*
X107990476Y-87254819D02*
X108323809Y-88254819D01*
X108323809Y-88254819D02*
X108657142Y-87254819D01*
X109514285Y-88254819D02*
X108942857Y-88254819D01*
X109228571Y-88254819D02*
X109228571Y-87254819D01*
X109228571Y-87254819D02*
X109133333Y-87397676D01*
X109133333Y-87397676D02*
X109038095Y-87492914D01*
X109038095Y-87492914D02*
X108942857Y-87540533D01*
%TO.C,C7*%
X88259580Y-67566666D02*
X88307200Y-67614285D01*
X88307200Y-67614285D02*
X88354819Y-67757142D01*
X88354819Y-67757142D02*
X88354819Y-67852380D01*
X88354819Y-67852380D02*
X88307200Y-67995237D01*
X88307200Y-67995237D02*
X88211961Y-68090475D01*
X88211961Y-68090475D02*
X88116723Y-68138094D01*
X88116723Y-68138094D02*
X87926247Y-68185713D01*
X87926247Y-68185713D02*
X87783390Y-68185713D01*
X87783390Y-68185713D02*
X87592914Y-68138094D01*
X87592914Y-68138094D02*
X87497676Y-68090475D01*
X87497676Y-68090475D02*
X87402438Y-67995237D01*
X87402438Y-67995237D02*
X87354819Y-67852380D01*
X87354819Y-67852380D02*
X87354819Y-67757142D01*
X87354819Y-67757142D02*
X87402438Y-67614285D01*
X87402438Y-67614285D02*
X87450057Y-67566666D01*
X87354819Y-67233332D02*
X87354819Y-66566666D01*
X87354819Y-66566666D02*
X88354819Y-66995237D01*
%TO.C,C11*%
X110957142Y-86259580D02*
X110909523Y-86307200D01*
X110909523Y-86307200D02*
X110766666Y-86354819D01*
X110766666Y-86354819D02*
X110671428Y-86354819D01*
X110671428Y-86354819D02*
X110528571Y-86307200D01*
X110528571Y-86307200D02*
X110433333Y-86211961D01*
X110433333Y-86211961D02*
X110385714Y-86116723D01*
X110385714Y-86116723D02*
X110338095Y-85926247D01*
X110338095Y-85926247D02*
X110338095Y-85783390D01*
X110338095Y-85783390D02*
X110385714Y-85592914D01*
X110385714Y-85592914D02*
X110433333Y-85497676D01*
X110433333Y-85497676D02*
X110528571Y-85402438D01*
X110528571Y-85402438D02*
X110671428Y-85354819D01*
X110671428Y-85354819D02*
X110766666Y-85354819D01*
X110766666Y-85354819D02*
X110909523Y-85402438D01*
X110909523Y-85402438D02*
X110957142Y-85450057D01*
X111909523Y-86354819D02*
X111338095Y-86354819D01*
X111623809Y-86354819D02*
X111623809Y-85354819D01*
X111623809Y-85354819D02*
X111528571Y-85497676D01*
X111528571Y-85497676D02*
X111433333Y-85592914D01*
X111433333Y-85592914D02*
X111338095Y-85640533D01*
X112861904Y-86354819D02*
X112290476Y-86354819D01*
X112576190Y-86354819D02*
X112576190Y-85354819D01*
X112576190Y-85354819D02*
X112480952Y-85497676D01*
X112480952Y-85497676D02*
X112385714Y-85592914D01*
X112385714Y-85592914D02*
X112290476Y-85640533D01*
%TO.C,C10*%
X76859580Y-68042857D02*
X76907200Y-68090476D01*
X76907200Y-68090476D02*
X76954819Y-68233333D01*
X76954819Y-68233333D02*
X76954819Y-68328571D01*
X76954819Y-68328571D02*
X76907200Y-68471428D01*
X76907200Y-68471428D02*
X76811961Y-68566666D01*
X76811961Y-68566666D02*
X76716723Y-68614285D01*
X76716723Y-68614285D02*
X76526247Y-68661904D01*
X76526247Y-68661904D02*
X76383390Y-68661904D01*
X76383390Y-68661904D02*
X76192914Y-68614285D01*
X76192914Y-68614285D02*
X76097676Y-68566666D01*
X76097676Y-68566666D02*
X76002438Y-68471428D01*
X76002438Y-68471428D02*
X75954819Y-68328571D01*
X75954819Y-68328571D02*
X75954819Y-68233333D01*
X75954819Y-68233333D02*
X76002438Y-68090476D01*
X76002438Y-68090476D02*
X76050057Y-68042857D01*
X76954819Y-67090476D02*
X76954819Y-67661904D01*
X76954819Y-67376190D02*
X75954819Y-67376190D01*
X75954819Y-67376190D02*
X76097676Y-67471428D01*
X76097676Y-67471428D02*
X76192914Y-67566666D01*
X76192914Y-67566666D02*
X76240533Y-67661904D01*
X75954819Y-66471428D02*
X75954819Y-66376190D01*
X75954819Y-66376190D02*
X76002438Y-66280952D01*
X76002438Y-66280952D02*
X76050057Y-66233333D01*
X76050057Y-66233333D02*
X76145295Y-66185714D01*
X76145295Y-66185714D02*
X76335771Y-66138095D01*
X76335771Y-66138095D02*
X76573866Y-66138095D01*
X76573866Y-66138095D02*
X76764342Y-66185714D01*
X76764342Y-66185714D02*
X76859580Y-66233333D01*
X76859580Y-66233333D02*
X76907200Y-66280952D01*
X76907200Y-66280952D02*
X76954819Y-66376190D01*
X76954819Y-66376190D02*
X76954819Y-66471428D01*
X76954819Y-66471428D02*
X76907200Y-66566666D01*
X76907200Y-66566666D02*
X76859580Y-66614285D01*
X76859580Y-66614285D02*
X76764342Y-66661904D01*
X76764342Y-66661904D02*
X76573866Y-66709523D01*
X76573866Y-66709523D02*
X76335771Y-66709523D01*
X76335771Y-66709523D02*
X76145295Y-66661904D01*
X76145295Y-66661904D02*
X76050057Y-66614285D01*
X76050057Y-66614285D02*
X76002438Y-66566666D01*
X76002438Y-66566666D02*
X75954819Y-66471428D01*
%TO.C,C8*%
X106259580Y-68866666D02*
X106307200Y-68914285D01*
X106307200Y-68914285D02*
X106354819Y-69057142D01*
X106354819Y-69057142D02*
X106354819Y-69152380D01*
X106354819Y-69152380D02*
X106307200Y-69295237D01*
X106307200Y-69295237D02*
X106211961Y-69390475D01*
X106211961Y-69390475D02*
X106116723Y-69438094D01*
X106116723Y-69438094D02*
X105926247Y-69485713D01*
X105926247Y-69485713D02*
X105783390Y-69485713D01*
X105783390Y-69485713D02*
X105592914Y-69438094D01*
X105592914Y-69438094D02*
X105497676Y-69390475D01*
X105497676Y-69390475D02*
X105402438Y-69295237D01*
X105402438Y-69295237D02*
X105354819Y-69152380D01*
X105354819Y-69152380D02*
X105354819Y-69057142D01*
X105354819Y-69057142D02*
X105402438Y-68914285D01*
X105402438Y-68914285D02*
X105450057Y-68866666D01*
X105783390Y-68295237D02*
X105735771Y-68390475D01*
X105735771Y-68390475D02*
X105688152Y-68438094D01*
X105688152Y-68438094D02*
X105592914Y-68485713D01*
X105592914Y-68485713D02*
X105545295Y-68485713D01*
X105545295Y-68485713D02*
X105450057Y-68438094D01*
X105450057Y-68438094D02*
X105402438Y-68390475D01*
X105402438Y-68390475D02*
X105354819Y-68295237D01*
X105354819Y-68295237D02*
X105354819Y-68104761D01*
X105354819Y-68104761D02*
X105402438Y-68009523D01*
X105402438Y-68009523D02*
X105450057Y-67961904D01*
X105450057Y-67961904D02*
X105545295Y-67914285D01*
X105545295Y-67914285D02*
X105592914Y-67914285D01*
X105592914Y-67914285D02*
X105688152Y-67961904D01*
X105688152Y-67961904D02*
X105735771Y-68009523D01*
X105735771Y-68009523D02*
X105783390Y-68104761D01*
X105783390Y-68104761D02*
X105783390Y-68295237D01*
X105783390Y-68295237D02*
X105831009Y-68390475D01*
X105831009Y-68390475D02*
X105878628Y-68438094D01*
X105878628Y-68438094D02*
X105973866Y-68485713D01*
X105973866Y-68485713D02*
X106164342Y-68485713D01*
X106164342Y-68485713D02*
X106259580Y-68438094D01*
X106259580Y-68438094D02*
X106307200Y-68390475D01*
X106307200Y-68390475D02*
X106354819Y-68295237D01*
X106354819Y-68295237D02*
X106354819Y-68104761D01*
X106354819Y-68104761D02*
X106307200Y-68009523D01*
X106307200Y-68009523D02*
X106259580Y-67961904D01*
X106259580Y-67961904D02*
X106164342Y-67914285D01*
X106164342Y-67914285D02*
X105973866Y-67914285D01*
X105973866Y-67914285D02*
X105878628Y-67961904D01*
X105878628Y-67961904D02*
X105831009Y-68009523D01*
X105831009Y-68009523D02*
X105783390Y-68104761D01*
%TO.C,R1*%
X80924819Y-78066666D02*
X80448628Y-78399999D01*
X80924819Y-78638094D02*
X79924819Y-78638094D01*
X79924819Y-78638094D02*
X79924819Y-78257142D01*
X79924819Y-78257142D02*
X79972438Y-78161904D01*
X79972438Y-78161904D02*
X80020057Y-78114285D01*
X80020057Y-78114285D02*
X80115295Y-78066666D01*
X80115295Y-78066666D02*
X80258152Y-78066666D01*
X80258152Y-78066666D02*
X80353390Y-78114285D01*
X80353390Y-78114285D02*
X80401009Y-78161904D01*
X80401009Y-78161904D02*
X80448628Y-78257142D01*
X80448628Y-78257142D02*
X80448628Y-78638094D01*
X80924819Y-77114285D02*
X80924819Y-77685713D01*
X80924819Y-77399999D02*
X79924819Y-77399999D01*
X79924819Y-77399999D02*
X80067676Y-77495237D01*
X80067676Y-77495237D02*
X80162914Y-77590475D01*
X80162914Y-77590475D02*
X80210533Y-77685713D01*
%TO.C,R2*%
X70354819Y-70166666D02*
X69878628Y-70499999D01*
X70354819Y-70738094D02*
X69354819Y-70738094D01*
X69354819Y-70738094D02*
X69354819Y-70357142D01*
X69354819Y-70357142D02*
X69402438Y-70261904D01*
X69402438Y-70261904D02*
X69450057Y-70214285D01*
X69450057Y-70214285D02*
X69545295Y-70166666D01*
X69545295Y-70166666D02*
X69688152Y-70166666D01*
X69688152Y-70166666D02*
X69783390Y-70214285D01*
X69783390Y-70214285D02*
X69831009Y-70261904D01*
X69831009Y-70261904D02*
X69878628Y-70357142D01*
X69878628Y-70357142D02*
X69878628Y-70738094D01*
X69450057Y-69785713D02*
X69402438Y-69738094D01*
X69402438Y-69738094D02*
X69354819Y-69642856D01*
X69354819Y-69642856D02*
X69354819Y-69404761D01*
X69354819Y-69404761D02*
X69402438Y-69309523D01*
X69402438Y-69309523D02*
X69450057Y-69261904D01*
X69450057Y-69261904D02*
X69545295Y-69214285D01*
X69545295Y-69214285D02*
X69640533Y-69214285D01*
X69640533Y-69214285D02*
X69783390Y-69261904D01*
X69783390Y-69261904D02*
X70354819Y-69833332D01*
X70354819Y-69833332D02*
X70354819Y-69214285D01*
%TO.C,C1*%
X91259580Y-84566666D02*
X91307200Y-84614285D01*
X91307200Y-84614285D02*
X91354819Y-84757142D01*
X91354819Y-84757142D02*
X91354819Y-84852380D01*
X91354819Y-84852380D02*
X91307200Y-84995237D01*
X91307200Y-84995237D02*
X91211961Y-85090475D01*
X91211961Y-85090475D02*
X91116723Y-85138094D01*
X91116723Y-85138094D02*
X90926247Y-85185713D01*
X90926247Y-85185713D02*
X90783390Y-85185713D01*
X90783390Y-85185713D02*
X90592914Y-85138094D01*
X90592914Y-85138094D02*
X90497676Y-85090475D01*
X90497676Y-85090475D02*
X90402438Y-84995237D01*
X90402438Y-84995237D02*
X90354819Y-84852380D01*
X90354819Y-84852380D02*
X90354819Y-84757142D01*
X90354819Y-84757142D02*
X90402438Y-84614285D01*
X90402438Y-84614285D02*
X90450057Y-84566666D01*
X91354819Y-83614285D02*
X91354819Y-84185713D01*
X91354819Y-83899999D02*
X90354819Y-83899999D01*
X90354819Y-83899999D02*
X90497676Y-83995237D01*
X90497676Y-83995237D02*
X90592914Y-84090475D01*
X90592914Y-84090475D02*
X90640533Y-84185713D01*
%TO.C,C5*%
X114533333Y-84559580D02*
X114485714Y-84607200D01*
X114485714Y-84607200D02*
X114342857Y-84654819D01*
X114342857Y-84654819D02*
X114247619Y-84654819D01*
X114247619Y-84654819D02*
X114104762Y-84607200D01*
X114104762Y-84607200D02*
X114009524Y-84511961D01*
X114009524Y-84511961D02*
X113961905Y-84416723D01*
X113961905Y-84416723D02*
X113914286Y-84226247D01*
X113914286Y-84226247D02*
X113914286Y-84083390D01*
X113914286Y-84083390D02*
X113961905Y-83892914D01*
X113961905Y-83892914D02*
X114009524Y-83797676D01*
X114009524Y-83797676D02*
X114104762Y-83702438D01*
X114104762Y-83702438D02*
X114247619Y-83654819D01*
X114247619Y-83654819D02*
X114342857Y-83654819D01*
X114342857Y-83654819D02*
X114485714Y-83702438D01*
X114485714Y-83702438D02*
X114533333Y-83750057D01*
X115438095Y-83654819D02*
X114961905Y-83654819D01*
X114961905Y-83654819D02*
X114914286Y-84131009D01*
X114914286Y-84131009D02*
X114961905Y-84083390D01*
X114961905Y-84083390D02*
X115057143Y-84035771D01*
X115057143Y-84035771D02*
X115295238Y-84035771D01*
X115295238Y-84035771D02*
X115390476Y-84083390D01*
X115390476Y-84083390D02*
X115438095Y-84131009D01*
X115438095Y-84131009D02*
X115485714Y-84226247D01*
X115485714Y-84226247D02*
X115485714Y-84464342D01*
X115485714Y-84464342D02*
X115438095Y-84559580D01*
X115438095Y-84559580D02*
X115390476Y-84607200D01*
X115390476Y-84607200D02*
X115295238Y-84654819D01*
X115295238Y-84654819D02*
X115057143Y-84654819D01*
X115057143Y-84654819D02*
X114961905Y-84607200D01*
X114961905Y-84607200D02*
X114914286Y-84559580D01*
%TO.C,D1*%
X76154819Y-83238094D02*
X75154819Y-83238094D01*
X75154819Y-83238094D02*
X75154819Y-82999999D01*
X75154819Y-82999999D02*
X75202438Y-82857142D01*
X75202438Y-82857142D02*
X75297676Y-82761904D01*
X75297676Y-82761904D02*
X75392914Y-82714285D01*
X75392914Y-82714285D02*
X75583390Y-82666666D01*
X75583390Y-82666666D02*
X75726247Y-82666666D01*
X75726247Y-82666666D02*
X75916723Y-82714285D01*
X75916723Y-82714285D02*
X76011961Y-82761904D01*
X76011961Y-82761904D02*
X76107200Y-82857142D01*
X76107200Y-82857142D02*
X76154819Y-82999999D01*
X76154819Y-82999999D02*
X76154819Y-83238094D01*
X76154819Y-81714285D02*
X76154819Y-82285713D01*
X76154819Y-81999999D02*
X75154819Y-81999999D01*
X75154819Y-81999999D02*
X75297676Y-82095237D01*
X75297676Y-82095237D02*
X75392914Y-82190475D01*
X75392914Y-82190475D02*
X75440533Y-82285713D01*
%TO.C,C2*%
X99859580Y-84866666D02*
X99907200Y-84914285D01*
X99907200Y-84914285D02*
X99954819Y-85057142D01*
X99954819Y-85057142D02*
X99954819Y-85152380D01*
X99954819Y-85152380D02*
X99907200Y-85295237D01*
X99907200Y-85295237D02*
X99811961Y-85390475D01*
X99811961Y-85390475D02*
X99716723Y-85438094D01*
X99716723Y-85438094D02*
X99526247Y-85485713D01*
X99526247Y-85485713D02*
X99383390Y-85485713D01*
X99383390Y-85485713D02*
X99192914Y-85438094D01*
X99192914Y-85438094D02*
X99097676Y-85390475D01*
X99097676Y-85390475D02*
X99002438Y-85295237D01*
X99002438Y-85295237D02*
X98954819Y-85152380D01*
X98954819Y-85152380D02*
X98954819Y-85057142D01*
X98954819Y-85057142D02*
X99002438Y-84914285D01*
X99002438Y-84914285D02*
X99050057Y-84866666D01*
X99050057Y-84485713D02*
X99002438Y-84438094D01*
X99002438Y-84438094D02*
X98954819Y-84342856D01*
X98954819Y-84342856D02*
X98954819Y-84104761D01*
X98954819Y-84104761D02*
X99002438Y-84009523D01*
X99002438Y-84009523D02*
X99050057Y-83961904D01*
X99050057Y-83961904D02*
X99145295Y-83914285D01*
X99145295Y-83914285D02*
X99240533Y-83914285D01*
X99240533Y-83914285D02*
X99383390Y-83961904D01*
X99383390Y-83961904D02*
X99954819Y-84533332D01*
X99954819Y-84533332D02*
X99954819Y-83914285D01*
%TO.C,C3*%
X107559580Y-84166666D02*
X107607200Y-84214285D01*
X107607200Y-84214285D02*
X107654819Y-84357142D01*
X107654819Y-84357142D02*
X107654819Y-84452380D01*
X107654819Y-84452380D02*
X107607200Y-84595237D01*
X107607200Y-84595237D02*
X107511961Y-84690475D01*
X107511961Y-84690475D02*
X107416723Y-84738094D01*
X107416723Y-84738094D02*
X107226247Y-84785713D01*
X107226247Y-84785713D02*
X107083390Y-84785713D01*
X107083390Y-84785713D02*
X106892914Y-84738094D01*
X106892914Y-84738094D02*
X106797676Y-84690475D01*
X106797676Y-84690475D02*
X106702438Y-84595237D01*
X106702438Y-84595237D02*
X106654819Y-84452380D01*
X106654819Y-84452380D02*
X106654819Y-84357142D01*
X106654819Y-84357142D02*
X106702438Y-84214285D01*
X106702438Y-84214285D02*
X106750057Y-84166666D01*
X106654819Y-83833332D02*
X106654819Y-83214285D01*
X106654819Y-83214285D02*
X107035771Y-83547618D01*
X107035771Y-83547618D02*
X107035771Y-83404761D01*
X107035771Y-83404761D02*
X107083390Y-83309523D01*
X107083390Y-83309523D02*
X107131009Y-83261904D01*
X107131009Y-83261904D02*
X107226247Y-83214285D01*
X107226247Y-83214285D02*
X107464342Y-83214285D01*
X107464342Y-83214285D02*
X107559580Y-83261904D01*
X107559580Y-83261904D02*
X107607200Y-83309523D01*
X107607200Y-83309523D02*
X107654819Y-83404761D01*
X107654819Y-83404761D02*
X107654819Y-83690475D01*
X107654819Y-83690475D02*
X107607200Y-83785713D01*
X107607200Y-83785713D02*
X107559580Y-83833332D01*
%TO.C,FB1*%
X81366666Y-75161009D02*
X81033333Y-75161009D01*
X81033333Y-75684819D02*
X81033333Y-74684819D01*
X81033333Y-74684819D02*
X81509523Y-74684819D01*
X82223809Y-75161009D02*
X82366666Y-75208628D01*
X82366666Y-75208628D02*
X82414285Y-75256247D01*
X82414285Y-75256247D02*
X82461904Y-75351485D01*
X82461904Y-75351485D02*
X82461904Y-75494342D01*
X82461904Y-75494342D02*
X82414285Y-75589580D01*
X82414285Y-75589580D02*
X82366666Y-75637200D01*
X82366666Y-75637200D02*
X82271428Y-75684819D01*
X82271428Y-75684819D02*
X81890476Y-75684819D01*
X81890476Y-75684819D02*
X81890476Y-74684819D01*
X81890476Y-74684819D02*
X82223809Y-74684819D01*
X82223809Y-74684819D02*
X82319047Y-74732438D01*
X82319047Y-74732438D02*
X82366666Y-74780057D01*
X82366666Y-74780057D02*
X82414285Y-74875295D01*
X82414285Y-74875295D02*
X82414285Y-74970533D01*
X82414285Y-74970533D02*
X82366666Y-75065771D01*
X82366666Y-75065771D02*
X82319047Y-75113390D01*
X82319047Y-75113390D02*
X82223809Y-75161009D01*
X82223809Y-75161009D02*
X81890476Y-75161009D01*
X83414285Y-75684819D02*
X82842857Y-75684819D01*
X83128571Y-75684819D02*
X83128571Y-74684819D01*
X83128571Y-74684819D02*
X83033333Y-74827676D01*
X83033333Y-74827676D02*
X82938095Y-74922914D01*
X82938095Y-74922914D02*
X82842857Y-74970533D01*
%TO.C,M3*%
X59590476Y-67754819D02*
X59590476Y-66754819D01*
X59590476Y-66754819D02*
X59923809Y-67469104D01*
X59923809Y-67469104D02*
X60257142Y-66754819D01*
X60257142Y-66754819D02*
X60257142Y-67754819D01*
X60638095Y-66754819D02*
X61257142Y-66754819D01*
X61257142Y-66754819D02*
X60923809Y-67135771D01*
X60923809Y-67135771D02*
X61066666Y-67135771D01*
X61066666Y-67135771D02*
X61161904Y-67183390D01*
X61161904Y-67183390D02*
X61209523Y-67231009D01*
X61209523Y-67231009D02*
X61257142Y-67326247D01*
X61257142Y-67326247D02*
X61257142Y-67564342D01*
X61257142Y-67564342D02*
X61209523Y-67659580D01*
X61209523Y-67659580D02*
X61161904Y-67707200D01*
X61161904Y-67707200D02*
X61066666Y-67754819D01*
X61066666Y-67754819D02*
X60780952Y-67754819D01*
X60780952Y-67754819D02*
X60685714Y-67707200D01*
X60685714Y-67707200D02*
X60638095Y-67659580D01*
%TO.C,D4*%
X82054819Y-91338094D02*
X81054819Y-91338094D01*
X81054819Y-91338094D02*
X81054819Y-91099999D01*
X81054819Y-91099999D02*
X81102438Y-90957142D01*
X81102438Y-90957142D02*
X81197676Y-90861904D01*
X81197676Y-90861904D02*
X81292914Y-90814285D01*
X81292914Y-90814285D02*
X81483390Y-90766666D01*
X81483390Y-90766666D02*
X81626247Y-90766666D01*
X81626247Y-90766666D02*
X81816723Y-90814285D01*
X81816723Y-90814285D02*
X81911961Y-90861904D01*
X81911961Y-90861904D02*
X82007200Y-90957142D01*
X82007200Y-90957142D02*
X82054819Y-91099999D01*
X82054819Y-91099999D02*
X82054819Y-91338094D01*
X81388152Y-89909523D02*
X82054819Y-89909523D01*
X81007200Y-90147618D02*
X81721485Y-90385713D01*
X81721485Y-90385713D02*
X81721485Y-89766666D01*
%TO.C,J2*%
X65754819Y-77833333D02*
X66469104Y-77833333D01*
X66469104Y-77833333D02*
X66611961Y-77880952D01*
X66611961Y-77880952D02*
X66707200Y-77976190D01*
X66707200Y-77976190D02*
X66754819Y-78119047D01*
X66754819Y-78119047D02*
X66754819Y-78214285D01*
X65850057Y-77404761D02*
X65802438Y-77357142D01*
X65802438Y-77357142D02*
X65754819Y-77261904D01*
X65754819Y-77261904D02*
X65754819Y-77023809D01*
X65754819Y-77023809D02*
X65802438Y-76928571D01*
X65802438Y-76928571D02*
X65850057Y-76880952D01*
X65850057Y-76880952D02*
X65945295Y-76833333D01*
X65945295Y-76833333D02*
X66040533Y-76833333D01*
X66040533Y-76833333D02*
X66183390Y-76880952D01*
X66183390Y-76880952D02*
X66754819Y-77452380D01*
X66754819Y-77452380D02*
X66754819Y-76833333D01*
D12*
%TO.C,L1*%
X108800000Y-78050000D02*
X108800000Y-71450000D01*
X110500000Y-78050000D02*
X108800000Y-78050000D01*
X115200000Y-78050000D02*
X113500000Y-78050000D01*
X108800000Y-71450000D02*
X110500000Y-71450000D01*
X113500000Y-71450000D02*
X115200000Y-71450000D01*
X115200000Y-71450000D02*
X115200000Y-78050000D01*
%TO.C,D2*%
X79950000Y-78990000D02*
X76650000Y-78990000D01*
X79950000Y-78990000D02*
X79950000Y-84500000D01*
X76650000Y-78990000D02*
X76650000Y-84500000D01*
%TO.C,C6*%
X96240000Y-74250000D02*
X96240000Y-73000000D01*
X95615000Y-73625000D02*
X96865000Y-73625000D01*
X94704437Y-72760000D02*
X97490000Y-72760000D01*
X94704437Y-72760000D02*
X93640000Y-71695563D01*
X103295563Y-72760000D02*
X100510000Y-72760000D01*
X103295563Y-72760000D02*
X104360000Y-71695563D01*
X93640000Y-71695563D02*
X93640000Y-62040000D01*
X104360000Y-71695563D02*
X104360000Y-62040000D01*
X93640000Y-62040000D02*
X97490000Y-62040000D01*
X104360000Y-62040000D02*
X100510000Y-62040000D01*
%TO.C,C4*%
X109310000Y-80959420D02*
X109310000Y-81240580D01*
X108290000Y-80959420D02*
X108290000Y-81240580D01*
%TO.C,D3*%
X74850000Y-87290000D02*
X71550000Y-87290000D01*
X74850000Y-87290000D02*
X74850000Y-92800000D01*
X71550000Y-87290000D02*
X71550000Y-92800000D01*
%TO.C,J1*%
X58435000Y-83415000D02*
X57695000Y-83415000D01*
X57695000Y-83415000D02*
X57695000Y-83915000D01*
X67856000Y-83655000D02*
X57935000Y-83655000D01*
X67856000Y-83655000D02*
X67856000Y-93935000D01*
X64896000Y-83655000D02*
X64896000Y-93935000D01*
X59995000Y-83655000D02*
X59995000Y-93935000D01*
X58495000Y-83655000D02*
X58495000Y-93935000D01*
X57935000Y-83655000D02*
X57935000Y-93935000D01*
X61572000Y-90108000D02*
X61526000Y-90061000D01*
X61356000Y-90301000D02*
X61321000Y-90266000D01*
X63870000Y-92405000D02*
X63834000Y-92370000D01*
X63664000Y-92610000D02*
X63618000Y-92563000D01*
X67856000Y-93935000D02*
X57935000Y-93935000D01*
X63278999Y-84720001D02*
G75*
G03*
X61911958Y-84719574I-684000J-1534992D01*
G01*
X64129999Y-86938999D02*
G75*
G03*
X64130426Y-85571958I-1534992J684000D01*
G01*
X61060001Y-85571000D02*
G75*
G03*
X60914748Y-86283805I1535000J-683999D01*
G01*
X60915001Y-86255000D02*
G75*
G03*
X61060245Y-86938318I1679999J0D01*
G01*
X61911000Y-87790000D02*
G75*
G03*
X63278042Y-87790426I684000J1535000D01*
G01*
X64275000Y-91335000D02*
G75*
G03*
X64275000Y-91335000I-1680000J0D01*
G01*
%TO.C,U1*%
X113460000Y-81500000D02*
X113460000Y-79700000D01*
X113460000Y-81500000D02*
X113460000Y-82300000D01*
X110340000Y-81500000D02*
X110340000Y-80700000D01*
X110340000Y-81500000D02*
X110340000Y-82300000D01*
%TO.C,C9*%
X107090000Y-71340580D02*
X107090000Y-71059420D01*
X108110000Y-71340580D02*
X108110000Y-71059420D01*
%TO.C,RV1*%
X105475000Y-88870000D02*
X105475000Y-93940000D01*
X105475000Y-88870000D02*
X115245000Y-88870000D01*
X105475000Y-93940000D02*
X115245000Y-93940000D01*
X115245000Y-88870000D02*
X115245000Y-93940000D01*
%TO.C,C7*%
X85040000Y-74250000D02*
X85040000Y-73000000D01*
X84415000Y-73625000D02*
X85665000Y-73625000D01*
X83504437Y-72760000D02*
X86290000Y-72760000D01*
X83504437Y-72760000D02*
X82440000Y-71695563D01*
X92095563Y-72760000D02*
X89310000Y-72760000D01*
X92095563Y-72760000D02*
X93160000Y-71695563D01*
X82440000Y-71695563D02*
X82440000Y-62040000D01*
X93160000Y-71695563D02*
X93160000Y-62040000D01*
X82440000Y-62040000D02*
X86290000Y-62040000D01*
X93160000Y-62040000D02*
X89310000Y-62040000D01*
%TO.C,C11*%
X111865580Y-88010000D02*
X111584420Y-88010000D01*
X111865580Y-86990000D02*
X111584420Y-86990000D01*
%TO.C,C10*%
X73840000Y-74250000D02*
X73840000Y-73000000D01*
X73215000Y-73625000D02*
X74465000Y-73625000D01*
X72304437Y-72760000D02*
X75090000Y-72760000D01*
X72304437Y-72760000D02*
X71240000Y-71695563D01*
X80895563Y-72760000D02*
X78110000Y-72760000D01*
X80895563Y-72760000D02*
X81960000Y-71695563D01*
X71240000Y-71695563D02*
X71240000Y-62040000D01*
X81960000Y-71695563D02*
X81960000Y-62040000D01*
X71240000Y-62040000D02*
X75090000Y-62040000D01*
X81960000Y-62040000D02*
X78110000Y-62040000D01*
%TO.C,C8*%
X105490000Y-71340580D02*
X105490000Y-71059420D01*
X106510000Y-71340580D02*
X106510000Y-71059420D01*
%TO.C,R1*%
X81377500Y-78137258D02*
X81377500Y-77662742D01*
X82422500Y-78137258D02*
X82422500Y-77662742D01*
%TO.C,R2*%
X69377500Y-73037258D02*
X69377500Y-72562742D01*
X70422500Y-73037258D02*
X70422500Y-72562742D01*
%TO.C,C1*%
X91060000Y-77850000D02*
X91060000Y-79100000D01*
X91685000Y-78475000D02*
X90435000Y-78475000D01*
X92595563Y-79340000D02*
X89810000Y-79340000D01*
X92595563Y-79340000D02*
X93660000Y-80404437D01*
X84004437Y-79340000D02*
X86790000Y-79340000D01*
X84004437Y-79340000D02*
X82940000Y-80404437D01*
X93660000Y-80404437D02*
X93660000Y-90060000D01*
X82940000Y-80404437D02*
X82940000Y-90060000D01*
X93660000Y-90060000D02*
X89810000Y-90060000D01*
X82940000Y-90060000D02*
X86790000Y-90060000D01*
%TO.C,C5*%
X115359420Y-82090000D02*
X115640580Y-82090000D01*
X115359420Y-83110000D02*
X115640580Y-83110000D01*
%TO.C,D1*%
X71450000Y-86010000D02*
X74750000Y-86010000D01*
X71450000Y-86010000D02*
X71450000Y-80500000D01*
X74750000Y-86010000D02*
X74750000Y-80500000D01*
%TO.C,C2*%
X102260000Y-77850000D02*
X102260000Y-79100000D01*
X102885000Y-78475000D02*
X101635000Y-78475000D01*
X103795563Y-79340000D02*
X101010000Y-79340000D01*
X103795563Y-79340000D02*
X104860000Y-80404437D01*
X95204437Y-79340000D02*
X97990000Y-79340000D01*
X95204437Y-79340000D02*
X94140000Y-80404437D01*
X104860000Y-80404437D02*
X104860000Y-90060000D01*
X94140000Y-80404437D02*
X94140000Y-90060000D01*
X104860000Y-90060000D02*
X101010000Y-90060000D01*
X94140000Y-90060000D02*
X97990000Y-90060000D01*
%TO.C,C3*%
X107710000Y-80959420D02*
X107710000Y-81240580D01*
X106690000Y-80959420D02*
X106690000Y-81240580D01*
%TO.C,FB1*%
X82340580Y-74310000D02*
X82059420Y-74310000D01*
X82340580Y-73290000D02*
X82059420Y-73290000D01*
%TO.C,D4*%
X76750000Y-94210000D02*
X80050000Y-94210000D01*
X76750000Y-94210000D02*
X76750000Y-88700000D01*
X80050000Y-94210000D02*
X80050000Y-88700000D01*
%TO.C,J2*%
X58340000Y-72060000D02*
X57600000Y-72060000D01*
X57600000Y-72060000D02*
X57600000Y-72560000D01*
X67761000Y-72300000D02*
X57840000Y-72300000D01*
X67761000Y-72300000D02*
X67761000Y-82580000D01*
X64801000Y-72300000D02*
X64801000Y-82580000D01*
X59900000Y-72300000D02*
X59900000Y-82580000D01*
X58400000Y-72300000D02*
X58400000Y-82580000D01*
X57840000Y-72300000D02*
X57840000Y-82580000D01*
X61477000Y-78753000D02*
X61431000Y-78706000D01*
X61261000Y-78946000D02*
X61226000Y-78911000D01*
X63775000Y-81050000D02*
X63739000Y-81015000D01*
X63569000Y-81255000D02*
X63523000Y-81208000D01*
X67761000Y-82580000D02*
X57840000Y-82580000D01*
X63183999Y-73365001D02*
G75*
G03*
X61816958Y-73364574I-684000J-1534992D01*
G01*
X64034999Y-75583999D02*
G75*
G03*
X64035426Y-74216958I-1534992J684000D01*
G01*
X60965001Y-74216000D02*
G75*
G03*
X60819748Y-74928805I1535000J-683999D01*
G01*
X60820001Y-74900000D02*
G75*
G03*
X60965245Y-75583318I1679999J0D01*
G01*
X61816000Y-76435000D02*
G75*
G03*
X63183042Y-76435426I684000J1535000D01*
G01*
X64180000Y-79980000D02*
G75*
G03*
X64180000Y-79980000I-1680000J0D01*
G01*
%TD*%
M02*
