%TF.GenerationSoftware,KiCad,Pcbnew,7.0.5*%
%TF.CreationDate,2023-07-04T22:36:34+05:30*%
%TF.ProjectId,BUCK_LOW_EMI,4255434b-5f4c-44f5-975f-454d492e6b69,rev?*%
%TF.SameCoordinates,Original*%
%TF.FileFunction,Soldermask,Top*%
%TF.FilePolarity,Negative*%
%FSLAX46Y46*%
G04 Gerber Fmt 4.6, Leading zero omitted, Abs format (unit mm)*
G04 Created by KiCad (PCBNEW 7.0.5) date 2023-07-04 22:36:34*
%MOMM*%
%LPD*%
G01*
G04 APERTURE LIST*
G04 Aperture macros list*
%AMRoundRect*
0 Rectangle with rounded corners*
0 $1 Rounding radius*
0 $2 $3 $4 $5 $6 $7 $8 $9 X,Y pos of 4 corners*
0 Add a 4 corners polygon primitive as box body*
4,1,4,$2,$3,$4,$5,$6,$7,$8,$9,$2,$3,0*
0 Add four circle primitives for the rounded corners*
1,1,$1+$1,$2,$3*
1,1,$1+$1,$4,$5*
1,1,$1+$1,$6,$7*
1,1,$1+$1,$8,$9*
0 Add four rect primitives between the rounded corners*
20,1,$1+$1,$2,$3,$4,$5,0*
20,1,$1+$1,$4,$5,$6,$7,0*
20,1,$1+$1,$6,$7,$8,$9,0*
20,1,$1+$1,$8,$9,$2,$3,0*%
G04 Aperture macros list end*
%ADD10R,2.400000X1.500000*%
%ADD11RoundRect,0.250000X-0.650000X1.000000X-0.650000X-1.000000X0.650000X-1.000000X0.650000X1.000000X0*%
%ADD12RoundRect,0.250000X1.000000X-1.950000X1.000000X1.950000X-1.000000X1.950000X-1.000000X-1.950000X0*%
%ADD13RoundRect,0.225000X-0.250000X0.225000X-0.250000X-0.225000X0.250000X-0.225000X0.250000X0.225000X0*%
%ADD14R,2.600000X2.600000*%
%ADD15C,2.600000*%
%ADD16RoundRect,0.150000X-0.150000X0.512500X-0.150000X-0.512500X0.150000X-0.512500X0.150000X0.512500X0*%
%ADD17RoundRect,0.225000X0.250000X-0.225000X0.250000X0.225000X-0.250000X0.225000X-0.250000X-0.225000X0*%
%ADD18C,3.200000*%
%ADD19C,1.440000*%
%ADD20RoundRect,0.225000X0.225000X0.250000X-0.225000X0.250000X-0.225000X-0.250000X0.225000X-0.250000X0*%
%ADD21RoundRect,0.200000X0.275000X-0.200000X0.275000X0.200000X-0.275000X0.200000X-0.275000X-0.200000X0*%
%ADD22RoundRect,0.250000X-1.000000X1.950000X-1.000000X-1.950000X1.000000X-1.950000X1.000000X1.950000X0*%
%ADD23RoundRect,0.225000X-0.225000X-0.250000X0.225000X-0.250000X0.225000X0.250000X-0.225000X0.250000X0*%
%ADD24RoundRect,0.250000X0.650000X-1.000000X0.650000X1.000000X-0.650000X1.000000X-0.650000X-1.000000X0*%
G04 APERTURE END LIST*
D10*
%TO.C,L1*%
X112000000Y-77500000D03*
X112000000Y-72000000D03*
%TD*%
D11*
%TO.C,D2*%
X78300000Y-80500000D03*
X78300000Y-84500000D03*
%TD*%
D12*
%TO.C,C6*%
X99000000Y-71600000D03*
X99000000Y-63200000D03*
%TD*%
D13*
%TO.C,C4*%
X108800000Y-80325000D03*
X108800000Y-81875000D03*
%TD*%
D11*
%TO.C,D3*%
X73200000Y-88800000D03*
X73200000Y-92800000D03*
%TD*%
D14*
%TO.C,J1*%
X62595000Y-86255000D03*
D15*
X62595000Y-91335000D03*
%TD*%
D16*
%TO.C,U1*%
X112850000Y-80362500D03*
X111900000Y-80362500D03*
X110950000Y-80362500D03*
X110950000Y-82637500D03*
X111900000Y-82637500D03*
X112850000Y-82637500D03*
%TD*%
D17*
%TO.C,C9*%
X107600000Y-71975000D03*
X107600000Y-70425000D03*
%TD*%
D18*
%TO.C,M3*%
X114200000Y-63300000D03*
%TD*%
D19*
%TO.C,RV1*%
X112900000Y-91400000D03*
X110360000Y-91400000D03*
X107820000Y-91400000D03*
%TD*%
D12*
%TO.C,C7*%
X87800000Y-71600000D03*
X87800000Y-63200000D03*
%TD*%
D20*
%TO.C,C11*%
X112500000Y-87500000D03*
X110950000Y-87500000D03*
%TD*%
D12*
%TO.C,C10*%
X76600000Y-71600000D03*
X76600000Y-63200000D03*
%TD*%
D17*
%TO.C,C8*%
X106000000Y-71975000D03*
X106000000Y-70425000D03*
%TD*%
D21*
%TO.C,R1*%
X81900000Y-78725000D03*
X81900000Y-77075000D03*
%TD*%
%TO.C,R2*%
X69900000Y-73625000D03*
X69900000Y-71975000D03*
%TD*%
D22*
%TO.C,C1*%
X88300000Y-80500000D03*
X88300000Y-88900000D03*
%TD*%
D23*
%TO.C,C5*%
X114725000Y-82600000D03*
X116275000Y-82600000D03*
%TD*%
D24*
%TO.C,D1*%
X73100000Y-84500000D03*
X73100000Y-80500000D03*
%TD*%
D22*
%TO.C,C2*%
X99500000Y-80500000D03*
X99500000Y-88900000D03*
%TD*%
D13*
%TO.C,C3*%
X107200000Y-80325000D03*
X107200000Y-81875000D03*
%TD*%
D20*
%TO.C,FB1*%
X82975000Y-73800000D03*
X81425000Y-73800000D03*
%TD*%
D18*
%TO.C,M3*%
X60400000Y-63500000D03*
%TD*%
D24*
%TO.C,D4*%
X78400000Y-92700000D03*
X78400000Y-88700000D03*
%TD*%
D14*
%TO.C,J2*%
X62500000Y-74900000D03*
D15*
X62500000Y-79980000D03*
%TD*%
M02*
