%TF.GenerationSoftware,KiCad,Pcbnew,7.0.5*%
%TF.CreationDate,2023-07-04T22:36:34+05:30*%
%TF.ProjectId,BUCK_LOW_EMI,4255434b-5f4c-44f5-975f-454d492e6b69,rev?*%
%TF.SameCoordinates,Original*%
%TF.FileFunction,Copper,L1,Top*%
%TF.FilePolarity,Positive*%
%FSLAX46Y46*%
G04 Gerber Fmt 4.6, Leading zero omitted, Abs format (unit mm)*
G04 Created by KiCad (PCBNEW 7.0.5) date 2023-07-04 22:36:34*
%MOMM*%
%LPD*%
G01*
G04 APERTURE LIST*
G04 Aperture macros list*
%AMRoundRect*
0 Rectangle with rounded corners*
0 $1 Rounding radius*
0 $2 $3 $4 $5 $6 $7 $8 $9 X,Y pos of 4 corners*
0 Add a 4 corners polygon primitive as box body*
4,1,4,$2,$3,$4,$5,$6,$7,$8,$9,$2,$3,0*
0 Add four circle primitives for the rounded corners*
1,1,$1+$1,$2,$3*
1,1,$1+$1,$4,$5*
1,1,$1+$1,$6,$7*
1,1,$1+$1,$8,$9*
0 Add four rect primitives between the rounded corners*
20,1,$1+$1,$2,$3,$4,$5,0*
20,1,$1+$1,$4,$5,$6,$7,0*
20,1,$1+$1,$6,$7,$8,$9,0*
20,1,$1+$1,$8,$9,$2,$3,0*%
G04 Aperture macros list end*
%TA.AperFunction,SMDPad,CuDef*%
%ADD10R,2.400000X1.500000*%
%TD*%
%TA.AperFunction,SMDPad,CuDef*%
%ADD11RoundRect,0.250000X-0.650000X1.000000X-0.650000X-1.000000X0.650000X-1.000000X0.650000X1.000000X0*%
%TD*%
%TA.AperFunction,SMDPad,CuDef*%
%ADD12RoundRect,0.250000X1.000000X-1.950000X1.000000X1.950000X-1.000000X1.950000X-1.000000X-1.950000X0*%
%TD*%
%TA.AperFunction,SMDPad,CuDef*%
%ADD13RoundRect,0.225000X-0.250000X0.225000X-0.250000X-0.225000X0.250000X-0.225000X0.250000X0.225000X0*%
%TD*%
%TA.AperFunction,ComponentPad*%
%ADD14R,2.600000X2.600000*%
%TD*%
%TA.AperFunction,ComponentPad*%
%ADD15C,2.600000*%
%TD*%
%TA.AperFunction,SMDPad,CuDef*%
%ADD16RoundRect,0.150000X-0.150000X0.512500X-0.150000X-0.512500X0.150000X-0.512500X0.150000X0.512500X0*%
%TD*%
%TA.AperFunction,SMDPad,CuDef*%
%ADD17RoundRect,0.225000X0.250000X-0.225000X0.250000X0.225000X-0.250000X0.225000X-0.250000X-0.225000X0*%
%TD*%
%TA.AperFunction,ComponentPad*%
%ADD18C,1.440000*%
%TD*%
%TA.AperFunction,SMDPad,CuDef*%
%ADD19RoundRect,0.225000X0.225000X0.250000X-0.225000X0.250000X-0.225000X-0.250000X0.225000X-0.250000X0*%
%TD*%
%TA.AperFunction,SMDPad,CuDef*%
%ADD20RoundRect,0.200000X0.275000X-0.200000X0.275000X0.200000X-0.275000X0.200000X-0.275000X-0.200000X0*%
%TD*%
%TA.AperFunction,SMDPad,CuDef*%
%ADD21RoundRect,0.250000X-1.000000X1.950000X-1.000000X-1.950000X1.000000X-1.950000X1.000000X1.950000X0*%
%TD*%
%TA.AperFunction,SMDPad,CuDef*%
%ADD22RoundRect,0.225000X-0.225000X-0.250000X0.225000X-0.250000X0.225000X0.250000X-0.225000X0.250000X0*%
%TD*%
%TA.AperFunction,SMDPad,CuDef*%
%ADD23RoundRect,0.250000X0.650000X-1.000000X0.650000X1.000000X-0.650000X1.000000X-0.650000X-1.000000X0*%
%TD*%
%TA.AperFunction,ViaPad*%
%ADD24C,0.800000*%
%TD*%
%TA.AperFunction,Conductor*%
%ADD25C,0.750000*%
%TD*%
%TA.AperFunction,Conductor*%
%ADD26C,1.000000*%
%TD*%
%TA.AperFunction,Conductor*%
%ADD27C,1.500000*%
%TD*%
%TA.AperFunction,Conductor*%
%ADD28C,0.500000*%
%TD*%
G04 APERTURE END LIST*
D10*
%TO.P,L1,1,1*%
%TO.N,Net-(U1-SW)*%
X112000000Y-77500000D03*
%TO.P,L1,2,2*%
%TO.N,/VDC*%
X112000000Y-72000000D03*
%TD*%
D11*
%TO.P,D2,1,K*%
%TO.N,VCC*%
X78300000Y-80500000D03*
%TO.P,D2,2,A*%
%TO.N,Net-(D1-K)*%
X78300000Y-84500000D03*
%TD*%
D12*
%TO.P,C6,1*%
%TO.N,/VDC*%
X99000000Y-71600000D03*
%TO.P,C6,2*%
%TO.N,GND*%
X99000000Y-63200000D03*
%TD*%
D13*
%TO.P,C4,1*%
%TO.N,VCC*%
X108800000Y-80325000D03*
%TO.P,C4,2*%
%TO.N,GND*%
X108800000Y-81875000D03*
%TD*%
D11*
%TO.P,D3,1,K*%
%TO.N,Net-(D3-K)*%
X73200000Y-88800000D03*
%TO.P,D3,2,A*%
%TO.N,GND*%
X73200000Y-92800000D03*
%TD*%
D14*
%TO.P,J1,1,Pin_1*%
%TO.N,Net-(D1-K)*%
X62595000Y-86255000D03*
D15*
%TO.P,J1,2,Pin_2*%
%TO.N,Net-(D3-K)*%
X62595000Y-91335000D03*
%TD*%
D16*
%TO.P,U1,1,GND*%
%TO.N,GND*%
X112850000Y-80362500D03*
%TO.P,U1,2,SW*%
%TO.N,Net-(U1-SW)*%
X111900000Y-80362500D03*
%TO.P,U1,3,VIN*%
%TO.N,VCC*%
X110950000Y-80362500D03*
%TO.P,U1,4,FB*%
%TO.N,Net-(U1-FB)*%
X110950000Y-82637500D03*
%TO.P,U1,5,EN*%
%TO.N,unconnected-(U1-EN-Pad5)*%
X111900000Y-82637500D03*
%TO.P,U1,6,BOOT*%
%TO.N,Net-(U1-BOOT)*%
X112850000Y-82637500D03*
%TD*%
D17*
%TO.P,C9,1*%
%TO.N,/VDC*%
X107600000Y-71975000D03*
%TO.P,C9,2*%
%TO.N,GND*%
X107600000Y-70425000D03*
%TD*%
D18*
%TO.P,RV1,1,1*%
%TO.N,/VDC*%
X112900000Y-91400000D03*
%TO.P,RV1,2,2*%
%TO.N,Net-(U1-FB)*%
X110360000Y-91400000D03*
%TO.P,RV1,3,3*%
%TO.N,GND*%
X107820000Y-91400000D03*
%TD*%
D12*
%TO.P,C7,1*%
%TO.N,/VDC*%
X87800000Y-71600000D03*
%TO.P,C7,2*%
%TO.N,GND*%
X87800000Y-63200000D03*
%TD*%
D19*
%TO.P,C11,1*%
%TO.N,/VDC*%
X112500000Y-87500000D03*
%TO.P,C11,2*%
%TO.N,Net-(U1-FB)*%
X110950000Y-87500000D03*
%TD*%
D12*
%TO.P,C10,1*%
%TO.N,/VDC1*%
X76600000Y-71600000D03*
%TO.P,C10,2*%
%TO.N,GND*%
X76600000Y-63200000D03*
%TD*%
D17*
%TO.P,C8,1*%
%TO.N,/VDC*%
X106000000Y-71975000D03*
%TO.P,C8,2*%
%TO.N,GND*%
X106000000Y-70425000D03*
%TD*%
D20*
%TO.P,R1,1*%
%TO.N,VCC*%
X81900000Y-78725000D03*
%TO.P,R1,2*%
%TO.N,GND*%
X81900000Y-77075000D03*
%TD*%
%TO.P,R2,1*%
%TO.N,/VDC1*%
X69900000Y-73625000D03*
%TO.P,R2,2*%
%TO.N,GND*%
X69900000Y-71975000D03*
%TD*%
D21*
%TO.P,C1,1*%
%TO.N,VCC*%
X88300000Y-80500000D03*
%TO.P,C1,2*%
%TO.N,GND*%
X88300000Y-88900000D03*
%TD*%
D22*
%TO.P,C5,1*%
%TO.N,Net-(U1-BOOT)*%
X114725000Y-82600000D03*
%TO.P,C5,2*%
%TO.N,Net-(U1-SW)*%
X116275000Y-82600000D03*
%TD*%
D23*
%TO.P,D1,1,K*%
%TO.N,Net-(D1-K)*%
X73100000Y-84500000D03*
%TO.P,D1,2,A*%
%TO.N,GND*%
X73100000Y-80500000D03*
%TD*%
D21*
%TO.P,C2,1*%
%TO.N,VCC*%
X99500000Y-80500000D03*
%TO.P,C2,2*%
%TO.N,GND*%
X99500000Y-88900000D03*
%TD*%
D13*
%TO.P,C3,1*%
%TO.N,VCC*%
X107200000Y-80325000D03*
%TO.P,C3,2*%
%TO.N,GND*%
X107200000Y-81875000D03*
%TD*%
D19*
%TO.P,FB1,1*%
%TO.N,/VDC*%
X82975000Y-73800000D03*
%TO.P,FB1,2*%
%TO.N,/VDC1*%
X81425000Y-73800000D03*
%TD*%
D23*
%TO.P,D4,1,K*%
%TO.N,VCC*%
X78400000Y-92700000D03*
%TO.P,D4,2,A*%
%TO.N,Net-(D3-K)*%
X78400000Y-88700000D03*
%TD*%
D14*
%TO.P,J2,1,Pin_1*%
%TO.N,/VDC1*%
X62500000Y-74900000D03*
D15*
%TO.P,J2,2,Pin_2*%
%TO.N,GND*%
X62500000Y-79980000D03*
%TD*%
D24*
%TO.N,GND*%
X115000000Y-79600000D03*
X82200000Y-61100000D03*
X95000000Y-92700000D03*
X68000000Y-66500000D03*
X68700000Y-79400000D03*
X107400000Y-65500000D03*
X107600000Y-76000000D03*
X109400000Y-65500000D03*
X93400000Y-61000000D03*
X70800000Y-81400000D03*
X68700000Y-81400000D03*
X75700000Y-81300000D03*
X114200000Y-81200000D03*
X93000000Y-92700000D03*
X114200000Y-80200000D03*
X71000000Y-91100000D03*
X66000000Y-62500000D03*
X95000000Y-90700000D03*
X66000000Y-66500000D03*
X68800000Y-91100000D03*
X92600000Y-75600000D03*
X116500000Y-71900000D03*
X68000000Y-62500000D03*
X68000000Y-64500000D03*
X114200000Y-79100000D03*
X116500000Y-73600000D03*
X107600000Y-77300000D03*
X105400000Y-67500000D03*
X64000000Y-62500000D03*
X107400000Y-67500000D03*
X75800000Y-92600000D03*
X115000000Y-80700000D03*
X75700000Y-79400000D03*
X104000000Y-61000000D03*
X71000000Y-93900000D03*
X94600000Y-77600000D03*
X68800000Y-92600000D03*
X71000000Y-92600000D03*
X105400000Y-63500000D03*
X66000000Y-64500000D03*
X109400000Y-63500000D03*
X68800000Y-93900000D03*
X107400000Y-63500000D03*
X64000000Y-66500000D03*
X94600000Y-75600000D03*
X64000000Y-64500000D03*
X93000000Y-90700000D03*
X116500000Y-75500000D03*
X92600000Y-77600000D03*
X72600000Y-61000000D03*
X109400000Y-67500000D03*
X70800000Y-79400000D03*
X105400000Y-65500000D03*
X107600000Y-78500000D03*
%TO.N,Net-(U1-SW)*%
X116300000Y-84200000D03*
X114400000Y-77400000D03*
%TO.N,/VDC*%
X104200000Y-73600000D03*
%TD*%
D25*
%TO.N,VCC*%
X110950000Y-80362500D02*
X108837500Y-80362500D01*
D26*
X80400000Y-92700000D02*
X81500000Y-91600000D01*
D25*
X81900000Y-78725000D02*
X81900000Y-80100000D01*
D26*
X81500000Y-80500000D02*
X82400000Y-80500000D01*
X81500000Y-81400000D02*
X82400000Y-80500000D01*
D27*
X82400000Y-80500000D02*
X88300000Y-80500000D01*
D26*
X81500000Y-91600000D02*
X81500000Y-81400000D01*
X99575000Y-80325000D02*
X99500000Y-80400000D01*
D27*
X78300000Y-80500000D02*
X81500000Y-80500000D01*
D26*
X108800000Y-80325000D02*
X107200000Y-80325000D01*
D25*
X108837500Y-80362500D02*
X108800000Y-80325000D01*
D26*
X78400000Y-92700000D02*
X80400000Y-92700000D01*
D25*
X81900000Y-80100000D02*
X81500000Y-80500000D01*
D26*
X99400000Y-80500000D02*
X99500000Y-80400000D01*
D27*
X107200000Y-80325000D02*
X99575000Y-80325000D01*
X88300000Y-80500000D02*
X99400000Y-80500000D01*
D25*
%TO.N,Net-(U1-BOOT)*%
X112887500Y-82600000D02*
X112850000Y-82637500D01*
X114725000Y-82600000D02*
X112887500Y-82600000D01*
D28*
%TO.N,Net-(U1-SW)*%
X112100000Y-77400000D02*
X112000000Y-77500000D01*
D25*
X111900000Y-80362500D02*
X111900000Y-77600000D01*
D28*
X116275000Y-82600000D02*
X116275000Y-84175000D01*
X114400000Y-77400000D02*
X112100000Y-77400000D01*
D25*
X111900000Y-77600000D02*
X112000000Y-77500000D01*
D28*
X116275000Y-84175000D02*
X116300000Y-84200000D01*
D25*
%TO.N,/VDC*%
X99375000Y-71975000D02*
X99000000Y-71600000D01*
X112900000Y-91400000D02*
X112900000Y-89600000D01*
X106025000Y-72000000D02*
X106000000Y-71975000D01*
X112500000Y-89200000D02*
X112500000Y-87500000D01*
X112900000Y-89600000D02*
X112500000Y-89200000D01*
%TO.N,Net-(U1-FB)*%
X110360000Y-91400000D02*
X110360000Y-89740000D01*
X110950000Y-82637500D02*
X110950000Y-87500000D01*
X110950000Y-89150000D02*
X110950000Y-87500000D01*
X110360000Y-89740000D02*
X110950000Y-89150000D01*
D27*
%TO.N,Net-(D1-K)*%
X66835000Y-86165000D02*
X63105000Y-86165000D01*
X73100000Y-84500000D02*
X68500000Y-84500000D01*
X78300000Y-84500000D02*
X73100000Y-84500000D01*
X68500000Y-84500000D02*
X66835000Y-86165000D01*
%TO.N,Net-(D3-K)*%
X68300000Y-88800000D02*
X65855000Y-91245000D01*
X73200000Y-88800000D02*
X68300000Y-88800000D01*
X78400000Y-88700000D02*
X73300000Y-88700000D01*
X65855000Y-91245000D02*
X63105000Y-91245000D01*
X73300000Y-88700000D02*
X73200000Y-88800000D01*
%TD*%
%TA.AperFunction,Conductor*%
%TO.N,/VDC*%
G36*
X100547186Y-68920549D02*
G01*
X100593796Y-68972600D01*
X100605716Y-69020045D01*
X100620238Y-69325008D01*
X100700000Y-71000000D01*
X105044267Y-71000000D01*
X105111306Y-71019685D01*
X105149804Y-71058901D01*
X105177032Y-71103044D01*
X105177033Y-71103045D01*
X105296955Y-71222967D01*
X105296959Y-71222970D01*
X105441294Y-71311998D01*
X105441297Y-71311999D01*
X105441303Y-71312003D01*
X105602292Y-71365349D01*
X105701655Y-71375500D01*
X106298344Y-71375499D01*
X106298352Y-71375498D01*
X106298355Y-71375498D01*
X106352760Y-71369940D01*
X106397708Y-71365349D01*
X106558697Y-71312003D01*
X106703044Y-71222968D01*
X106712319Y-71213692D01*
X106773642Y-71180208D01*
X106843334Y-71185192D01*
X106887681Y-71213693D01*
X106896955Y-71222967D01*
X106896959Y-71222970D01*
X107041294Y-71311998D01*
X107041297Y-71311999D01*
X107041303Y-71312003D01*
X107202292Y-71365349D01*
X107301655Y-71375500D01*
X107898344Y-71375499D01*
X107898352Y-71375498D01*
X107898355Y-71375498D01*
X107952760Y-71369940D01*
X107997708Y-71365349D01*
X108158697Y-71312003D01*
X108303044Y-71222968D01*
X108422968Y-71103044D01*
X108450195Y-71058901D01*
X108502142Y-71012179D01*
X108555733Y-71000000D01*
X113376000Y-71000000D01*
X113443039Y-71019685D01*
X113488794Y-71072489D01*
X113500000Y-71124000D01*
X113500000Y-74376790D01*
X113480315Y-74443829D01*
X113427511Y-74489584D01*
X113376792Y-74500787D01*
X82732713Y-74696595D01*
X82665549Y-74677340D01*
X82619458Y-74624829D01*
X82607941Y-74570347D01*
X82610439Y-74432937D01*
X82592580Y-74290269D01*
X82580365Y-74245652D01*
X82580506Y-74237920D01*
X82568025Y-74200254D01*
X82567077Y-74197120D01*
X82565848Y-74192630D01*
X82564239Y-74188828D01*
X82536294Y-74104496D01*
X82530000Y-74065492D01*
X82530000Y-73534505D01*
X82536294Y-73495501D01*
X82555669Y-73437031D01*
X82557884Y-73431311D01*
X82594916Y-73348176D01*
X82613356Y-73285335D01*
X82633724Y-73152192D01*
X82703148Y-69333894D01*
X82702342Y-69325008D01*
X82715893Y-69256465D01*
X82764350Y-69206130D01*
X82823810Y-69189829D01*
X100479835Y-68901959D01*
X100547186Y-68920549D01*
G37*
%TD.AperFunction*%
%TD*%
%TA.AperFunction,Conductor*%
%TO.N,/VDC1*%
G36*
X82075283Y-69198460D02*
G01*
X82142074Y-69218971D01*
X82187174Y-69272336D01*
X82197732Y-69324705D01*
X82128308Y-73143003D01*
X82109868Y-73205844D01*
X82087997Y-73241303D01*
X82034651Y-73402290D01*
X82024500Y-73501647D01*
X82024500Y-74098337D01*
X82024501Y-74098355D01*
X82034650Y-74197707D01*
X82034651Y-74197710D01*
X82087996Y-74358694D01*
X82091051Y-74365245D01*
X82089236Y-74366091D01*
X82105022Y-74423751D01*
X82102214Y-74578253D01*
X82081314Y-74644924D01*
X82027687Y-74689712D01*
X81978234Y-74700000D01*
X78600000Y-74700000D01*
X78506183Y-76482517D01*
X78483002Y-76548430D01*
X78427866Y-76591346D01*
X78382354Y-76600000D01*
X60724000Y-76600000D01*
X60656961Y-76580315D01*
X60611206Y-76527511D01*
X60600000Y-76476000D01*
X60600000Y-73423085D01*
X60619685Y-73356046D01*
X60672489Y-73310291D01*
X60723080Y-73299088D01*
X74100000Y-73200000D01*
X74100000Y-69225540D01*
X74119685Y-69158501D01*
X74172489Y-69112746D01*
X74225527Y-69101549D01*
X82075283Y-69198460D01*
G37*
%TD.AperFunction*%
%TD*%
%TA.AperFunction,Conductor*%
%TO.N,GND*%
G36*
X75379639Y-60320185D02*
G01*
X75425394Y-60372989D01*
X75435338Y-60442147D01*
X75406313Y-60505703D01*
X75351604Y-60542206D01*
X75280880Y-60565641D01*
X75280875Y-60565643D01*
X75131654Y-60657684D01*
X75007684Y-60781654D01*
X74915643Y-60930875D01*
X74915641Y-60930880D01*
X74860494Y-61097302D01*
X74860493Y-61097309D01*
X74850000Y-61200013D01*
X74850000Y-62900000D01*
X78349999Y-62900000D01*
X78349999Y-61200028D01*
X78349998Y-61200013D01*
X78339505Y-61097302D01*
X78284358Y-60930880D01*
X78284356Y-60930875D01*
X78192315Y-60781654D01*
X78068345Y-60657684D01*
X77919124Y-60565643D01*
X77919119Y-60565641D01*
X77848395Y-60542206D01*
X77790950Y-60502434D01*
X77764127Y-60437918D01*
X77776442Y-60369142D01*
X77823985Y-60317942D01*
X77887399Y-60300500D01*
X86512600Y-60300500D01*
X86579639Y-60320185D01*
X86625394Y-60372989D01*
X86635338Y-60442147D01*
X86606313Y-60505703D01*
X86551604Y-60542206D01*
X86480880Y-60565641D01*
X86480875Y-60565643D01*
X86331654Y-60657684D01*
X86207684Y-60781654D01*
X86115643Y-60930875D01*
X86115641Y-60930880D01*
X86060494Y-61097302D01*
X86060493Y-61097309D01*
X86050000Y-61200013D01*
X86050000Y-62900000D01*
X89549999Y-62900000D01*
X89549999Y-61200028D01*
X89549998Y-61200013D01*
X89539505Y-61097302D01*
X89484358Y-60930880D01*
X89484356Y-60930875D01*
X89392315Y-60781654D01*
X89268345Y-60657684D01*
X89119124Y-60565643D01*
X89119119Y-60565641D01*
X89048395Y-60542206D01*
X88990950Y-60502434D01*
X88964127Y-60437918D01*
X88976442Y-60369142D01*
X89023985Y-60317942D01*
X89087399Y-60300500D01*
X97712600Y-60300500D01*
X97779639Y-60320185D01*
X97825394Y-60372989D01*
X97835338Y-60442147D01*
X97806313Y-60505703D01*
X97751604Y-60542206D01*
X97680880Y-60565641D01*
X97680875Y-60565643D01*
X97531654Y-60657684D01*
X97407684Y-60781654D01*
X97315643Y-60930875D01*
X97315641Y-60930880D01*
X97260494Y-61097302D01*
X97260493Y-61097309D01*
X97250000Y-61200013D01*
X97250000Y-62900000D01*
X100749999Y-62900000D01*
X100749999Y-61200028D01*
X100749998Y-61200013D01*
X100739505Y-61097302D01*
X100684358Y-60930880D01*
X100684356Y-60930875D01*
X100592315Y-60781654D01*
X100468345Y-60657684D01*
X100319124Y-60565643D01*
X100319119Y-60565641D01*
X100248395Y-60542206D01*
X100190950Y-60502434D01*
X100164127Y-60437918D01*
X100176442Y-60369142D01*
X100223985Y-60317942D01*
X100287399Y-60300500D01*
X117275500Y-60300500D01*
X117342539Y-60320185D01*
X117388294Y-60372989D01*
X117399500Y-60424500D01*
X117399500Y-81991289D01*
X117379815Y-82058328D01*
X117327011Y-82104083D01*
X117257853Y-82114027D01*
X117194297Y-82085002D01*
X117165902Y-82047383D01*
X117165795Y-82047450D01*
X117165088Y-82046304D01*
X117163118Y-82043694D01*
X117162004Y-82041307D01*
X117162003Y-82041303D01*
X117081199Y-81910301D01*
X117072970Y-81896959D01*
X117072967Y-81896955D01*
X116953044Y-81777032D01*
X116953040Y-81777029D01*
X116808705Y-81688001D01*
X116808699Y-81687998D01*
X116808697Y-81687997D01*
X116775957Y-81677148D01*
X116647709Y-81634651D01*
X116548346Y-81624500D01*
X116001662Y-81624500D01*
X116001644Y-81624501D01*
X115902292Y-81634650D01*
X115902289Y-81634651D01*
X115741305Y-81687996D01*
X115741294Y-81688001D01*
X115596959Y-81777029D01*
X115596955Y-81777032D01*
X115587681Y-81786307D01*
X115526358Y-81819792D01*
X115456666Y-81814808D01*
X115412319Y-81786307D01*
X115403044Y-81777032D01*
X115403040Y-81777029D01*
X115258705Y-81688001D01*
X115258699Y-81687998D01*
X115258697Y-81687997D01*
X115225957Y-81677148D01*
X115097709Y-81634651D01*
X114998346Y-81624500D01*
X114451662Y-81624500D01*
X114451644Y-81624501D01*
X114352290Y-81634651D01*
X114312869Y-81647714D01*
X114279557Y-81658752D01*
X114272687Y-81660598D01*
X114194225Y-81676912D01*
X114191946Y-81677342D01*
X114097740Y-81693257D01*
X114095402Y-81693607D01*
X114001516Y-81705808D01*
X113999143Y-81706070D01*
X113905617Y-81714578D01*
X113903219Y-81714749D01*
X113846603Y-81717693D01*
X113809850Y-81719604D01*
X113809835Y-81719605D01*
X113809823Y-81719606D01*
X113783431Y-81722056D01*
X113768984Y-81723397D01*
X113768982Y-81723397D01*
X113763321Y-81723923D01*
X113763274Y-81723423D01*
X113751612Y-81724500D01*
X113570809Y-81724500D01*
X113503770Y-81704815D01*
X113483128Y-81688181D01*
X113401870Y-81606923D01*
X113401859Y-81606914D01*
X113401053Y-81606438D01*
X113400550Y-81605899D01*
X113395702Y-81602139D01*
X113396308Y-81601356D01*
X113353372Y-81555366D01*
X113340871Y-81486624D01*
X113367520Y-81422036D01*
X113395589Y-81397716D01*
X113395393Y-81397463D01*
X113400066Y-81393838D01*
X113401066Y-81392972D01*
X113401558Y-81392680D01*
X113401561Y-81392678D01*
X113517678Y-81276561D01*
X113517685Y-81276552D01*
X113601282Y-81135196D01*
X113601283Y-81135193D01*
X113647099Y-80977495D01*
X113647100Y-80977489D01*
X113649999Y-80940649D01*
X113650000Y-80940634D01*
X113650000Y-80662500D01*
X112884686Y-80662500D01*
X112817647Y-80642815D01*
X112771892Y-80590011D01*
X112761948Y-80520853D01*
X112763582Y-80511858D01*
X112775500Y-80457716D01*
X112775499Y-79216702D01*
X113149999Y-79216702D01*
X113150000Y-80062500D01*
X113650000Y-80062500D01*
X113650000Y-79784365D01*
X113649999Y-79784350D01*
X113647100Y-79747510D01*
X113647099Y-79747504D01*
X113601283Y-79589806D01*
X113601282Y-79589803D01*
X113517685Y-79448447D01*
X113517678Y-79448438D01*
X113401561Y-79332321D01*
X113401552Y-79332314D01*
X113260196Y-79248717D01*
X113260193Y-79248715D01*
X113150001Y-79216701D01*
X113149999Y-79216702D01*
X112775499Y-79216702D01*
X112775499Y-79143117D01*
X112785897Y-79093414D01*
X112818110Y-79019794D01*
X112819291Y-79017258D01*
X112891487Y-78871303D01*
X112893138Y-78868194D01*
X112924430Y-78813184D01*
X112974686Y-78764649D01*
X113032210Y-78750499D01*
X113247871Y-78750499D01*
X113247872Y-78750499D01*
X113307483Y-78744091D01*
X113442331Y-78693796D01*
X113557546Y-78607546D01*
X113643796Y-78492331D01*
X113659701Y-78449684D01*
X113684556Y-78409142D01*
X113704461Y-78387470D01*
X113708525Y-78383438D01*
X113815490Y-78286739D01*
X113820858Y-78282403D01*
X113850065Y-78261396D01*
X113915980Y-78238232D01*
X113954349Y-78242231D01*
X114079718Y-78275592D01*
X114102271Y-78280504D01*
X114127099Y-78284735D01*
X114149951Y-78287565D01*
X114149958Y-78287565D01*
X114149970Y-78287567D01*
X114295046Y-78298859D01*
X114303136Y-78300029D01*
X114304561Y-78300331D01*
X114305354Y-78300500D01*
X114313712Y-78300500D01*
X114318523Y-78300686D01*
X114352966Y-78303368D01*
X114362526Y-78303930D01*
X114362538Y-78303930D01*
X114362547Y-78303931D01*
X114364288Y-78304000D01*
X114368190Y-78304156D01*
X114436700Y-78301934D01*
X114441090Y-78301792D01*
X114445955Y-78301107D01*
X114454613Y-78300500D01*
X114494644Y-78300500D01*
X114494646Y-78300500D01*
X114679803Y-78261144D01*
X114852730Y-78184151D01*
X115005871Y-78072888D01*
X115132533Y-77932216D01*
X115227179Y-77768284D01*
X115285674Y-77588256D01*
X115305460Y-77400000D01*
X115285674Y-77211744D01*
X115227179Y-77031716D01*
X115132533Y-76867784D01*
X115005871Y-76727112D01*
X114990771Y-76716141D01*
X114852734Y-76615851D01*
X114852729Y-76615848D01*
X114679807Y-76538857D01*
X114679802Y-76538855D01*
X114533055Y-76507664D01*
X114494646Y-76499500D01*
X114494645Y-76499500D01*
X114388503Y-76499500D01*
X114384489Y-76499369D01*
X114355978Y-76497510D01*
X114348197Y-76497003D01*
X114348184Y-76497003D01*
X114322628Y-76498993D01*
X114318515Y-76499313D01*
X114313705Y-76499500D01*
X114305347Y-76499500D01*
X114303130Y-76499972D01*
X114295054Y-76501138D01*
X114149926Y-76512436D01*
X114149913Y-76512437D01*
X114127052Y-76515270D01*
X114102239Y-76519501D01*
X114079697Y-76524411D01*
X114079690Y-76524413D01*
X113924200Y-76565790D01*
X113912480Y-76569212D01*
X113900552Y-76573009D01*
X113900467Y-76573038D01*
X113889868Y-76576690D01*
X113820073Y-76579916D01*
X113791125Y-76568865D01*
X113768718Y-76556915D01*
X113762220Y-76552918D01*
X113665186Y-76484670D01*
X113660068Y-76480653D01*
X113539050Y-76374965D01*
X113489318Y-76341290D01*
X113486925Y-76339586D01*
X113460663Y-76319927D01*
X113442331Y-76306204D01*
X113442330Y-76306203D01*
X113442328Y-76306202D01*
X113425340Y-76299865D01*
X113420646Y-76297892D01*
X113401032Y-76288677D01*
X113401023Y-76288674D01*
X113383367Y-76283919D01*
X113377822Y-76282143D01*
X113307484Y-76255909D01*
X113307483Y-76255908D01*
X113247883Y-76249501D01*
X113247881Y-76249500D01*
X113247873Y-76249500D01*
X113247864Y-76249500D01*
X110752129Y-76249500D01*
X110752123Y-76249501D01*
X110692516Y-76255908D01*
X110557671Y-76306202D01*
X110557664Y-76306206D01*
X110442455Y-76392452D01*
X110442452Y-76392455D01*
X110356206Y-76507664D01*
X110356202Y-76507671D01*
X110305908Y-76642517D01*
X110299501Y-76702116D01*
X110299500Y-76702135D01*
X110299500Y-78297870D01*
X110299501Y-78297876D01*
X110305908Y-78357483D01*
X110356202Y-78492328D01*
X110356206Y-78492335D01*
X110442452Y-78607544D01*
X110442455Y-78607547D01*
X110557664Y-78693793D01*
X110557671Y-78693797D01*
X110602618Y-78710561D01*
X110692517Y-78744091D01*
X110752127Y-78750500D01*
X110812839Y-78750499D01*
X110879878Y-78770183D01*
X110925634Y-78822986D01*
X110928800Y-78830576D01*
X110983020Y-78973719D01*
X110983827Y-78975982D01*
X110985714Y-78981613D01*
X111003973Y-79036103D01*
X111006608Y-79105922D01*
X110971078Y-79166083D01*
X110908663Y-79197485D01*
X110886398Y-79199500D01*
X110734298Y-79199500D01*
X110697432Y-79202401D01*
X110697426Y-79202402D01*
X110539606Y-79248254D01*
X110539603Y-79248255D01*
X110398137Y-79331917D01*
X110398129Y-79331923D01*
X110279372Y-79450681D01*
X110218049Y-79484166D01*
X110191691Y-79487000D01*
X109790720Y-79487000D01*
X109762136Y-79483660D01*
X109759686Y-79483079D01*
X109759674Y-79483077D01*
X109759673Y-79483077D01*
X109759670Y-79483076D01*
X109759665Y-79483076D01*
X109657955Y-79473919D01*
X109655721Y-79473677D01*
X109553411Y-79460712D01*
X109551206Y-79460393D01*
X109448551Y-79443618D01*
X109446389Y-79443225D01*
X109426898Y-79439324D01*
X109343423Y-79422620D01*
X109341302Y-79422157D01*
X109237393Y-79397550D01*
X109232178Y-79396072D01*
X109197710Y-79384651D01*
X109148419Y-79379615D01*
X109112122Y-79370208D01*
X109101058Y-79365460D01*
X108901741Y-79324500D01*
X108758383Y-79324500D01*
X108732289Y-79321723D01*
X108724076Y-79319955D01*
X108724070Y-79319954D01*
X108411189Y-79298260D01*
X108391264Y-79295237D01*
X108202403Y-79250631D01*
X108197283Y-79249188D01*
X107990372Y-79181144D01*
X107990345Y-79181135D01*
X107979757Y-79177909D01*
X107979755Y-79177908D01*
X107979747Y-79177906D01*
X107968839Y-79174843D01*
X107959953Y-79172547D01*
X107958587Y-79172194D01*
X107835480Y-79143118D01*
X107682059Y-79106882D01*
X107682047Y-79106879D01*
X107682040Y-79106878D01*
X107682001Y-79106870D01*
X107661870Y-79102975D01*
X107661845Y-79102970D01*
X107661821Y-79102966D01*
X107661124Y-79102860D01*
X107639640Y-79099604D01*
X107619230Y-79097353D01*
X107330131Y-79077307D01*
X107323347Y-79076459D01*
X107312550Y-79074500D01*
X107312547Y-79074500D01*
X107291775Y-79074500D01*
X107287485Y-79074351D01*
X107243040Y-79071269D01*
X107234215Y-79070812D01*
X107229017Y-79070634D01*
X107229014Y-79070634D01*
X107229011Y-79070634D01*
X107229009Y-79070634D01*
X107189742Y-79072038D01*
X107158326Y-79073163D01*
X107157733Y-79073248D01*
X107140158Y-79074500D01*
X101792037Y-79074500D01*
X101771294Y-79072753D01*
X101751363Y-79069371D01*
X101751359Y-79069370D01*
X101614190Y-79065905D01*
X101583956Y-79065141D01*
X101579345Y-79064852D01*
X101558329Y-79062744D01*
X101421203Y-79048993D01*
X101416698Y-79048373D01*
X101395370Y-79044635D01*
X101353092Y-79037225D01*
X101290457Y-79006262D01*
X101254505Y-78946352D01*
X101250499Y-78915087D01*
X101250499Y-78499998D01*
X101250498Y-78499981D01*
X101239999Y-78397203D01*
X101239998Y-78397200D01*
X101209166Y-78304155D01*
X101184814Y-78230666D01*
X101092712Y-78081344D01*
X100968656Y-77957288D01*
X100845819Y-77881522D01*
X100819336Y-77865187D01*
X100819331Y-77865185D01*
X100792551Y-77856311D01*
X100652797Y-77810001D01*
X100652795Y-77810000D01*
X100550010Y-77799500D01*
X98449998Y-77799500D01*
X98449981Y-77799501D01*
X98347203Y-77810000D01*
X98347200Y-77810001D01*
X98180668Y-77865185D01*
X98180663Y-77865187D01*
X98031342Y-77957289D01*
X97907289Y-78081342D01*
X97815187Y-78230663D01*
X97815185Y-78230668D01*
X97796331Y-78287567D01*
X97760001Y-78397203D01*
X97760001Y-78397204D01*
X97760000Y-78397204D01*
X97749500Y-78499983D01*
X97749500Y-79052249D01*
X97729815Y-79119288D01*
X97677011Y-79165043D01*
X97655575Y-79172547D01*
X97547154Y-79199652D01*
X97542803Y-79200575D01*
X97383432Y-79228465D01*
X97378913Y-79229086D01*
X97210284Y-79245949D01*
X97210204Y-79245958D01*
X97186723Y-79248989D01*
X97178779Y-79249500D01*
X90619205Y-79249500D01*
X90594166Y-79246450D01*
X90594122Y-79246708D01*
X90589767Y-79245955D01*
X90589761Y-79245954D01*
X90543699Y-79241347D01*
X90421078Y-79229085D01*
X90416559Y-79228464D01*
X90257190Y-79200575D01*
X90252846Y-79199653D01*
X90177734Y-79180875D01*
X90144424Y-79172547D01*
X90084160Y-79137191D01*
X90052579Y-79074866D01*
X90050499Y-79052250D01*
X90050499Y-78499998D01*
X90050498Y-78499981D01*
X90039999Y-78397203D01*
X90039998Y-78397200D01*
X90009166Y-78304155D01*
X89984814Y-78230666D01*
X89892712Y-78081344D01*
X89768656Y-77957288D01*
X89645819Y-77881522D01*
X89619336Y-77865187D01*
X89619331Y-77865185D01*
X89592551Y-77856311D01*
X89452797Y-77810001D01*
X89452795Y-77810000D01*
X89350010Y-77799500D01*
X87249998Y-77799500D01*
X87249981Y-77799501D01*
X87147203Y-77810000D01*
X87147200Y-77810001D01*
X86980668Y-77865185D01*
X86980663Y-77865187D01*
X86831342Y-77957289D01*
X86707289Y-78081342D01*
X86615187Y-78230663D01*
X86615185Y-78230668D01*
X86596331Y-78287567D01*
X86560001Y-78397203D01*
X86560001Y-78397204D01*
X86560000Y-78397204D01*
X86549500Y-78499983D01*
X86549500Y-79052249D01*
X86529815Y-79119288D01*
X86477011Y-79165043D01*
X86455575Y-79172547D01*
X86347154Y-79199652D01*
X86342803Y-79200575D01*
X86183432Y-79228465D01*
X86178913Y-79229086D01*
X86010284Y-79245949D01*
X86010204Y-79245958D01*
X85986723Y-79248989D01*
X85978779Y-79249500D01*
X82976124Y-79249500D01*
X82909085Y-79229815D01*
X82863330Y-79177011D01*
X82853386Y-79107853D01*
X82857739Y-79088610D01*
X82861261Y-79077307D01*
X82869086Y-79052196D01*
X82875500Y-78981616D01*
X82875500Y-78468384D01*
X82869086Y-78397804D01*
X82818478Y-78235394D01*
X82730472Y-78089815D01*
X82730470Y-78089813D01*
X82730469Y-78089811D01*
X82627984Y-77987326D01*
X82594499Y-77926003D01*
X82599483Y-77856311D01*
X82627985Y-77811963D01*
X82730071Y-77709878D01*
X82730072Y-77709877D01*
X82818019Y-77564395D01*
X82868590Y-77402106D01*
X82871054Y-77375000D01*
X80928946Y-77375000D01*
X80931409Y-77402106D01*
X80981980Y-77564395D01*
X81069926Y-77709875D01*
X81172015Y-77811963D01*
X81205500Y-77873286D01*
X81200516Y-77942978D01*
X81172016Y-77987326D01*
X81069529Y-78089813D01*
X80981522Y-78235393D01*
X80930913Y-78397807D01*
X80924500Y-78468386D01*
X80924500Y-78981613D01*
X80930914Y-79052197D01*
X80942261Y-79088610D01*
X80943413Y-79158470D01*
X80906612Y-79217862D01*
X80843543Y-79247930D01*
X80823876Y-79249500D01*
X80157420Y-79249500D01*
X80131649Y-79246792D01*
X80126687Y-79245738D01*
X80122702Y-79244891D01*
X80122696Y-79244890D01*
X79967692Y-79234557D01*
X79964632Y-79234277D01*
X79812406Y-79216518D01*
X79809410Y-79216093D01*
X79716293Y-79200575D01*
X79694740Y-79196983D01*
X79631849Y-79166545D01*
X79609589Y-79139769D01*
X79542712Y-79031344D01*
X79418656Y-78907288D01*
X79325888Y-78850068D01*
X79269336Y-78815187D01*
X79269331Y-78815185D01*
X79263301Y-78813187D01*
X79102797Y-78760001D01*
X79102795Y-78760000D01*
X79000010Y-78749500D01*
X77599998Y-78749500D01*
X77599981Y-78749501D01*
X77497203Y-78760000D01*
X77497200Y-78760001D01*
X77330668Y-78815185D01*
X77330663Y-78815187D01*
X77181342Y-78907289D01*
X77057289Y-79031342D01*
X76965187Y-79180663D01*
X76965185Y-79180668D01*
X76942789Y-79248255D01*
X76910001Y-79347203D01*
X76910001Y-79347204D01*
X76910000Y-79347204D01*
X76899500Y-79449983D01*
X76899500Y-81550001D01*
X76899501Y-81550018D01*
X76910000Y-81652796D01*
X76910001Y-81652799D01*
X76965185Y-81819331D01*
X76965187Y-81819336D01*
X76990411Y-81860231D01*
X77057288Y-81968656D01*
X77181344Y-82092712D01*
X77330666Y-82184814D01*
X77497203Y-82239999D01*
X77599991Y-82250500D01*
X79000008Y-82250499D01*
X79102797Y-82239999D01*
X79269334Y-82184814D01*
X79418656Y-82092712D01*
X79542712Y-81968656D01*
X79609589Y-81860229D01*
X79661535Y-81813506D01*
X79694738Y-81803014D01*
X79809408Y-81783903D01*
X79812362Y-81783485D01*
X79964638Y-81765720D01*
X79967646Y-81765444D01*
X80122703Y-81755108D01*
X80151207Y-81752148D01*
X80163886Y-81750832D01*
X80170294Y-81750500D01*
X80375500Y-81750500D01*
X80442539Y-81770185D01*
X80488294Y-81822989D01*
X80499500Y-81874500D01*
X80499500Y-91134217D01*
X80479815Y-91201256D01*
X80463181Y-91221898D01*
X80098397Y-91586681D01*
X80037074Y-91620166D01*
X79967382Y-91615182D01*
X79960353Y-91612312D01*
X79892728Y-91582255D01*
X79886888Y-91579281D01*
X79878655Y-91574524D01*
X79821039Y-91541235D01*
X79772840Y-91490653D01*
X79765368Y-91472872D01*
X79741221Y-91400002D01*
X79734814Y-91380666D01*
X79642712Y-91231344D01*
X79518656Y-91107288D01*
X79425777Y-91050000D01*
X79369336Y-91015187D01*
X79369331Y-91015185D01*
X79367059Y-91014432D01*
X79202797Y-90960001D01*
X79202795Y-90960000D01*
X79100010Y-90949500D01*
X77699998Y-90949500D01*
X77699981Y-90949501D01*
X77597203Y-90960000D01*
X77597200Y-90960001D01*
X77430668Y-91015185D01*
X77430663Y-91015187D01*
X77281342Y-91107289D01*
X77157289Y-91231342D01*
X77065187Y-91380663D01*
X77065185Y-91380668D01*
X77037349Y-91464670D01*
X77010001Y-91547203D01*
X77010001Y-91547204D01*
X77010000Y-91547204D01*
X76999500Y-91649983D01*
X76999500Y-93750001D01*
X76999501Y-93750018D01*
X77010000Y-93852796D01*
X77010001Y-93852799D01*
X77065185Y-94019331D01*
X77065187Y-94019336D01*
X77157289Y-94168657D01*
X77276451Y-94287819D01*
X77309936Y-94349142D01*
X77304952Y-94418834D01*
X77263080Y-94474767D01*
X77197616Y-94499184D01*
X77188770Y-94499500D01*
X74510523Y-94499500D01*
X74443484Y-94479815D01*
X74397729Y-94427011D01*
X74387785Y-94357853D01*
X74416810Y-94294297D01*
X74422842Y-94287819D01*
X74442315Y-94268345D01*
X74534356Y-94119124D01*
X74534358Y-94119119D01*
X74589505Y-93952697D01*
X74589506Y-93952690D01*
X74599999Y-93849986D01*
X74600000Y-93849973D01*
X74600000Y-93100000D01*
X71800001Y-93100000D01*
X71800001Y-93849986D01*
X71810494Y-93952697D01*
X71865641Y-94119119D01*
X71865643Y-94119124D01*
X71957684Y-94268345D01*
X71977158Y-94287819D01*
X72010643Y-94349142D01*
X72005659Y-94418834D01*
X71963787Y-94474767D01*
X71898323Y-94499184D01*
X71889477Y-94499500D01*
X57324500Y-94499500D01*
X57257461Y-94479815D01*
X57211706Y-94427011D01*
X57200500Y-94375500D01*
X57200500Y-93900000D01*
X57800000Y-93900000D01*
X67800000Y-93800000D01*
X67840625Y-92500000D01*
X71800000Y-92500000D01*
X72900000Y-92500000D01*
X72900000Y-91050000D01*
X73500000Y-91050000D01*
X73500000Y-92500000D01*
X74599999Y-92500000D01*
X74599999Y-91750028D01*
X74599998Y-91750013D01*
X74589505Y-91647302D01*
X74534358Y-91480880D01*
X74534356Y-91480875D01*
X74442315Y-91331654D01*
X74318345Y-91207684D01*
X74169124Y-91115643D01*
X74169119Y-91115641D01*
X74002697Y-91060494D01*
X74002690Y-91060493D01*
X73899986Y-91050000D01*
X73500000Y-91050000D01*
X72900000Y-91050000D01*
X72500028Y-91050000D01*
X72500012Y-91050001D01*
X72397302Y-91060494D01*
X72230880Y-91115641D01*
X72230875Y-91115643D01*
X72081654Y-91207684D01*
X71957684Y-91331654D01*
X71865643Y-91480875D01*
X71865641Y-91480880D01*
X71810494Y-91647302D01*
X71810493Y-91647309D01*
X71800000Y-91750013D01*
X71800000Y-92500000D01*
X67840625Y-92500000D01*
X67886579Y-91029442D01*
X67908347Y-90963051D01*
X67922826Y-90945646D01*
X68232156Y-90636316D01*
X68293478Y-90602834D01*
X68319836Y-90600000D01*
X80100000Y-90600000D01*
X80100000Y-83100000D01*
X79654266Y-83100000D01*
X79587227Y-83080315D01*
X79548729Y-83041099D01*
X79542712Y-83031344D01*
X79418657Y-82907289D01*
X79418656Y-82907288D01*
X79284963Y-82824826D01*
X79269336Y-82815187D01*
X79269331Y-82815185D01*
X79267862Y-82814698D01*
X79102797Y-82760001D01*
X79102795Y-82760000D01*
X79000010Y-82749500D01*
X77599998Y-82749500D01*
X77599981Y-82749501D01*
X77497203Y-82760000D01*
X77497200Y-82760001D01*
X77330668Y-82815185D01*
X77330663Y-82815187D01*
X77181342Y-82907289D01*
X77057287Y-83031344D01*
X77051271Y-83041099D01*
X76999323Y-83087822D01*
X76945734Y-83100000D01*
X74454266Y-83100000D01*
X74387227Y-83080315D01*
X74348729Y-83041099D01*
X74342712Y-83031344D01*
X74218657Y-82907289D01*
X74218656Y-82907288D01*
X74084963Y-82824826D01*
X74069336Y-82815187D01*
X74069331Y-82815185D01*
X74067862Y-82814698D01*
X73902797Y-82760001D01*
X73902795Y-82760000D01*
X73800010Y-82749500D01*
X72399998Y-82749500D01*
X72399981Y-82749501D01*
X72297203Y-82760000D01*
X72297200Y-82760001D01*
X72130668Y-82815185D01*
X72130663Y-82815187D01*
X71981342Y-82907289D01*
X71857287Y-83031344D01*
X71851271Y-83041099D01*
X71799323Y-83087822D01*
X71745734Y-83100000D01*
X57900000Y-83100000D01*
X57800000Y-93900000D01*
X57200500Y-93900000D01*
X57200500Y-79980004D01*
X60694953Y-79980004D01*
X60715113Y-80249026D01*
X60715113Y-80249028D01*
X60775142Y-80512033D01*
X60775148Y-80512052D01*
X60873709Y-80763181D01*
X60873708Y-80763181D01*
X61008602Y-80996822D01*
X61030922Y-81024811D01*
X61030923Y-81024811D01*
X61880111Y-80175623D01*
X61907188Y-80258956D01*
X61995186Y-80397619D01*
X62114903Y-80510040D01*
X62258817Y-80589158D01*
X62303605Y-80600657D01*
X61456894Y-81447368D01*
X61597474Y-81543214D01*
X61597485Y-81543221D01*
X61840539Y-81660269D01*
X61840537Y-81660269D01*
X62098337Y-81739790D01*
X62098343Y-81739792D01*
X62365101Y-81779999D01*
X62365110Y-81780000D01*
X62634890Y-81780000D01*
X62634898Y-81779999D01*
X62901656Y-81739792D01*
X62901662Y-81739790D01*
X63159461Y-81660269D01*
X63402516Y-81543221D01*
X63402517Y-81543220D01*
X63543105Y-81447369D01*
X62696879Y-80601142D01*
X62815629Y-80554126D01*
X62948492Y-80457595D01*
X63053175Y-80331055D01*
X63123100Y-80182457D01*
X63123680Y-80179415D01*
X63969076Y-81024811D01*
X63991399Y-80996820D01*
X64105033Y-80800000D01*
X71700001Y-80800000D01*
X71700001Y-81549986D01*
X71710494Y-81652697D01*
X71765641Y-81819119D01*
X71765643Y-81819124D01*
X71857684Y-81968345D01*
X71981654Y-82092315D01*
X72130875Y-82184356D01*
X72130880Y-82184358D01*
X72297302Y-82239505D01*
X72297309Y-82239506D01*
X72400019Y-82249999D01*
X72799999Y-82249999D01*
X72800000Y-82249998D01*
X72800000Y-80800000D01*
X73400000Y-80800000D01*
X73400000Y-82249999D01*
X73799972Y-82249999D01*
X73799986Y-82249998D01*
X73902697Y-82239505D01*
X74069119Y-82184358D01*
X74069124Y-82184356D01*
X74218345Y-82092315D01*
X74342315Y-81968345D01*
X74434356Y-81819124D01*
X74434358Y-81819119D01*
X74489505Y-81652697D01*
X74489506Y-81652690D01*
X74499999Y-81549986D01*
X74500000Y-81549973D01*
X74500000Y-80800000D01*
X73400000Y-80800000D01*
X72800000Y-80800000D01*
X71700001Y-80800000D01*
X64105033Y-80800000D01*
X64126290Y-80763181D01*
X64224851Y-80512052D01*
X64224857Y-80512033D01*
X64284886Y-80249028D01*
X64284886Y-80249026D01*
X64288560Y-80200000D01*
X71700000Y-80200000D01*
X72800000Y-80200000D01*
X72800000Y-78750000D01*
X73400000Y-78750000D01*
X73400000Y-80200000D01*
X74499999Y-80200000D01*
X74499999Y-79450028D01*
X74499998Y-79450013D01*
X74489505Y-79347302D01*
X74434358Y-79180880D01*
X74434356Y-79180875D01*
X74342315Y-79031654D01*
X74218345Y-78907684D01*
X74069124Y-78815643D01*
X74069119Y-78815641D01*
X73902697Y-78760494D01*
X73902690Y-78760493D01*
X73799986Y-78750000D01*
X73400000Y-78750000D01*
X72800000Y-78750000D01*
X72400028Y-78750000D01*
X72400012Y-78750001D01*
X72297302Y-78760494D01*
X72130880Y-78815641D01*
X72130875Y-78815643D01*
X71981654Y-78907684D01*
X71857684Y-79031654D01*
X71765643Y-79180875D01*
X71765641Y-79180880D01*
X71710494Y-79347302D01*
X71710493Y-79347309D01*
X71700000Y-79450013D01*
X71700000Y-80200000D01*
X64288560Y-80200000D01*
X64305047Y-79980004D01*
X64305047Y-79979995D01*
X64284886Y-79710973D01*
X64284886Y-79710971D01*
X64224857Y-79447966D01*
X64224851Y-79447947D01*
X64126290Y-79196818D01*
X64126291Y-79196818D01*
X63991400Y-78963182D01*
X63991393Y-78963171D01*
X63969076Y-78935188D01*
X63969075Y-78935187D01*
X63119887Y-79784375D01*
X63092812Y-79701044D01*
X63004814Y-79562381D01*
X62885097Y-79449960D01*
X62741183Y-79370842D01*
X62696392Y-79359341D01*
X63543105Y-78512629D01*
X63402524Y-78416783D01*
X63402516Y-78416778D01*
X63159460Y-78299730D01*
X63159462Y-78299730D01*
X62901662Y-78220209D01*
X62901656Y-78220207D01*
X62634898Y-78180000D01*
X62365101Y-78180000D01*
X62098343Y-78220207D01*
X62098337Y-78220209D01*
X61840538Y-78299730D01*
X61597485Y-78416778D01*
X61597476Y-78416783D01*
X61456894Y-78512630D01*
X62303120Y-79358857D01*
X62184371Y-79405874D01*
X62051508Y-79502405D01*
X61946825Y-79628945D01*
X61876900Y-79777543D01*
X61876319Y-79780584D01*
X61030923Y-78935188D01*
X61008600Y-78963180D01*
X60873709Y-79196818D01*
X60775148Y-79447947D01*
X60775142Y-79447966D01*
X60715113Y-79710971D01*
X60715113Y-79710973D01*
X60694953Y-79979995D01*
X60694953Y-79980004D01*
X57200500Y-79980004D01*
X57200500Y-76476000D01*
X60094500Y-76476000D01*
X60094501Y-76476009D01*
X60106052Y-76583450D01*
X60106054Y-76583462D01*
X60117260Y-76634972D01*
X60151383Y-76737497D01*
X60151386Y-76737503D01*
X60229171Y-76858537D01*
X60229179Y-76858548D01*
X60274923Y-76911340D01*
X60274926Y-76911343D01*
X60274930Y-76911347D01*
X60383664Y-77005567D01*
X60383667Y-77005568D01*
X60383668Y-77005569D01*
X60514536Y-77065336D01*
X60514537Y-77065336D01*
X60514541Y-77065338D01*
X60581580Y-77085023D01*
X60581584Y-77085024D01*
X60724000Y-77105500D01*
X60724003Y-77105500D01*
X78382346Y-77105500D01*
X78382354Y-77105500D01*
X78476782Y-77096602D01*
X78522294Y-77087948D01*
X78613398Y-77061567D01*
X78738359Y-76990250D01*
X78793495Y-76947334D01*
X78793498Y-76947331D01*
X78893304Y-76843696D01*
X78929153Y-76775000D01*
X80928946Y-76775000D01*
X81600000Y-76775000D01*
X81600000Y-76175000D01*
X82200000Y-76175000D01*
X82200000Y-76775000D01*
X82871054Y-76775000D01*
X82868590Y-76747893D01*
X82818019Y-76585604D01*
X82730072Y-76440122D01*
X82609877Y-76319927D01*
X82464395Y-76231980D01*
X82464396Y-76231980D01*
X82302105Y-76181409D01*
X82302106Y-76181409D01*
X82231572Y-76175000D01*
X82200000Y-76175000D01*
X81600000Y-76175000D01*
X81600000Y-76174999D01*
X81568429Y-76175000D01*
X81568422Y-76175001D01*
X81497898Y-76181407D01*
X81497892Y-76181409D01*
X81335603Y-76231981D01*
X81190122Y-76319927D01*
X81069927Y-76440122D01*
X80981980Y-76585604D01*
X80931409Y-76747893D01*
X80928946Y-76775000D01*
X78929153Y-76775000D01*
X78959870Y-76716140D01*
X78983051Y-76650227D01*
X79010984Y-76509086D01*
X79073411Y-75322983D01*
X79096592Y-75257070D01*
X79151728Y-75214154D01*
X79197240Y-75205500D01*
X81978229Y-75205500D01*
X81978234Y-75205500D01*
X82081192Y-75194904D01*
X82130645Y-75184616D01*
X82229289Y-75153271D01*
X82289012Y-75116404D01*
X82356395Y-75097942D01*
X82404928Y-75108799D01*
X82526241Y-75163265D01*
X82593405Y-75182520D01*
X82735943Y-75202085D01*
X82735957Y-75202084D01*
X82735959Y-75202085D01*
X99079451Y-75097654D01*
X113380022Y-75006277D01*
X113485821Y-74994389D01*
X113488323Y-74993836D01*
X113536532Y-74983188D01*
X113536534Y-74983187D01*
X113536540Y-74983186D01*
X113637504Y-74949403D01*
X113758543Y-74871615D01*
X113811347Y-74825860D01*
X113905567Y-74717126D01*
X113965338Y-74586249D01*
X113985023Y-74519210D01*
X113985024Y-74519206D01*
X114005500Y-74376790D01*
X114005500Y-71124000D01*
X113993947Y-71016544D01*
X113982741Y-70965033D01*
X113982637Y-70964722D01*
X113948616Y-70862502D01*
X113948613Y-70862496D01*
X113923708Y-70823744D01*
X113870825Y-70741457D01*
X113849791Y-70717182D01*
X113825076Y-70688659D01*
X113825072Y-70688656D01*
X113825070Y-70688653D01*
X113716336Y-70594433D01*
X113716333Y-70594431D01*
X113716331Y-70594430D01*
X113585463Y-70534663D01*
X113545613Y-70522961D01*
X113518420Y-70514977D01*
X113518416Y-70514976D01*
X113376000Y-70494500D01*
X108555733Y-70494500D01*
X108443710Y-70507069D01*
X108443706Y-70507069D01*
X108443705Y-70507070D01*
X108390115Y-70519249D01*
X108283683Y-70556321D01*
X108283681Y-70556322D01*
X108164099Y-70636335D01*
X108112153Y-70683056D01*
X108112147Y-70683062D01*
X108109198Y-70686140D01*
X108107814Y-70684814D01*
X108056238Y-70719315D01*
X108019124Y-70725000D01*
X107076130Y-70725000D01*
X107027514Y-70713513D01*
X107027293Y-70714142D01*
X107021446Y-70712079D01*
X107020631Y-70711886D01*
X107019985Y-70711563D01*
X107019981Y-70711562D01*
X107019975Y-70711559D01*
X106879404Y-70680981D01*
X106879393Y-70680980D01*
X106856162Y-70679318D01*
X106809703Y-70675996D01*
X106809701Y-70675996D01*
X106666196Y-70686259D01*
X106583285Y-70717182D01*
X106539954Y-70725000D01*
X105582422Y-70725000D01*
X105515383Y-70705315D01*
X105493936Y-70687869D01*
X105472041Y-70665566D01*
X105472027Y-70665553D01*
X105384605Y-70594434D01*
X105384601Y-70594432D01*
X105253727Y-70534662D01*
X105186690Y-70514978D01*
X105186692Y-70514978D01*
X105186687Y-70514977D01*
X105186683Y-70514976D01*
X105044267Y-70494500D01*
X105044265Y-70494500D01*
X101300237Y-70494500D01*
X101233198Y-70474815D01*
X101187443Y-70422011D01*
X101176377Y-70376398D01*
X101164406Y-70125000D01*
X105027726Y-70125000D01*
X105700000Y-70125000D01*
X106300000Y-70125000D01*
X107300000Y-70125000D01*
X107300000Y-69475173D01*
X107299999Y-69475172D01*
X107900000Y-69475172D01*
X107900000Y-70125000D01*
X108572273Y-70125000D01*
X108572273Y-70124999D01*
X108564855Y-70052392D01*
X108511547Y-69891518D01*
X108511542Y-69891507D01*
X108422575Y-69747271D01*
X108422572Y-69747267D01*
X108302732Y-69627427D01*
X108302728Y-69627424D01*
X108158492Y-69538457D01*
X108158481Y-69538452D01*
X107997606Y-69485144D01*
X107900000Y-69475172D01*
X107299999Y-69475172D01*
X107202392Y-69485144D01*
X107041518Y-69538452D01*
X107041507Y-69538457D01*
X106897271Y-69627424D01*
X106897267Y-69627427D01*
X106887681Y-69637014D01*
X106826358Y-69670499D01*
X106756666Y-69665515D01*
X106712319Y-69637014D01*
X106702732Y-69627427D01*
X106702728Y-69627424D01*
X106558492Y-69538457D01*
X106558481Y-69538452D01*
X106397606Y-69485144D01*
X106300000Y-69475172D01*
X106300000Y-70125000D01*
X105700000Y-70125000D01*
X105700000Y-69475173D01*
X105699999Y-69475172D01*
X105602392Y-69485144D01*
X105441518Y-69538452D01*
X105441507Y-69538457D01*
X105297271Y-69627424D01*
X105297267Y-69627427D01*
X105177427Y-69747267D01*
X105177424Y-69747271D01*
X105088457Y-69891507D01*
X105088451Y-69891520D01*
X105035143Y-70052395D01*
X105027726Y-70125000D01*
X101164406Y-70125000D01*
X101160948Y-70052392D01*
X101110644Y-68996001D01*
X101095980Y-68896872D01*
X101095979Y-68896868D01*
X101095978Y-68896862D01*
X101084059Y-68849424D01*
X101084056Y-68849416D01*
X101050130Y-68755138D01*
X100970379Y-68635382D01*
X100923769Y-68583331D01*
X100813517Y-68490900D01*
X100681683Y-68433270D01*
X100614332Y-68414680D01*
X100614325Y-68414678D01*
X100578642Y-68410140D01*
X100471597Y-68396526D01*
X100471594Y-68396526D01*
X91643582Y-68540461D01*
X82815566Y-68684396D01*
X82690156Y-68702317D01*
X82630696Y-68718618D01*
X82630684Y-68718623D01*
X82513701Y-68767146D01*
X82506503Y-68771340D01*
X82505674Y-68769917D01*
X82449743Y-68791991D01*
X82385664Y-68780646D01*
X82290469Y-68735743D01*
X82274080Y-68730710D01*
X82224372Y-68715444D01*
X82223810Y-68715264D01*
X82223676Y-68715231D01*
X82081523Y-68692999D01*
X81384683Y-68684396D01*
X74231767Y-68596088D01*
X74231766Y-68596088D01*
X74231764Y-68596088D01*
X74121109Y-68606951D01*
X74068066Y-68618149D01*
X73962497Y-68652926D01*
X73962492Y-68652928D01*
X73841462Y-68730710D01*
X73841451Y-68730719D01*
X73788659Y-68776463D01*
X73694433Y-68885204D01*
X73694430Y-68885208D01*
X73634663Y-69016076D01*
X73614978Y-69083116D01*
X73614976Y-69083124D01*
X73594500Y-69225541D01*
X73594500Y-72575144D01*
X73574815Y-72642183D01*
X73522011Y-72687938D01*
X73471418Y-72699141D01*
X70885304Y-72718297D01*
X70818121Y-72699109D01*
X70771976Y-72646646D01*
X70761521Y-72577563D01*
X70778270Y-72530149D01*
X70818018Y-72464398D01*
X70818019Y-72464396D01*
X70868590Y-72302106D01*
X70871054Y-72275000D01*
X68928946Y-72275000D01*
X68931409Y-72302106D01*
X68981980Y-72464396D01*
X69030507Y-72544669D01*
X69048343Y-72612224D01*
X69026825Y-72678698D01*
X68972785Y-72722985D01*
X68925309Y-72732816D01*
X60719327Y-72793602D01*
X60613782Y-72805544D01*
X60563206Y-72816744D01*
X60563188Y-72816749D01*
X60462495Y-72850472D01*
X60462492Y-72850473D01*
X60341462Y-72928255D01*
X60341451Y-72928264D01*
X60288659Y-72974008D01*
X60194433Y-73082749D01*
X60194430Y-73082753D01*
X60134663Y-73213621D01*
X60134662Y-73213626D01*
X60114977Y-73280665D01*
X60114976Y-73280669D01*
X60094500Y-73423085D01*
X60094500Y-76476000D01*
X57200500Y-76476000D01*
X57200500Y-71675000D01*
X68928946Y-71675000D01*
X69600000Y-71675000D01*
X69600000Y-71075000D01*
X70200000Y-71075000D01*
X70200000Y-71675000D01*
X70871054Y-71675000D01*
X70868590Y-71647893D01*
X70818019Y-71485604D01*
X70730072Y-71340122D01*
X70609877Y-71219927D01*
X70464395Y-71131980D01*
X70464396Y-71131980D01*
X70302105Y-71081409D01*
X70302106Y-71081409D01*
X70231572Y-71075000D01*
X70200000Y-71075000D01*
X69600000Y-71075000D01*
X69600000Y-71074999D01*
X69568429Y-71075000D01*
X69568422Y-71075001D01*
X69497898Y-71081407D01*
X69497892Y-71081409D01*
X69335603Y-71131981D01*
X69190122Y-71219927D01*
X69069927Y-71340122D01*
X68981980Y-71485604D01*
X68931409Y-71647893D01*
X68928946Y-71675000D01*
X57200500Y-71675000D01*
X57200500Y-63567763D01*
X58545787Y-63567763D01*
X58575413Y-63837013D01*
X58575415Y-63837024D01*
X58624735Y-64025675D01*
X58643928Y-64099088D01*
X58749870Y-64348390D01*
X58834396Y-64486890D01*
X58890979Y-64579605D01*
X58890986Y-64579615D01*
X59064253Y-64787819D01*
X59064259Y-64787824D01*
X59265998Y-64968582D01*
X59491910Y-65118044D01*
X59737176Y-65233020D01*
X59737183Y-65233022D01*
X59737185Y-65233023D01*
X59996557Y-65311057D01*
X59996564Y-65311058D01*
X59996569Y-65311060D01*
X60264561Y-65350500D01*
X60264566Y-65350500D01*
X60467629Y-65350500D01*
X60467631Y-65350500D01*
X60467636Y-65350499D01*
X60467648Y-65350499D01*
X60505191Y-65347750D01*
X60670156Y-65335677D01*
X60818208Y-65302697D01*
X60934546Y-65276782D01*
X60934548Y-65276781D01*
X60934553Y-65276780D01*
X61187558Y-65180014D01*
X61423777Y-65047441D01*
X61638177Y-64881888D01*
X61826186Y-64686881D01*
X61983799Y-64466579D01*
X62057787Y-64322669D01*
X62107649Y-64225690D01*
X62107651Y-64225684D01*
X62107656Y-64225675D01*
X62195118Y-63969305D01*
X62244319Y-63702933D01*
X62251735Y-63500000D01*
X74850001Y-63500000D01*
X74850001Y-65199986D01*
X74860494Y-65302697D01*
X74915641Y-65469119D01*
X74915643Y-65469124D01*
X75007684Y-65618345D01*
X75131654Y-65742315D01*
X75280875Y-65834356D01*
X75280880Y-65834358D01*
X75447302Y-65889505D01*
X75447309Y-65889506D01*
X75550019Y-65899999D01*
X76299999Y-65899999D01*
X76300000Y-65899998D01*
X76300000Y-63500000D01*
X76900000Y-63500000D01*
X76900000Y-65899999D01*
X77649972Y-65899999D01*
X77649986Y-65899998D01*
X77752697Y-65889505D01*
X77919119Y-65834358D01*
X77919124Y-65834356D01*
X78068345Y-65742315D01*
X78192315Y-65618345D01*
X78284356Y-65469124D01*
X78284358Y-65469119D01*
X78339505Y-65302697D01*
X78339506Y-65302690D01*
X78349999Y-65199986D01*
X78350000Y-65199973D01*
X78350000Y-63500000D01*
X86050001Y-63500000D01*
X86050001Y-65199986D01*
X86060494Y-65302697D01*
X86115641Y-65469119D01*
X86115643Y-65469124D01*
X86207684Y-65618345D01*
X86331654Y-65742315D01*
X86480875Y-65834356D01*
X86480880Y-65834358D01*
X86647302Y-65889505D01*
X86647309Y-65889506D01*
X86750019Y-65899999D01*
X87499999Y-65899999D01*
X87500000Y-65899998D01*
X87500000Y-63500000D01*
X88100000Y-63500000D01*
X88100000Y-65899999D01*
X88849972Y-65899999D01*
X88849986Y-65899998D01*
X88952697Y-65889505D01*
X89119119Y-65834358D01*
X89119124Y-65834356D01*
X89268345Y-65742315D01*
X89392315Y-65618345D01*
X89484356Y-65469124D01*
X89484358Y-65469119D01*
X89539505Y-65302697D01*
X89539506Y-65302690D01*
X89549999Y-65199986D01*
X89550000Y-65199973D01*
X89550000Y-63500000D01*
X97250001Y-63500000D01*
X97250001Y-65199986D01*
X97260494Y-65302697D01*
X97315641Y-65469119D01*
X97315643Y-65469124D01*
X97407684Y-65618345D01*
X97531654Y-65742315D01*
X97680875Y-65834356D01*
X97680880Y-65834358D01*
X97847302Y-65889505D01*
X97847309Y-65889506D01*
X97950019Y-65899999D01*
X98699999Y-65899999D01*
X98700000Y-65899998D01*
X98700000Y-63500000D01*
X99300000Y-63500000D01*
X99300000Y-65899999D01*
X100049972Y-65899999D01*
X100049986Y-65899998D01*
X100152697Y-65889505D01*
X100319119Y-65834358D01*
X100319124Y-65834356D01*
X100468345Y-65742315D01*
X100592315Y-65618345D01*
X100684356Y-65469124D01*
X100684358Y-65469119D01*
X100739505Y-65302697D01*
X100739506Y-65302690D01*
X100749999Y-65199986D01*
X100750000Y-65199973D01*
X100750000Y-63500000D01*
X99300000Y-63500000D01*
X98700000Y-63500000D01*
X97250001Y-63500000D01*
X89550000Y-63500000D01*
X88100000Y-63500000D01*
X87500000Y-63500000D01*
X86050001Y-63500000D01*
X78350000Y-63500000D01*
X76900000Y-63500000D01*
X76300000Y-63500000D01*
X74850001Y-63500000D01*
X62251735Y-63500000D01*
X62254212Y-63432235D01*
X62247118Y-63367763D01*
X112345787Y-63367763D01*
X112375413Y-63637013D01*
X112375415Y-63637024D01*
X112427702Y-63837024D01*
X112443928Y-63899088D01*
X112549870Y-64148390D01*
X112597035Y-64225672D01*
X112690979Y-64379605D01*
X112690986Y-64379615D01*
X112864253Y-64587819D01*
X112864259Y-64587824D01*
X113065998Y-64768582D01*
X113291910Y-64918044D01*
X113537176Y-65033020D01*
X113537183Y-65033022D01*
X113537185Y-65033023D01*
X113796557Y-65111057D01*
X113796564Y-65111058D01*
X113796569Y-65111060D01*
X114064561Y-65150500D01*
X114064566Y-65150500D01*
X114267629Y-65150500D01*
X114267631Y-65150500D01*
X114267636Y-65150499D01*
X114267648Y-65150499D01*
X114305191Y-65147750D01*
X114470156Y-65135677D01*
X114582758Y-65110593D01*
X114734546Y-65076782D01*
X114734548Y-65076781D01*
X114734553Y-65076780D01*
X114987558Y-64980014D01*
X115223777Y-64847441D01*
X115438177Y-64681888D01*
X115626186Y-64486881D01*
X115783799Y-64266579D01*
X115869915Y-64099082D01*
X115907649Y-64025690D01*
X115907651Y-64025684D01*
X115907656Y-64025675D01*
X115995118Y-63769305D01*
X116044319Y-63502933D01*
X116054212Y-63232235D01*
X116024586Y-62962982D01*
X115956072Y-62700912D01*
X115850130Y-62451610D01*
X115709018Y-62220390D01*
X115619747Y-62113119D01*
X115535746Y-62012180D01*
X115535740Y-62012175D01*
X115334002Y-61831418D01*
X115108092Y-61681957D01*
X115108090Y-61681956D01*
X114862824Y-61566980D01*
X114862819Y-61566978D01*
X114862814Y-61566976D01*
X114603442Y-61488942D01*
X114603428Y-61488939D01*
X114487791Y-61471921D01*
X114335439Y-61449500D01*
X114132369Y-61449500D01*
X114132351Y-61449500D01*
X113929844Y-61464323D01*
X113929831Y-61464325D01*
X113665453Y-61523217D01*
X113665446Y-61523220D01*
X113412439Y-61619987D01*
X113176226Y-61752557D01*
X113176224Y-61752558D01*
X113176223Y-61752559D01*
X113157547Y-61766980D01*
X112961822Y-61918112D01*
X112773822Y-62113109D01*
X112773816Y-62113116D01*
X112616202Y-62333419D01*
X112616199Y-62333424D01*
X112492350Y-62574309D01*
X112492343Y-62574327D01*
X112404884Y-62830685D01*
X112404882Y-62830695D01*
X112367941Y-63030695D01*
X112355681Y-63097068D01*
X112355680Y-63097075D01*
X112345787Y-63367763D01*
X62247118Y-63367763D01*
X62224586Y-63162982D01*
X62156072Y-62900912D01*
X62050130Y-62651610D01*
X61909018Y-62420390D01*
X61836645Y-62333424D01*
X61735746Y-62212180D01*
X61735740Y-62212175D01*
X61534002Y-62031418D01*
X61308092Y-61881957D01*
X61308090Y-61881956D01*
X61062824Y-61766980D01*
X61062819Y-61766978D01*
X61062814Y-61766976D01*
X60803442Y-61688942D01*
X60803428Y-61688939D01*
X60687791Y-61671921D01*
X60535439Y-61649500D01*
X60332369Y-61649500D01*
X60332351Y-61649500D01*
X60129844Y-61664323D01*
X60129831Y-61664325D01*
X59865453Y-61723217D01*
X59865446Y-61723220D01*
X59612439Y-61819987D01*
X59376226Y-61952557D01*
X59161822Y-62118112D01*
X58973822Y-62313109D01*
X58973816Y-62313116D01*
X58816202Y-62533419D01*
X58816199Y-62533424D01*
X58692350Y-62774309D01*
X58692343Y-62774327D01*
X58604884Y-63030685D01*
X58604881Y-63030699D01*
X58555681Y-63297068D01*
X58555680Y-63297075D01*
X58545787Y-63567763D01*
X57200500Y-63567763D01*
X57200500Y-60424500D01*
X57220185Y-60357461D01*
X57272989Y-60311706D01*
X57324500Y-60300500D01*
X75312600Y-60300500D01*
X75379639Y-60320185D01*
G37*
%TD.AperFunction*%
%TA.AperFunction,Conductor*%
G36*
X110258730Y-81257685D02*
G01*
X110279372Y-81274319D01*
X110398129Y-81393076D01*
X110398140Y-81393085D01*
X110398455Y-81393271D01*
X110398650Y-81393480D01*
X110404298Y-81397861D01*
X110403591Y-81398772D01*
X110446136Y-81444343D01*
X110458637Y-81513085D01*
X110431988Y-81577673D01*
X110404078Y-81601856D01*
X110404298Y-81602139D01*
X110399092Y-81606176D01*
X110398455Y-81606729D01*
X110398140Y-81606914D01*
X110398129Y-81606923D01*
X110281923Y-81723129D01*
X110281917Y-81723137D01*
X110198255Y-81864603D01*
X110198254Y-81864606D01*
X110152402Y-82022426D01*
X110152401Y-82022432D01*
X110149500Y-82059298D01*
X110149500Y-82255383D01*
X110138040Y-82307447D01*
X110115438Y-82356302D01*
X110115437Y-82356305D01*
X110074500Y-82542283D01*
X110074499Y-82542284D01*
X110074500Y-86504355D01*
X110071484Y-86528683D01*
X110071900Y-86528757D01*
X110071129Y-86533107D01*
X110057306Y-86665797D01*
X110042480Y-86803672D01*
X110027696Y-86936736D01*
X110012926Y-87065228D01*
X109998970Y-87182464D01*
X109997009Y-87282191D01*
X109997375Y-87286806D01*
X109998637Y-87301000D01*
X109998408Y-87301020D01*
X109999500Y-87314239D01*
X109999500Y-87794964D01*
X109999482Y-87796467D01*
X109998971Y-87817542D01*
X110012938Y-87934879D01*
X110027689Y-88063202D01*
X110042478Y-88196295D01*
X110042498Y-88196483D01*
X110042502Y-88196514D01*
X110057304Y-88334188D01*
X110057323Y-88334360D01*
X110057643Y-88337439D01*
X110057644Y-88337443D01*
X110071130Y-88466896D01*
X110073965Y-88488344D01*
X110074500Y-88496476D01*
X110074500Y-88735993D01*
X110054815Y-88803032D01*
X110038181Y-88823674D01*
X109767872Y-89093982D01*
X109764170Y-89097396D01*
X109720641Y-89134370D01*
X109670695Y-89200073D01*
X109669661Y-89201396D01*
X109617970Y-89265701D01*
X109617968Y-89265704D01*
X109617879Y-89265885D01*
X109605529Y-89285796D01*
X109605400Y-89285964D01*
X109605400Y-89285965D01*
X109570741Y-89360878D01*
X109570016Y-89362390D01*
X109533358Y-89436307D01*
X109533354Y-89436319D01*
X109533309Y-89436503D01*
X109525527Y-89458609D01*
X109525441Y-89458794D01*
X109525435Y-89458810D01*
X109507692Y-89539414D01*
X109507310Y-89541046D01*
X109487399Y-89621111D01*
X109487394Y-89621310D01*
X109484545Y-89644575D01*
X109484500Y-89644778D01*
X109484500Y-89727302D01*
X109484477Y-89728981D01*
X109482243Y-89811472D01*
X109482278Y-89811655D01*
X109484500Y-89835023D01*
X109484500Y-89917199D01*
X109482711Y-89938188D01*
X109479378Y-89957590D01*
X109479378Y-89957596D01*
X109472355Y-90214987D01*
X109471844Y-90221416D01*
X109454296Y-90354325D01*
X109450262Y-90373295D01*
X109419924Y-90475766D01*
X109417747Y-90481912D01*
X109347340Y-90651747D01*
X109234734Y-90914702D01*
X109234723Y-90914729D01*
X109219090Y-90958136D01*
X109216949Y-90963328D01*
X109208723Y-90980970D01*
X109206872Y-90986058D01*
X109205024Y-90985385D01*
X109173143Y-91037681D01*
X109110293Y-91068205D01*
X109040918Y-91059904D01*
X108987044Y-91015414D01*
X108973569Y-90985904D01*
X108972658Y-90986236D01*
X108970801Y-90981135D01*
X108880588Y-90787672D01*
X108880586Y-90787667D01*
X108870704Y-90773557D01*
X108244263Y-91399999D01*
X108244263Y-91400000D01*
X108870705Y-92026441D01*
X108880582Y-92012336D01*
X108880586Y-92012329D01*
X108970802Y-91818859D01*
X108972658Y-91813764D01*
X108974567Y-91814458D01*
X109006291Y-91762362D01*
X109069125Y-91731806D01*
X109138504Y-91740071D01*
X109192401Y-91784533D01*
X109205989Y-91814256D01*
X109206870Y-91813936D01*
X109208722Y-91819022D01*
X109208724Y-91819030D01*
X109246974Y-91901056D01*
X109298977Y-92012578D01*
X109421472Y-92187521D01*
X109572478Y-92338527D01*
X109572481Y-92338529D01*
X109747419Y-92461021D01*
X109747421Y-92461022D01*
X109747420Y-92461022D01*
X109811936Y-92491106D01*
X109940970Y-92551276D01*
X110147253Y-92606549D01*
X110299215Y-92619843D01*
X110359998Y-92625162D01*
X110360000Y-92625162D01*
X110360002Y-92625162D01*
X110413186Y-92620508D01*
X110572747Y-92606549D01*
X110779030Y-92551276D01*
X110972581Y-92461021D01*
X111147519Y-92338529D01*
X111298529Y-92187519D01*
X111421021Y-92012581D01*
X111511276Y-91819030D01*
X111511280Y-91819013D01*
X111513130Y-91813936D01*
X111515253Y-91814709D01*
X111546576Y-91763305D01*
X111609419Y-91732766D01*
X111678796Y-91741050D01*
X111732680Y-91785528D01*
X111745827Y-91814315D01*
X111746870Y-91813936D01*
X111748722Y-91819022D01*
X111748724Y-91819030D01*
X111786974Y-91901056D01*
X111838977Y-92012578D01*
X111961472Y-92187521D01*
X112112478Y-92338527D01*
X112112481Y-92338529D01*
X112287419Y-92461021D01*
X112287421Y-92461022D01*
X112287420Y-92461022D01*
X112351936Y-92491106D01*
X112480970Y-92551276D01*
X112687253Y-92606549D01*
X112839215Y-92619844D01*
X112899998Y-92625162D01*
X112900000Y-92625162D01*
X112900002Y-92625162D01*
X112953186Y-92620508D01*
X113112747Y-92606549D01*
X113319030Y-92551276D01*
X113512581Y-92461021D01*
X113687519Y-92338529D01*
X113838529Y-92187519D01*
X113961021Y-92012581D01*
X114051276Y-91819030D01*
X114106549Y-91612747D01*
X114125162Y-91400000D01*
X114123470Y-91380666D01*
X114106549Y-91187258D01*
X114106549Y-91187253D01*
X114051276Y-90980970D01*
X114048835Y-90975736D01*
X114041498Y-90960001D01*
X114036414Y-90949098D01*
X114029024Y-90928795D01*
X114025220Y-90914599D01*
X113912659Y-90651757D01*
X113842249Y-90481912D01*
X113840076Y-90475776D01*
X113809735Y-90373293D01*
X113805700Y-90354326D01*
X113788153Y-90221431D01*
X113787642Y-90215001D01*
X113785791Y-90147143D01*
X113780622Y-89957599D01*
X113780620Y-89957576D01*
X113780619Y-89957551D01*
X113776693Y-89904603D01*
X113776699Y-89904602D01*
X113775500Y-89890428D01*
X113775500Y-89638098D01*
X113775705Y-89633063D01*
X113779106Y-89591288D01*
X113780339Y-89576152D01*
X113769196Y-89494367D01*
X113768992Y-89492699D01*
X113760073Y-89410685D01*
X113760016Y-89410516D01*
X113754655Y-89387641D01*
X113754631Y-89387462D01*
X113726152Y-89309946D01*
X113725632Y-89308468D01*
X113699267Y-89230220D01*
X113699168Y-89230055D01*
X113689022Y-89208879D01*
X113688961Y-89208715D01*
X113688960Y-89208712D01*
X113644499Y-89139152D01*
X113643657Y-89137795D01*
X113601089Y-89067046D01*
X113600955Y-89066904D01*
X113586504Y-89048419D01*
X113586400Y-89048256D01*
X113528028Y-88989884D01*
X113526894Y-88988718D01*
X113498731Y-88958987D01*
X113470129Y-88928793D01*
X113469970Y-88928685D01*
X113451876Y-88913732D01*
X113411818Y-88873673D01*
X113378333Y-88812350D01*
X113375500Y-88785993D01*
X113375500Y-88495645D01*
X113378515Y-88471319D01*
X113378099Y-88471246D01*
X113378868Y-88466896D01*
X113378871Y-88466887D01*
X113384288Y-88414881D01*
X113392694Y-88334188D01*
X113407498Y-88196514D01*
X113407525Y-88196265D01*
X113422300Y-88063288D01*
X113437049Y-87934976D01*
X113451029Y-87817533D01*
X113452991Y-87717825D01*
X113452628Y-87713247D01*
X113451780Y-87703693D01*
X113451779Y-87703691D01*
X113451362Y-87698983D01*
X113451589Y-87698962D01*
X113450499Y-87685750D01*
X113450499Y-87201662D01*
X113450498Y-87201644D01*
X113440349Y-87102292D01*
X113440348Y-87102289D01*
X113428067Y-87065228D01*
X113387003Y-86941303D01*
X113386999Y-86941297D01*
X113386998Y-86941294D01*
X113297970Y-86796959D01*
X113297967Y-86796955D01*
X113178044Y-86677032D01*
X113178040Y-86677029D01*
X113033705Y-86588001D01*
X113033699Y-86587998D01*
X113033697Y-86587997D01*
X112910911Y-86547310D01*
X112872709Y-86534651D01*
X112773346Y-86524500D01*
X112226662Y-86524500D01*
X112226644Y-86524501D01*
X112127292Y-86534650D01*
X112127288Y-86534651D01*
X111988504Y-86580640D01*
X111918675Y-86583042D01*
X111858633Y-86547310D01*
X111827441Y-86484789D01*
X111825500Y-86462934D01*
X111825500Y-83924500D01*
X111845185Y-83857461D01*
X111897989Y-83811706D01*
X111949500Y-83800500D01*
X112115686Y-83800500D01*
X112115694Y-83800500D01*
X112152569Y-83797598D01*
X112152571Y-83797597D01*
X112152573Y-83797597D01*
X112310392Y-83751746D01*
X112310392Y-83751745D01*
X112310398Y-83751744D01*
X112311870Y-83750873D01*
X112313176Y-83750541D01*
X112317557Y-83748646D01*
X112317862Y-83749352D01*
X112379590Y-83733685D01*
X112432229Y-83749138D01*
X112432443Y-83748646D01*
X112436428Y-83750370D01*
X112438119Y-83750867D01*
X112439602Y-83751744D01*
X112439609Y-83751746D01*
X112597426Y-83797597D01*
X112597429Y-83797597D01*
X112597431Y-83797598D01*
X112634306Y-83800500D01*
X112634314Y-83800500D01*
X113065686Y-83800500D01*
X113065694Y-83800500D01*
X113102569Y-83797598D01*
X113102571Y-83797597D01*
X113102573Y-83797597D01*
X113144191Y-83785505D01*
X113260398Y-83751744D01*
X113401865Y-83668081D01*
X113518081Y-83551865D01*
X113518085Y-83551859D01*
X113527241Y-83536378D01*
X113578311Y-83488695D01*
X113633972Y-83475500D01*
X113772923Y-83475500D01*
X113796918Y-83477844D01*
X113809847Y-83480394D01*
X113901855Y-83485176D01*
X113903169Y-83485245D01*
X113905532Y-83485413D01*
X113999175Y-83493931D01*
X114001511Y-83494189D01*
X114095366Y-83506386D01*
X114097690Y-83506733D01*
X114191948Y-83522656D01*
X114194205Y-83523080D01*
X114272680Y-83539398D01*
X114279543Y-83541242D01*
X114352292Y-83565349D01*
X114451655Y-83575500D01*
X114998344Y-83575499D01*
X114998352Y-83575498D01*
X114998355Y-83575498D01*
X115052760Y-83569940D01*
X115097708Y-83565349D01*
X115258697Y-83512003D01*
X115304419Y-83483800D01*
X115371808Y-83465361D01*
X115438471Y-83486282D01*
X115483242Y-83539924D01*
X115491904Y-83609254D01*
X115487961Y-83626031D01*
X115459687Y-83717305D01*
X115456869Y-83727099D01*
X115454106Y-83737482D01*
X115451669Y-83747461D01*
X115451652Y-83747536D01*
X115417677Y-83900117D01*
X115414205Y-83919104D01*
X115411193Y-83940071D01*
X115411187Y-83940117D01*
X115409158Y-83959547D01*
X115396120Y-84158687D01*
X115395714Y-84166996D01*
X115395557Y-84171806D01*
X115395557Y-84171825D01*
X115395896Y-84181234D01*
X115395596Y-84189951D01*
X115394540Y-84199999D01*
X115394540Y-84200004D01*
X115397408Y-84227303D01*
X115397708Y-84231546D01*
X115398052Y-84241091D01*
X115398977Y-84247578D01*
X115398974Y-84247578D01*
X115400357Y-84255355D01*
X115414326Y-84388256D01*
X115414327Y-84388258D01*
X115414327Y-84388260D01*
X115472818Y-84568277D01*
X115472821Y-84568284D01*
X115567467Y-84732216D01*
X115694128Y-84872887D01*
X115694129Y-84872888D01*
X115847265Y-84984148D01*
X115847270Y-84984151D01*
X116020192Y-85061142D01*
X116020197Y-85061144D01*
X116205354Y-85100500D01*
X116205355Y-85100500D01*
X116394644Y-85100500D01*
X116394646Y-85100500D01*
X116579803Y-85061144D01*
X116752730Y-84984151D01*
X116905871Y-84872888D01*
X117032533Y-84732216D01*
X117127179Y-84568284D01*
X117157568Y-84474754D01*
X117197006Y-84417078D01*
X117261365Y-84389880D01*
X117330211Y-84401795D01*
X117381687Y-84449039D01*
X117399500Y-84513072D01*
X117399500Y-94375500D01*
X117379815Y-94442539D01*
X117327011Y-94488294D01*
X117275500Y-94499500D01*
X79611230Y-94499500D01*
X79544191Y-94479815D01*
X79498436Y-94427011D01*
X79488492Y-94357853D01*
X79517517Y-94294297D01*
X79523549Y-94287819D01*
X79543023Y-94268345D01*
X79642712Y-94168656D01*
X79734814Y-94019334D01*
X79765369Y-93927122D01*
X79805140Y-93869680D01*
X79821027Y-93858768D01*
X79886903Y-93820707D01*
X79892721Y-93817745D01*
X80015049Y-93763375D01*
X80021788Y-93760840D01*
X80136085Y-93725281D01*
X80143624Y-93723445D01*
X80260007Y-93702757D01*
X80261937Y-93702414D01*
X80283639Y-93700500D01*
X80386507Y-93700500D01*
X80388069Y-93700519D01*
X80425283Y-93701462D01*
X80476358Y-93702757D01*
X80476358Y-93702756D01*
X80476363Y-93702757D01*
X80536753Y-93691932D01*
X80541412Y-93691280D01*
X80583607Y-93686988D01*
X80602438Y-93685074D01*
X80635227Y-93674786D01*
X80642840Y-93672918D01*
X80676653Y-93666858D01*
X80733621Y-93644101D01*
X80738053Y-93642524D01*
X80796588Y-93624159D01*
X80826627Y-93607484D01*
X80833708Y-93604122D01*
X80865617Y-93591377D01*
X80916854Y-93557608D01*
X80920851Y-93555187D01*
X80974502Y-93525409D01*
X81000568Y-93503030D01*
X81006843Y-93498300D01*
X81035519Y-93479402D01*
X81078892Y-93436027D01*
X81082350Y-93432823D01*
X81085613Y-93430020D01*
X81128895Y-93392866D01*
X81149928Y-93365691D01*
X81155098Y-93359821D01*
X82064213Y-92450705D01*
X107193557Y-92450705D01*
X107207667Y-92460586D01*
X107207672Y-92460588D01*
X107401135Y-92550801D01*
X107401146Y-92550805D01*
X107607337Y-92606054D01*
X107607345Y-92606055D01*
X107819998Y-92624660D01*
X107820002Y-92624660D01*
X108032654Y-92606055D01*
X108032662Y-92606054D01*
X108238853Y-92550805D01*
X108238859Y-92550802D01*
X108432329Y-92460586D01*
X108432336Y-92460582D01*
X108446441Y-92450705D01*
X108446441Y-92450704D01*
X107820001Y-91824264D01*
X107820000Y-91824264D01*
X107193557Y-92450704D01*
X107193557Y-92450705D01*
X82064213Y-92450705D01*
X82197982Y-92316936D01*
X82198995Y-92315949D01*
X82263053Y-92255059D01*
X82298099Y-92204706D01*
X82300938Y-92200941D01*
X82304612Y-92196435D01*
X82339698Y-92153407D01*
X82355601Y-92122960D01*
X82359674Y-92116239D01*
X82364489Y-92109320D01*
X82379295Y-92088049D01*
X82403492Y-92031660D01*
X82405498Y-92027435D01*
X82433909Y-91973049D01*
X82443360Y-91940015D01*
X82445991Y-91932628D01*
X82459540Y-91901058D01*
X82471893Y-91840940D01*
X82473006Y-91836412D01*
X82489887Y-91777418D01*
X82492495Y-91743155D01*
X82493587Y-91735376D01*
X82494124Y-91732766D01*
X82500500Y-91701741D01*
X82500500Y-91640401D01*
X82500679Y-91635692D01*
X82505337Y-91574526D01*
X82500997Y-91540442D01*
X82500500Y-91532603D01*
X82500500Y-89200000D01*
X86550001Y-89200000D01*
X86550001Y-90899986D01*
X86560494Y-91002697D01*
X86615641Y-91169119D01*
X86615643Y-91169124D01*
X86707684Y-91318345D01*
X86831654Y-91442315D01*
X86980875Y-91534356D01*
X86980880Y-91534358D01*
X87147302Y-91589505D01*
X87147309Y-91589506D01*
X87250019Y-91599999D01*
X87999999Y-91599999D01*
X88000000Y-91599998D01*
X88000000Y-89200000D01*
X88600000Y-89200000D01*
X88600000Y-91599999D01*
X89349972Y-91599999D01*
X89349986Y-91599998D01*
X89452697Y-91589505D01*
X89619119Y-91534358D01*
X89619124Y-91534356D01*
X89768345Y-91442315D01*
X89892315Y-91318345D01*
X89984356Y-91169124D01*
X89984358Y-91169119D01*
X90039505Y-91002697D01*
X90039506Y-91002690D01*
X90049999Y-90899986D01*
X90050000Y-90899973D01*
X90050000Y-89200000D01*
X97750001Y-89200000D01*
X97750001Y-90899986D01*
X97760494Y-91002697D01*
X97815641Y-91169119D01*
X97815643Y-91169124D01*
X97907684Y-91318345D01*
X98031654Y-91442315D01*
X98180875Y-91534356D01*
X98180880Y-91534358D01*
X98347302Y-91589505D01*
X98347309Y-91589506D01*
X98450019Y-91599999D01*
X99199999Y-91599999D01*
X99200000Y-91599998D01*
X99200000Y-89200000D01*
X99800000Y-89200000D01*
X99800000Y-91599999D01*
X100549972Y-91599999D01*
X100549986Y-91599998D01*
X100652697Y-91589505D01*
X100819119Y-91534358D01*
X100819124Y-91534356D01*
X100968345Y-91442315D01*
X101010658Y-91400002D01*
X106595340Y-91400002D01*
X106613944Y-91612654D01*
X106613945Y-91612662D01*
X106669194Y-91818853D01*
X106669198Y-91818864D01*
X106759410Y-92012325D01*
X106769294Y-92026440D01*
X107395736Y-91400000D01*
X107415014Y-91400000D01*
X107434835Y-91525148D01*
X107492359Y-91638045D01*
X107581955Y-91727641D01*
X107694852Y-91785165D01*
X107788519Y-91800000D01*
X107851481Y-91800000D01*
X107945148Y-91785165D01*
X108058045Y-91727641D01*
X108147641Y-91638045D01*
X108205165Y-91525148D01*
X108224986Y-91400000D01*
X108205165Y-91274852D01*
X108147641Y-91161955D01*
X108058045Y-91072359D01*
X107945148Y-91014835D01*
X107851481Y-91000000D01*
X107788519Y-91000000D01*
X107694852Y-91014835D01*
X107581955Y-91072359D01*
X107492359Y-91161955D01*
X107434835Y-91274852D01*
X107415014Y-91400000D01*
X107395736Y-91400000D01*
X106769294Y-90773558D01*
X106759413Y-90787669D01*
X106669197Y-90981140D01*
X106669194Y-90981146D01*
X106613945Y-91187337D01*
X106613944Y-91187345D01*
X106595340Y-91399997D01*
X106595340Y-91400002D01*
X101010658Y-91400002D01*
X101092315Y-91318345D01*
X101184356Y-91169124D01*
X101184358Y-91169119D01*
X101239505Y-91002697D01*
X101239506Y-91002690D01*
X101249999Y-90899986D01*
X101250000Y-90899973D01*
X101250000Y-90349294D01*
X107193558Y-90349294D01*
X107820000Y-90975736D01*
X107820001Y-90975736D01*
X108446441Y-90349294D01*
X108432325Y-90339410D01*
X108238864Y-90249198D01*
X108238853Y-90249194D01*
X108032662Y-90193945D01*
X108032654Y-90193944D01*
X107820002Y-90175340D01*
X107819998Y-90175340D01*
X107607345Y-90193944D01*
X107607337Y-90193945D01*
X107401146Y-90249194D01*
X107401140Y-90249197D01*
X107207669Y-90339413D01*
X107193558Y-90349294D01*
X101250000Y-90349294D01*
X101250000Y-89200000D01*
X99800000Y-89200000D01*
X99200000Y-89200000D01*
X97750001Y-89200000D01*
X90050000Y-89200000D01*
X88600000Y-89200000D01*
X88000000Y-89200000D01*
X86550001Y-89200000D01*
X82500500Y-89200000D01*
X82500500Y-88600000D01*
X86550000Y-88600000D01*
X88000000Y-88600000D01*
X87999999Y-86200000D01*
X88600000Y-86200000D01*
X88600000Y-88600000D01*
X90049999Y-88600000D01*
X97750000Y-88600000D01*
X99200000Y-88600000D01*
X99200000Y-86200000D01*
X99800000Y-86200000D01*
X99800000Y-88600000D01*
X101249999Y-88600000D01*
X101249999Y-86900028D01*
X101249998Y-86900013D01*
X101239505Y-86797302D01*
X101184358Y-86630880D01*
X101184356Y-86630875D01*
X101092315Y-86481654D01*
X100968345Y-86357684D01*
X100819124Y-86265643D01*
X100819119Y-86265641D01*
X100652697Y-86210494D01*
X100652690Y-86210493D01*
X100549986Y-86200000D01*
X99800000Y-86200000D01*
X99200000Y-86200000D01*
X98450028Y-86200000D01*
X98450012Y-86200001D01*
X98347302Y-86210494D01*
X98180880Y-86265641D01*
X98180875Y-86265643D01*
X98031654Y-86357684D01*
X97907684Y-86481654D01*
X97815643Y-86630875D01*
X97815641Y-86630880D01*
X97760494Y-86797302D01*
X97760493Y-86797309D01*
X97750000Y-86900013D01*
X97750000Y-88600000D01*
X90049999Y-88600000D01*
X90049999Y-86900028D01*
X90049998Y-86900013D01*
X90039505Y-86797302D01*
X89984358Y-86630880D01*
X89984356Y-86630875D01*
X89892315Y-86481654D01*
X89768345Y-86357684D01*
X89619124Y-86265643D01*
X89619119Y-86265641D01*
X89452697Y-86210494D01*
X89452690Y-86210493D01*
X89349986Y-86200000D01*
X88600000Y-86200000D01*
X87999999Y-86200000D01*
X87250028Y-86200000D01*
X87250012Y-86200001D01*
X87147302Y-86210494D01*
X86980880Y-86265641D01*
X86980875Y-86265643D01*
X86831654Y-86357684D01*
X86707684Y-86481654D01*
X86615643Y-86630875D01*
X86615641Y-86630880D01*
X86560494Y-86797302D01*
X86560493Y-86797309D01*
X86550000Y-86900013D01*
X86550000Y-88600000D01*
X82500500Y-88600000D01*
X82500500Y-81977340D01*
X82520185Y-81910301D01*
X82572989Y-81864546D01*
X82574592Y-81863827D01*
X82693980Y-81811380D01*
X82705183Y-81806128D01*
X82716948Y-81800257D01*
X82728218Y-81794272D01*
X82728227Y-81794266D01*
X82728240Y-81794260D01*
X82777507Y-81766484D01*
X82838405Y-81750500D01*
X85980801Y-81750500D01*
X86005832Y-81753549D01*
X86005877Y-81753291D01*
X86010236Y-81754043D01*
X86010241Y-81754045D01*
X86178932Y-81770912D01*
X86183415Y-81771527D01*
X86254159Y-81783908D01*
X86342795Y-81799420D01*
X86347146Y-81800343D01*
X86405007Y-81814808D01*
X86455575Y-81827450D01*
X86515838Y-81862807D01*
X86547420Y-81925131D01*
X86549500Y-81947748D01*
X86549500Y-82500001D01*
X86549501Y-82500019D01*
X86560000Y-82602796D01*
X86560001Y-82602799D01*
X86583122Y-82672572D01*
X86615186Y-82769334D01*
X86707288Y-82918656D01*
X86831344Y-83042712D01*
X86980666Y-83134814D01*
X87147203Y-83189999D01*
X87249991Y-83200500D01*
X89350008Y-83200499D01*
X89452797Y-83189999D01*
X89619334Y-83134814D01*
X89768656Y-83042712D01*
X89892712Y-82918656D01*
X89984814Y-82769334D01*
X90039999Y-82602797D01*
X90050500Y-82500009D01*
X90050499Y-81947746D01*
X90070183Y-81880708D01*
X90122987Y-81834953D01*
X90144416Y-81827451D01*
X90252849Y-81800342D01*
X90257200Y-81799420D01*
X90286685Y-81794260D01*
X90416585Y-81771527D01*
X90421062Y-81770912D01*
X90589758Y-81754045D01*
X90613284Y-81751009D01*
X90621216Y-81750500D01*
X97180801Y-81750500D01*
X97205832Y-81753549D01*
X97205877Y-81753291D01*
X97210236Y-81754043D01*
X97210241Y-81754045D01*
X97378932Y-81770912D01*
X97383415Y-81771527D01*
X97454159Y-81783908D01*
X97542795Y-81799420D01*
X97547146Y-81800343D01*
X97605007Y-81814808D01*
X97655575Y-81827450D01*
X97715838Y-81862807D01*
X97747420Y-81925131D01*
X97749500Y-81947748D01*
X97749500Y-82500001D01*
X97749501Y-82500019D01*
X97760000Y-82602796D01*
X97760001Y-82602799D01*
X97783122Y-82672572D01*
X97815186Y-82769334D01*
X97907288Y-82918656D01*
X98031344Y-83042712D01*
X98180666Y-83134814D01*
X98347203Y-83189999D01*
X98449991Y-83200500D01*
X100550008Y-83200499D01*
X100652797Y-83189999D01*
X100819334Y-83134814D01*
X100968656Y-83042712D01*
X101092712Y-82918656D01*
X101184814Y-82769334D01*
X101239999Y-82602797D01*
X101250500Y-82500009D01*
X101250500Y-82175000D01*
X106227727Y-82175000D01*
X106235144Y-82247607D01*
X106288452Y-82408481D01*
X106288457Y-82408492D01*
X106377424Y-82552728D01*
X106377427Y-82552732D01*
X106497267Y-82672572D01*
X106497271Y-82672575D01*
X106641507Y-82761542D01*
X106641518Y-82761547D01*
X106802392Y-82814855D01*
X106899999Y-82824827D01*
X106900000Y-82824826D01*
X106900000Y-82175000D01*
X107500000Y-82175000D01*
X107500000Y-82824825D01*
X107597605Y-82814856D01*
X107597608Y-82814855D01*
X107758481Y-82761547D01*
X107758492Y-82761542D01*
X107902728Y-82672575D01*
X107902732Y-82672572D01*
X107912319Y-82662986D01*
X107973642Y-82629501D01*
X108043334Y-82634485D01*
X108087681Y-82662986D01*
X108097267Y-82672572D01*
X108097271Y-82672575D01*
X108241507Y-82761542D01*
X108241518Y-82761547D01*
X108402392Y-82814855D01*
X108499999Y-82824827D01*
X108500000Y-82824826D01*
X108500000Y-82175000D01*
X109100000Y-82175000D01*
X109100000Y-82824825D01*
X109197605Y-82814856D01*
X109197608Y-82814855D01*
X109358481Y-82761547D01*
X109358492Y-82761542D01*
X109502728Y-82672575D01*
X109502732Y-82672572D01*
X109622572Y-82552732D01*
X109622575Y-82552728D01*
X109711542Y-82408492D01*
X109711548Y-82408479D01*
X109764856Y-82247604D01*
X109772274Y-82175000D01*
X109100000Y-82175000D01*
X108500000Y-82175000D01*
X107500000Y-82175000D01*
X106900000Y-82175000D01*
X106227727Y-82175000D01*
X101250500Y-82175000D01*
X101250499Y-81817238D01*
X101270183Y-81750200D01*
X101322987Y-81704445D01*
X101335539Y-81699519D01*
X101490156Y-81648378D01*
X101494193Y-81647195D01*
X101655570Y-81605921D01*
X101659894Y-81604979D01*
X101812043Y-81577477D01*
X101834099Y-81575500D01*
X107205524Y-81575500D01*
X107210082Y-81575668D01*
X107225363Y-81576793D01*
X107247457Y-81578422D01*
X107278706Y-81576255D01*
X107294670Y-81575149D01*
X107298959Y-81575000D01*
X109772273Y-81575000D01*
X109772273Y-81574999D01*
X109764855Y-81502392D01*
X109731259Y-81401004D01*
X109728857Y-81331175D01*
X109764589Y-81271134D01*
X109827109Y-81239941D01*
X109848965Y-81238000D01*
X110191691Y-81238000D01*
X110258730Y-81257685D01*
G37*
%TD.AperFunction*%
%TD*%
%TA.AperFunction,Conductor*%
%TO.N,VCC*%
G36*
X109119482Y-79889109D02*
G01*
X109234471Y-79916340D01*
X109357103Y-79940880D01*
X109479735Y-79960920D01*
X109602367Y-79976460D01*
X109714349Y-79986541D01*
X109722282Y-79990696D01*
X109725000Y-79998194D01*
X109724999Y-80725669D01*
X109721572Y-80733942D01*
X109713299Y-80737369D01*
X109713169Y-80737368D01*
X109590024Y-80736000D01*
X109589982Y-80736000D01*
X109455016Y-80738999D01*
X109320000Y-80746499D01*
X109185041Y-80758495D01*
X109185023Y-80758497D01*
X109057805Y-80774046D01*
X109049178Y-80771648D01*
X109046169Y-80768133D01*
X108802610Y-80331472D01*
X108801573Y-80322578D01*
X108803307Y-80318973D01*
X109107271Y-79893690D01*
X109114868Y-79888954D01*
X109119482Y-79889109D01*
G37*
%TD.AperFunction*%
%TD*%
%TA.AperFunction,Conductor*%
%TO.N,VCC*%
G36*
X87052626Y-79502639D02*
G01*
X87055321Y-79504253D01*
X87362750Y-79750000D01*
X88289567Y-80490861D01*
X88293890Y-80498703D01*
X88291401Y-80507305D01*
X88289567Y-80509139D01*
X87055322Y-81495745D01*
X87046720Y-81498234D01*
X87043672Y-81497469D01*
X86850004Y-81420001D01*
X86849991Y-81419997D01*
X86650007Y-81355001D01*
X86449995Y-81304998D01*
X86249992Y-81269997D01*
X86060536Y-81251053D01*
X86052645Y-81246820D01*
X86050000Y-81239411D01*
X86050000Y-79760588D01*
X86053427Y-79752315D01*
X86060534Y-79748946D01*
X86168181Y-79738181D01*
X86249992Y-79730001D01*
X86249995Y-79730000D01*
X86249999Y-79730000D01*
X86449999Y-79695000D01*
X86650000Y-79644999D01*
X86650003Y-79644997D01*
X86650007Y-79644997D01*
X86695836Y-79630102D01*
X86850000Y-79579999D01*
X87043674Y-79502530D01*
X87052626Y-79502639D01*
G37*
%TD.AperFunction*%
%TD*%
%TA.AperFunction,Conductor*%
%TO.N,VCC*%
G36*
X79206513Y-79601736D02*
G01*
X79380000Y-79648000D01*
X79560000Y-79687000D01*
X79740000Y-79717000D01*
X79740016Y-79717001D01*
X79740017Y-79717002D01*
X79740024Y-79717003D01*
X79906140Y-79736382D01*
X79920000Y-79738000D01*
X80089080Y-79749272D01*
X80097105Y-79753240D01*
X80100000Y-79760945D01*
X80100000Y-81239054D01*
X80096573Y-81247327D01*
X80089078Y-81250728D01*
X79919996Y-81262000D01*
X79919983Y-81262001D01*
X79740024Y-81282996D01*
X79740017Y-81282997D01*
X79560014Y-81312997D01*
X79559995Y-81313000D01*
X79432809Y-81340557D01*
X79380000Y-81352000D01*
X79379991Y-81352002D01*
X79379979Y-81352005D01*
X79206514Y-81398262D01*
X79197637Y-81397082D01*
X79195230Y-81395235D01*
X78307287Y-80508278D01*
X78303856Y-80500006D01*
X78307278Y-80491731D01*
X78307287Y-80491722D01*
X79038876Y-79760945D01*
X79195231Y-79604763D01*
X79203505Y-79601342D01*
X79206513Y-79601736D01*
G37*
%TD.AperFunction*%
%TD*%
%TA.AperFunction,Conductor*%
%TO.N,VCC*%
G36*
X79308055Y-91805728D02*
G01*
X79479984Y-91927988D01*
X79480006Y-91928003D01*
X79558547Y-91973381D01*
X79660000Y-92031999D01*
X79840000Y-92112000D01*
X80020000Y-92168000D01*
X80020001Y-92168000D01*
X80020004Y-92168001D01*
X80190348Y-92198284D01*
X80197893Y-92203106D01*
X80200000Y-92209803D01*
X80200000Y-93190196D01*
X80196573Y-93198469D01*
X80190348Y-93201715D01*
X80020004Y-93231997D01*
X79900000Y-93269332D01*
X79840000Y-93287999D01*
X79839997Y-93288000D01*
X79839998Y-93288000D01*
X79659997Y-93368001D01*
X79659996Y-93368002D01*
X79480006Y-93471995D01*
X79479984Y-93472010D01*
X79308055Y-93594271D01*
X79299327Y-93596273D01*
X79293006Y-93593014D01*
X78899555Y-93200000D01*
X78407286Y-92708277D01*
X78403856Y-92700006D01*
X78407278Y-92691731D01*
X78407287Y-92691722D01*
X79293008Y-91806984D01*
X79301281Y-91803563D01*
X79308055Y-91805728D01*
G37*
%TD.AperFunction*%
%TD*%
%TA.AperFunction,Conductor*%
%TO.N,VCC*%
G36*
X100756339Y-79401787D02*
G01*
X100949999Y-79464780D01*
X101149999Y-79514835D01*
X101150003Y-79514836D01*
X101249999Y-79532362D01*
X101350000Y-79549890D01*
X101550000Y-79569945D01*
X101738597Y-79574711D01*
X101746779Y-79578345D01*
X101750000Y-79586407D01*
X101750000Y-81065225D01*
X101746573Y-81073498D01*
X101740381Y-81076738D01*
X101550002Y-81111151D01*
X101349995Y-81162304D01*
X101349994Y-81162305D01*
X101150001Y-81228455D01*
X101150000Y-81228455D01*
X100950003Y-81309606D01*
X100756282Y-81402740D01*
X100747341Y-81403236D01*
X100744352Y-81401672D01*
X100617194Y-81309606D01*
X99510863Y-80508589D01*
X99506171Y-80500961D01*
X99508247Y-80492251D01*
X99509992Y-80490331D01*
X100744994Y-79404127D01*
X100753468Y-79401237D01*
X100756339Y-79401787D01*
G37*
%TD.AperFunction*%
%TD*%
%TA.AperFunction,Conductor*%
%TO.N,VCC*%
G36*
X89556321Y-79502528D02*
G01*
X89749999Y-79579999D01*
X89849999Y-79612499D01*
X89949991Y-79644997D01*
X89949999Y-79644999D01*
X90150000Y-79695000D01*
X90350000Y-79730000D01*
X90350006Y-79730001D01*
X90444735Y-79739473D01*
X90539464Y-79748946D01*
X90547355Y-79753179D01*
X90550000Y-79760588D01*
X90550000Y-81239411D01*
X90546573Y-81247684D01*
X90539464Y-81251053D01*
X90350006Y-81269997D01*
X90150003Y-81304998D01*
X89949991Y-81355001D01*
X89750007Y-81419997D01*
X89749994Y-81420001D01*
X89556327Y-81497469D01*
X89547373Y-81497360D01*
X89544677Y-81495745D01*
X89237250Y-81250000D01*
X88310431Y-80509137D01*
X88306109Y-80501297D01*
X88308598Y-80492695D01*
X88310428Y-80490864D01*
X89544678Y-79504253D01*
X89553279Y-79501765D01*
X89556321Y-79502528D01*
G37*
%TD.AperFunction*%
%TD*%
%TA.AperFunction,Conductor*%
%TO.N,VCC*%
G36*
X98252626Y-79502639D02*
G01*
X98255321Y-79504253D01*
X98562750Y-79750000D01*
X99489567Y-80490861D01*
X99493890Y-80498703D01*
X99491401Y-80507305D01*
X99489567Y-80509139D01*
X98255322Y-81495745D01*
X98246720Y-81498234D01*
X98243672Y-81497469D01*
X98050004Y-81420001D01*
X98049991Y-81419997D01*
X97850007Y-81355001D01*
X97649995Y-81304998D01*
X97449992Y-81269997D01*
X97260536Y-81251053D01*
X97252645Y-81246820D01*
X97250000Y-81239411D01*
X97250000Y-79760588D01*
X97253427Y-79752315D01*
X97260534Y-79748946D01*
X97368181Y-79738181D01*
X97449992Y-79730001D01*
X97449995Y-79730000D01*
X97449999Y-79730000D01*
X97649999Y-79695000D01*
X97850000Y-79644999D01*
X97850003Y-79644997D01*
X97850007Y-79644997D01*
X97895836Y-79630102D01*
X98050000Y-79579999D01*
X98243674Y-79502530D01*
X98252626Y-79502639D01*
G37*
%TD.AperFunction*%
%TD*%
%TA.AperFunction,Conductor*%
%TO.N,Net-(U1-BOOT)*%
G36*
X114403471Y-82153217D02*
G01*
X114406551Y-82156166D01*
X114721080Y-82593165D01*
X114723132Y-82601882D01*
X114721080Y-82606835D01*
X114406551Y-83043833D01*
X114398937Y-83048546D01*
X114394673Y-83048453D01*
X114372454Y-83043833D01*
X114286693Y-83026000D01*
X114286692Y-83026000D01*
X114241253Y-83018323D01*
X114171267Y-83006500D01*
X114171254Y-83006498D01*
X114171229Y-83006494D01*
X114055872Y-82991503D01*
X114055832Y-82991498D01*
X113940429Y-82981000D01*
X113940404Y-82980999D01*
X113933905Y-82980661D01*
X113836092Y-82975576D01*
X113828007Y-82971724D01*
X113825000Y-82963894D01*
X113825000Y-82236104D01*
X113828426Y-82227834D01*
X113836090Y-82224423D01*
X113940422Y-82219000D01*
X114055845Y-82208500D01*
X114171267Y-82193500D01*
X114286690Y-82174000D01*
X114394675Y-82151546D01*
X114403471Y-82153217D01*
G37*
%TD.AperFunction*%
%TD*%
%TA.AperFunction,Conductor*%
%TO.N,Net-(U1-SW)*%
G36*
X112007986Y-77507548D02*
G01*
X112007996Y-77507559D01*
X112007998Y-77507561D01*
X112694666Y-78242547D01*
X112697810Y-78250931D01*
X112695197Y-78257913D01*
X112616306Y-78354996D01*
X112616289Y-78355018D01*
X112530986Y-78482484D01*
X112530979Y-78482496D01*
X112445645Y-78632510D01*
X112360326Y-78804995D01*
X112360323Y-78805002D01*
X112278067Y-78992990D01*
X112271611Y-78999196D01*
X112267348Y-79000000D01*
X111533419Y-79000000D01*
X111525146Y-78996573D01*
X111522325Y-78992017D01*
X111459665Y-78805016D01*
X111459660Y-78805000D01*
X111459652Y-78804980D01*
X111459643Y-78804953D01*
X111394333Y-78632530D01*
X111394327Y-78632516D01*
X111394321Y-78632500D01*
X111328982Y-78482500D01*
X111328974Y-78482484D01*
X111263649Y-78355011D01*
X111263645Y-78355004D01*
X111263640Y-78354996D01*
X111236130Y-78310787D01*
X111203378Y-78258153D01*
X111201917Y-78249319D01*
X111205311Y-78243435D01*
X111991450Y-77507008D01*
X111999831Y-77503854D01*
X112007986Y-77507548D01*
G37*
%TD.AperFunction*%
%TD*%
%TA.AperFunction,Conductor*%
%TO.N,Net-(U1-SW)*%
G36*
X116521781Y-83408400D02*
G01*
X116525206Y-83416463D01*
X116527945Y-83568894D01*
X116539620Y-83685533D01*
X116564276Y-83784397D01*
X116564276Y-83784398D01*
X116606173Y-83895034D01*
X116665045Y-84036126D01*
X116665068Y-84045080D01*
X116658752Y-84051429D01*
X116658749Y-84051430D01*
X116302175Y-84200093D01*
X116297644Y-84200994D01*
X115912459Y-84200031D01*
X115904194Y-84196583D01*
X115900788Y-84188302D01*
X115900811Y-84187597D01*
X115912941Y-84002319D01*
X115913196Y-84000544D01*
X115943956Y-83862402D01*
X115944064Y-83861996D01*
X115981000Y-83742767D01*
X116012000Y-83603545D01*
X116024284Y-83415908D01*
X116028244Y-83407877D01*
X116035959Y-83404973D01*
X116513508Y-83404973D01*
X116521781Y-83408400D01*
G37*
%TD.AperFunction*%
%TD*%
%TA.AperFunction,Conductor*%
%TO.N,Net-(U1-SW)*%
G36*
X116282187Y-82604597D02*
G01*
X116700993Y-82930746D01*
X116705415Y-82938533D01*
X116704704Y-82944228D01*
X116671318Y-83029829D01*
X116671297Y-83029885D01*
X116634722Y-83135663D01*
X116598150Y-83253435D01*
X116561591Y-83383158D01*
X116561574Y-83383219D01*
X116527264Y-83516223D01*
X116521879Y-83523377D01*
X116515935Y-83525000D01*
X116034065Y-83525000D01*
X116025792Y-83521573D01*
X116022736Y-83516223D01*
X115988432Y-83383246D01*
X115988414Y-83383180D01*
X115951850Y-83253441D01*
X115915276Y-83135662D01*
X115878701Y-83029883D01*
X115845295Y-82944227D01*
X115845481Y-82935275D01*
X115849004Y-82930748D01*
X116267811Y-82604597D01*
X116276444Y-82602218D01*
X116282187Y-82604597D01*
G37*
%TD.AperFunction*%
%TD*%
%TA.AperFunction,Conductor*%
%TO.N,Net-(U1-SW)*%
G36*
X114395937Y-77003753D02*
G01*
X114399996Y-77011735D01*
X114400031Y-77012614D01*
X114401000Y-77400029D01*
X114400031Y-77787385D01*
X114396583Y-77795650D01*
X114388302Y-77799056D01*
X114387423Y-77799021D01*
X114200660Y-77784483D01*
X114198559Y-77784125D01*
X114060055Y-77747268D01*
X114059523Y-77747099D01*
X113940213Y-77702803D01*
X113940206Y-77702801D01*
X113940203Y-77702800D01*
X113800407Y-77665600D01*
X113610790Y-77650839D01*
X113602809Y-77646781D01*
X113600000Y-77639177D01*
X113600000Y-77160821D01*
X113603426Y-77152551D01*
X113610788Y-77149160D01*
X113800407Y-77134400D01*
X113940203Y-77097199D01*
X114059543Y-77052893D01*
X114060055Y-77052730D01*
X114198568Y-77015872D01*
X114200650Y-77015517D01*
X114387425Y-77000978D01*
X114395937Y-77003753D01*
G37*
%TD.AperFunction*%
%TD*%
%TA.AperFunction,Conductor*%
%TO.N,Net-(U1-SW)*%
G36*
X113206534Y-76755707D02*
G01*
X113344577Y-76876263D01*
X113350000Y-76880999D01*
X113500000Y-76986499D01*
X113649996Y-77066498D01*
X113649995Y-77066498D01*
X113649998Y-77066499D01*
X113650000Y-77066500D01*
X113800000Y-77121000D01*
X113800002Y-77121000D01*
X113800004Y-77121001D01*
X113851375Y-77130932D01*
X113940521Y-77148167D01*
X113947993Y-77153102D01*
X113950000Y-77159654D01*
X113950000Y-77641696D01*
X113946573Y-77649969D01*
X113942162Y-77652740D01*
X113800003Y-77702452D01*
X113650000Y-77782624D01*
X113500002Y-77890506D01*
X113499993Y-77890514D01*
X113350017Y-78026093D01*
X113349993Y-78026117D01*
X113206328Y-78182535D01*
X113198208Y-78186310D01*
X113191886Y-78184768D01*
X112015940Y-77509724D01*
X112010471Y-77502633D01*
X112011618Y-77493752D01*
X112015566Y-77489654D01*
X113192642Y-76754594D01*
X113201473Y-76753120D01*
X113206534Y-76755707D01*
G37*
%TD.AperFunction*%
%TD*%
%TA.AperFunction,Conductor*%
%TO.N,/VDC*%
G36*
X113271887Y-89963427D02*
G01*
X113275310Y-89971381D01*
X113283135Y-90258302D01*
X113283136Y-90258315D01*
X113311015Y-90469453D01*
X113363847Y-90647904D01*
X113446845Y-90848113D01*
X113560537Y-91113597D01*
X113560644Y-91122551D01*
X113554388Y-91128958D01*
X113554273Y-91129007D01*
X112904491Y-91399133D01*
X112895536Y-91399144D01*
X112895509Y-91399133D01*
X112245726Y-91129007D01*
X112239402Y-91122667D01*
X112239413Y-91113712D01*
X112239462Y-91113597D01*
X112353153Y-90848113D01*
X112436150Y-90647904D01*
X112436152Y-90647900D01*
X112488984Y-90469453D01*
X112516863Y-90258301D01*
X112524690Y-89971381D01*
X112528342Y-89963204D01*
X112536386Y-89960000D01*
X113263614Y-89960000D01*
X113271887Y-89963427D01*
G37*
%TD.AperFunction*%
%TD*%
%TA.AperFunction,Conductor*%
%TO.N,/VDC*%
G36*
X112505693Y-87502175D02*
G01*
X112943154Y-87746181D01*
X112948710Y-87753204D01*
X112949073Y-87757782D01*
X112934997Y-87876023D01*
X112919997Y-88006522D01*
X112905001Y-88141479D01*
X112905002Y-88141480D01*
X112889998Y-88281019D01*
X112876092Y-88414512D01*
X112871826Y-88422386D01*
X112864455Y-88425000D01*
X112135545Y-88425000D01*
X112127272Y-88421573D01*
X112123908Y-88414512D01*
X112110002Y-88281019D01*
X112094998Y-88141480D01*
X112094998Y-88141479D01*
X112080003Y-88006522D01*
X112065003Y-87876023D01*
X112050926Y-87757782D01*
X112053351Y-87749162D01*
X112056841Y-87746183D01*
X112494302Y-87502177D01*
X112503195Y-87501141D01*
X112505693Y-87502175D01*
G37*
%TD.AperFunction*%
%TD*%
%TA.AperFunction,Conductor*%
%TO.N,Net-(U1-FB)*%
G36*
X110731887Y-89963427D02*
G01*
X110735310Y-89971381D01*
X110743135Y-90258302D01*
X110743136Y-90258315D01*
X110771015Y-90469453D01*
X110823847Y-90647904D01*
X110906845Y-90848113D01*
X111020537Y-91113597D01*
X111020644Y-91122551D01*
X111014388Y-91128958D01*
X111014273Y-91129007D01*
X110364491Y-91399133D01*
X110355536Y-91399144D01*
X110355509Y-91399133D01*
X109705726Y-91129007D01*
X109699402Y-91122667D01*
X109699413Y-91113712D01*
X109699462Y-91113597D01*
X109813153Y-90848113D01*
X109896150Y-90647904D01*
X109896152Y-90647900D01*
X109948984Y-90469453D01*
X109976863Y-90258301D01*
X109984690Y-89971381D01*
X109988342Y-89963204D01*
X109996386Y-89960000D01*
X110723614Y-89960000D01*
X110731887Y-89963427D01*
G37*
%TD.AperFunction*%
%TD*%
%TA.AperFunction,Conductor*%
%TO.N,Net-(U1-FB)*%
G36*
X111322729Y-86578427D02*
G01*
X111326093Y-86585488D01*
X111339998Y-86718980D01*
X111355002Y-86858519D01*
X111369997Y-86993477D01*
X111384997Y-87123976D01*
X111399073Y-87242216D01*
X111396648Y-87250836D01*
X111393154Y-87253817D01*
X110955698Y-87497821D01*
X110946804Y-87498858D01*
X110944302Y-87497821D01*
X110506844Y-87253817D01*
X110501289Y-87246795D01*
X110500926Y-87242219D01*
X110515000Y-87124000D01*
X110530000Y-86993500D01*
X110530003Y-86993478D01*
X110544998Y-86858520D01*
X110560002Y-86718981D01*
X110573908Y-86585488D01*
X110578174Y-86577614D01*
X110585545Y-86575000D01*
X111314456Y-86575000D01*
X111322729Y-86578427D01*
G37*
%TD.AperFunction*%
%TD*%
%TA.AperFunction,Conductor*%
%TO.N,Net-(U1-FB)*%
G36*
X110955696Y-87502177D02*
G01*
X111393154Y-87746181D01*
X111398710Y-87753204D01*
X111399073Y-87757782D01*
X111384997Y-87876023D01*
X111369997Y-88006522D01*
X111355001Y-88141479D01*
X111355002Y-88141480D01*
X111339998Y-88281019D01*
X111326092Y-88414512D01*
X111321826Y-88422386D01*
X111314455Y-88425000D01*
X110585545Y-88425000D01*
X110577272Y-88421573D01*
X110573908Y-88414512D01*
X110560002Y-88281019D01*
X110544998Y-88141480D01*
X110544998Y-88141479D01*
X110530003Y-88006522D01*
X110515003Y-87876023D01*
X110500926Y-87757782D01*
X110503351Y-87749162D01*
X110506841Y-87746183D01*
X110944303Y-87502177D01*
X110953194Y-87501141D01*
X110955696Y-87502177D01*
G37*
%TD.AperFunction*%
%TD*%
%TA.AperFunction,Conductor*%
%TO.N,Net-(D1-K)*%
G36*
X63901200Y-85205590D02*
G01*
X64094999Y-85275678D01*
X64294999Y-85333008D01*
X64295012Y-85333010D01*
X64295025Y-85333014D01*
X64494981Y-85375335D01*
X64494994Y-85375338D01*
X64494997Y-85375338D01*
X64495000Y-85375339D01*
X64694985Y-85402667D01*
X64694988Y-85402667D01*
X64695000Y-85402669D01*
X64884021Y-85414323D01*
X64892066Y-85418252D01*
X64894999Y-85426000D01*
X64895000Y-86904822D01*
X64891573Y-86913095D01*
X64884921Y-86916409D01*
X64695010Y-86942973D01*
X64694991Y-86942976D01*
X64494997Y-86985951D01*
X64295012Y-87043921D01*
X64294991Y-87043928D01*
X64094999Y-87116901D01*
X63901167Y-87202165D01*
X63892214Y-87202359D01*
X63889557Y-87200904D01*
X63536282Y-86942973D01*
X62606294Y-86263976D01*
X62601634Y-86256331D01*
X62603745Y-86247629D01*
X62605834Y-86245433D01*
X63889870Y-85207494D01*
X63898457Y-85204959D01*
X63901200Y-85205590D01*
G37*
%TD.AperFunction*%
%TD*%
%TA.AperFunction,Conductor*%
%TO.N,Net-(D1-K)*%
G36*
X72202362Y-83602916D02*
G01*
X72204769Y-83604764D01*
X73092712Y-84491722D01*
X73096143Y-84499994D01*
X73092721Y-84508269D01*
X73092712Y-84508278D01*
X72204769Y-85395235D01*
X72196494Y-85398657D01*
X72193485Y-85398262D01*
X72020020Y-85352005D01*
X72020013Y-85352003D01*
X72020000Y-85352000D01*
X71941752Y-85335046D01*
X71840004Y-85313000D01*
X71839985Y-85312997D01*
X71659982Y-85282997D01*
X71659975Y-85282996D01*
X71480016Y-85262001D01*
X71480003Y-85262000D01*
X71310922Y-85250728D01*
X71302895Y-85246758D01*
X71300000Y-85239054D01*
X71300000Y-83760945D01*
X71303427Y-83752672D01*
X71310919Y-83749272D01*
X71480000Y-83738000D01*
X71590760Y-83725077D01*
X71659975Y-83717003D01*
X71659978Y-83717002D01*
X71660000Y-83717000D01*
X71840000Y-83687000D01*
X72020000Y-83648000D01*
X72193485Y-83601737D01*
X72202362Y-83602916D01*
G37*
%TD.AperFunction*%
%TD*%
%TA.AperFunction,Conductor*%
%TO.N,Net-(D1-K)*%
G36*
X77402362Y-83602916D02*
G01*
X77404769Y-83604764D01*
X78292712Y-84491722D01*
X78296143Y-84499994D01*
X78292721Y-84508269D01*
X78292712Y-84508278D01*
X77404769Y-85395235D01*
X77396494Y-85398657D01*
X77393485Y-85398262D01*
X77220020Y-85352005D01*
X77220013Y-85352003D01*
X77220000Y-85352000D01*
X77141749Y-85335045D01*
X77040003Y-85313000D01*
X77039984Y-85312997D01*
X76859982Y-85282997D01*
X76859975Y-85282996D01*
X76680016Y-85262001D01*
X76680003Y-85262000D01*
X76510922Y-85250728D01*
X76502895Y-85246758D01*
X76500000Y-85239054D01*
X76500000Y-83760945D01*
X76503427Y-83752672D01*
X76510919Y-83749272D01*
X76680000Y-83738000D01*
X76790764Y-83725077D01*
X76859974Y-83717003D01*
X76859977Y-83717002D01*
X76859999Y-83717000D01*
X77040000Y-83687000D01*
X77220000Y-83648000D01*
X77393485Y-83601737D01*
X77402362Y-83602916D01*
G37*
%TD.AperFunction*%
%TD*%
%TA.AperFunction,Conductor*%
%TO.N,Net-(D1-K)*%
G36*
X74006513Y-83601736D02*
G01*
X74180000Y-83648000D01*
X74359999Y-83687000D01*
X74540000Y-83717000D01*
X74540016Y-83717001D01*
X74540017Y-83717002D01*
X74540024Y-83717003D01*
X74706140Y-83736382D01*
X74720000Y-83738000D01*
X74889080Y-83749272D01*
X74897105Y-83753240D01*
X74900000Y-83760945D01*
X74900000Y-85239054D01*
X74896573Y-85247327D01*
X74889078Y-85250728D01*
X74719996Y-85262000D01*
X74719983Y-85262001D01*
X74540023Y-85282996D01*
X74540016Y-85282997D01*
X74360014Y-85312997D01*
X74359995Y-85313000D01*
X74232809Y-85340557D01*
X74180000Y-85352000D01*
X74179991Y-85352002D01*
X74179979Y-85352005D01*
X74006514Y-85398262D01*
X73997637Y-85397082D01*
X73995230Y-85395235D01*
X73107287Y-84508278D01*
X73103856Y-84500006D01*
X73107278Y-84491731D01*
X73107287Y-84491722D01*
X73838876Y-83760945D01*
X73995231Y-83604763D01*
X74003505Y-83601342D01*
X74006513Y-83601736D01*
G37*
%TD.AperFunction*%
%TD*%
%TA.AperFunction,Conductor*%
%TO.N,Net-(D3-K)*%
G36*
X72302362Y-87902916D02*
G01*
X72304769Y-87904764D01*
X73192712Y-88791722D01*
X73196143Y-88799994D01*
X73192721Y-88808269D01*
X73192712Y-88808278D01*
X72304769Y-89695235D01*
X72296494Y-89698657D01*
X72293485Y-89698262D01*
X72120020Y-89652005D01*
X72120013Y-89652003D01*
X72120000Y-89652000D01*
X72041752Y-89635046D01*
X71940004Y-89613000D01*
X71939985Y-89612997D01*
X71759982Y-89582997D01*
X71759975Y-89582996D01*
X71580016Y-89562001D01*
X71580003Y-89562000D01*
X71410922Y-89550728D01*
X71402895Y-89546758D01*
X71400000Y-89539054D01*
X71400000Y-88060945D01*
X71403427Y-88052672D01*
X71410919Y-88049272D01*
X71580000Y-88038000D01*
X71690760Y-88025077D01*
X71759975Y-88017003D01*
X71759978Y-88017002D01*
X71760000Y-88017000D01*
X71940000Y-87987000D01*
X72120000Y-87948000D01*
X72293485Y-87901737D01*
X72302362Y-87902916D01*
G37*
%TD.AperFunction*%
%TD*%
%TA.AperFunction,Conductor*%
%TO.N,Net-(D3-K)*%
G36*
X74106410Y-87849948D02*
G01*
X74280000Y-87886868D01*
X74459999Y-87916151D01*
X74460006Y-87916151D01*
X74460007Y-87916152D01*
X74639986Y-87936433D01*
X74639997Y-87936433D01*
X74640000Y-87936434D01*
X74820000Y-87947717D01*
X74988449Y-87949853D01*
X74996677Y-87953384D01*
X75000000Y-87961552D01*
X75000000Y-89439658D01*
X74996573Y-89447931D01*
X74989737Y-89451269D01*
X74820008Y-89472269D01*
X74819994Y-89472271D01*
X74640011Y-89503540D01*
X74460012Y-89543811D01*
X74460005Y-89543812D01*
X74460000Y-89543814D01*
X74280000Y-89593086D01*
X74279993Y-89593088D01*
X74279970Y-89593095D01*
X74106598Y-89649221D01*
X74097671Y-89648509D01*
X74094958Y-89646594D01*
X73910470Y-89472271D01*
X73207512Y-88808043D01*
X73203854Y-88799871D01*
X73207044Y-88791505D01*
X74095490Y-87853346D01*
X74103665Y-87849697D01*
X74106410Y-87849948D01*
G37*
%TD.AperFunction*%
%TD*%
%TA.AperFunction,Conductor*%
%TO.N,Net-(D3-K)*%
G36*
X77502362Y-87802916D02*
G01*
X77504769Y-87804764D01*
X78392712Y-88691722D01*
X78396143Y-88699994D01*
X78392721Y-88708269D01*
X78392712Y-88708278D01*
X77504769Y-89595235D01*
X77496494Y-89598657D01*
X77493485Y-89598262D01*
X77320020Y-89552005D01*
X77320013Y-89552003D01*
X77320000Y-89552000D01*
X77241749Y-89535045D01*
X77140003Y-89513000D01*
X77139984Y-89512997D01*
X76959982Y-89482997D01*
X76959975Y-89482996D01*
X76780016Y-89462001D01*
X76780003Y-89462000D01*
X76610922Y-89450728D01*
X76602895Y-89446758D01*
X76600000Y-89439054D01*
X76600000Y-87960945D01*
X76603427Y-87952672D01*
X76610919Y-87949272D01*
X76780000Y-87938000D01*
X76890764Y-87925077D01*
X76959974Y-87917003D01*
X76959977Y-87917002D01*
X76959999Y-87917000D01*
X77140000Y-87887000D01*
X77320000Y-87848000D01*
X77493485Y-87801737D01*
X77502362Y-87802916D01*
G37*
%TD.AperFunction*%
%TD*%
%TA.AperFunction,Conductor*%
%TO.N,Net-(D3-K)*%
G36*
X63367007Y-90308687D02*
G01*
X63548854Y-90402514D01*
X63792156Y-90459667D01*
X64092210Y-90486714D01*
X64340384Y-90492261D01*
X64453104Y-90494782D01*
X64453122Y-90494782D01*
X64453156Y-90494783D01*
X64867436Y-90494994D01*
X64875707Y-90498425D01*
X64879130Y-90506694D01*
X64879129Y-91983614D01*
X64875702Y-91991887D01*
X64867749Y-91995310D01*
X64468993Y-92006202D01*
X64468993Y-92006203D01*
X64122999Y-92040917D01*
X64122995Y-92040917D01*
X64122993Y-92040918D01*
X63837505Y-92100802D01*
X63608868Y-92187513D01*
X63608864Y-92187515D01*
X63441993Y-92297095D01*
X63433197Y-92298772D01*
X63426733Y-92294982D01*
X62600151Y-91342091D01*
X62597318Y-91333596D01*
X62599588Y-91327461D01*
X63352247Y-90312117D01*
X63359925Y-90307513D01*
X63367007Y-90308687D01*
G37*
%TD.AperFunction*%
%TD*%
%TA.AperFunction,Conductor*%
%TO.N,VCC*%
G36*
X81642938Y-79842939D02*
G01*
X82157060Y-80357061D01*
X82160487Y-80365334D01*
X82157230Y-80373434D01*
X82098915Y-80434214D01*
X82098912Y-80434218D01*
X82056113Y-80487542D01*
X82056105Y-80487554D01*
X82026112Y-80538960D01*
X81998248Y-80602337D01*
X81966375Y-80680470D01*
X81960077Y-80686836D01*
X81951123Y-80686884D01*
X81951085Y-80686869D01*
X81503797Y-80502563D01*
X81497453Y-80496242D01*
X81313130Y-80048912D01*
X81313147Y-80039960D01*
X81319488Y-80033641D01*
X81397706Y-80001731D01*
X81461032Y-79973889D01*
X81512451Y-79943889D01*
X81565779Y-79901086D01*
X81626566Y-79842768D01*
X81634908Y-79839515D01*
X81642938Y-79842939D01*
G37*
%TD.AperFunction*%
%TD*%
%TA.AperFunction,Conductor*%
%TO.N,VCC*%
G36*
X82117473Y-79817903D02*
G01*
X82117637Y-79818278D01*
X82194349Y-80002833D01*
X82399133Y-80495508D01*
X82399144Y-80504463D01*
X82399133Y-80504490D01*
X82117640Y-81181715D01*
X82111300Y-81188039D01*
X82102345Y-81188028D01*
X82101964Y-81187861D01*
X81966212Y-81125685D01*
X81965974Y-81125570D01*
X81861503Y-81071881D01*
X81769090Y-81032493D01*
X81769077Y-81032489D01*
X81658645Y-81008259D01*
X81658631Y-81008257D01*
X81511092Y-81000577D01*
X81503008Y-80996725D01*
X81500000Y-80988893D01*
X81500000Y-80011106D01*
X81503427Y-80002833D01*
X81511090Y-79999422D01*
X81658636Y-79991741D01*
X81769083Y-79967508D01*
X81861512Y-79928113D01*
X81966009Y-79874409D01*
X81966185Y-79874324D01*
X82101965Y-79812137D01*
X82110913Y-79811808D01*
X82117473Y-79817903D01*
G37*
%TD.AperFunction*%
%TD*%
%TA.AperFunction,Conductor*%
%TO.N,VCC*%
G36*
X81797654Y-79811971D02*
G01*
X81798035Y-79812138D01*
X81933785Y-79874312D01*
X81934003Y-79874417D01*
X82038487Y-79928113D01*
X82038494Y-79928116D01*
X82038496Y-79928117D01*
X82130907Y-79967505D01*
X82130910Y-79967506D01*
X82130915Y-79967508D01*
X82241363Y-79991741D01*
X82388909Y-79999422D01*
X82396992Y-80003274D01*
X82400000Y-80011106D01*
X82400000Y-80988893D01*
X82396573Y-80997166D01*
X82388908Y-81000577D01*
X82241367Y-81008257D01*
X82241353Y-81008259D01*
X82130920Y-81032489D01*
X82130907Y-81032493D01*
X82038495Y-81071881D01*
X81934023Y-81125570D01*
X81933785Y-81125685D01*
X81798035Y-81187861D01*
X81789086Y-81188191D01*
X81782526Y-81182096D01*
X81782372Y-81181746D01*
X81500865Y-80504489D01*
X81500855Y-80495536D01*
X81782360Y-79818282D01*
X81788699Y-79811960D01*
X81797654Y-79811971D01*
G37*
%TD.AperFunction*%
%TD*%
%TA.AperFunction,Conductor*%
%TO.N,VCC*%
G36*
X81877956Y-79977986D02*
G01*
X81878644Y-79978620D01*
X82400718Y-80499304D01*
X82921379Y-81021355D01*
X82924795Y-81029633D01*
X82921357Y-81037901D01*
X82920669Y-81038535D01*
X82687120Y-81236897D01*
X82685292Y-81238171D01*
X82485520Y-81350799D01*
X82484999Y-81351059D01*
X82298611Y-81432941D01*
X82097613Y-81546261D01*
X81861774Y-81746571D01*
X81853250Y-81749314D01*
X81845927Y-81745926D01*
X81154073Y-81054072D01*
X81150646Y-81045799D01*
X81153426Y-81038227D01*
X81353738Y-80802384D01*
X81467059Y-80601382D01*
X81548948Y-80414978D01*
X81549185Y-80414504D01*
X81661833Y-80214695D01*
X81663094Y-80212886D01*
X81861466Y-79979328D01*
X81869432Y-79975243D01*
X81877956Y-79977986D01*
G37*
%TD.AperFunction*%
%TD*%
%TA.AperFunction,Conductor*%
%TO.N,VCC*%
G36*
X107212487Y-79575865D02*
G01*
X107574035Y-79600934D01*
X107575896Y-79601216D01*
X107776945Y-79648700D01*
X107837251Y-79662944D01*
X107837721Y-79663076D01*
X107986975Y-79712159D01*
X108062500Y-79736997D01*
X108062503Y-79736997D01*
X108062510Y-79737000D01*
X108325020Y-79799000D01*
X108689110Y-79824244D01*
X108697126Y-79828235D01*
X108700000Y-79835916D01*
X108700000Y-80814083D01*
X108696573Y-80822356D01*
X108689109Y-80825755D01*
X108325021Y-80850999D01*
X108062501Y-80913002D01*
X108062500Y-80913002D01*
X107837734Y-80986919D01*
X107837251Y-80987055D01*
X107575905Y-81048781D01*
X107574025Y-81049066D01*
X107212492Y-81074133D01*
X107204002Y-81071287D01*
X107200011Y-81063270D01*
X107199983Y-81062477D01*
X107199882Y-80987055D01*
X107199000Y-80325000D01*
X107199983Y-79587521D01*
X107203421Y-79579254D01*
X107211699Y-79575838D01*
X107212487Y-79575865D01*
G37*
%TD.AperFunction*%
%TD*%
M02*
